<mxfile host="app.diagrams.net" agent="Mozilla/5.0 (Windows NT 10.0; Win64; x64; rv:137.0) Gecko/20100101 Firefox/137.0" version="26.2.9">
  <diagram name="PÃ¡gina-1" id="d_5IL4p2AetfCjKZ3xt0">
    <mxGraphModel dx="1680" dy="2062" grid="1" gridSize="10" guides="1" tooltips="1" connect="1" arrows="1" fold="1" page="1" pageScale="1" pageWidth="827" pageHeight="1169" math="0" shadow="0">
      <root>
        <mxCell id="0" />
        <mxCell id="1" parent="0" />
        <mxCell id="PbY_MZgcbPNX0MPxPYcz-238" value="" style="group" vertex="1" connectable="0" parent="1">
          <mxGeometry x="20" y="-1120" width="780" height="1043" as="geometry" />
        </mxCell>
        <mxCell id="PbY_MZgcbPNX0MPxPYcz-106" value="" style="shape=image;verticalLabelPosition=bottom;labelBackgroundColor=default;verticalAlign=top;aspect=fixed;imageAspect=0;image=data:image/png,iVBORw0KGgoAAAANSUhEUgAAAyMAAAKPCAYAAAB+ehXkAAAgAElEQVR4Xuy9P5IcN/K/Dd5EpDcMyljdQsN4HUbIWE2Izu8IQ8pSyFDQkjhHWIeK4RqKoKPg6Bb7NchgexzehG/9aVShgMxCoqq6u7r74TpasgoFPJlI5Af/+sHX6o/jDwQgAAEIQAACEIAABCAAgT0TeIAY2TNxPgcBCEAAAhCAAAQgAAEINAQQIzgCBCAAAQhAAAIQgAAEIHAQAoiRg2DnoxCAAAQgAAEIQAACEIAAYgQfgAAEIAABCEAAAhCAAAQOQgAxchDsfBQCEIAABCAAAQhAAAIQQIzgAxCAAAQgAAEIQAACEIDAQQggRg6CnY9CAAIQgAAEIAABCEAAAogRfAACEIAABCAAAQhAAAIQOAgBxMhBsPNRCEAAAhCAAAQgAAEIQAAxgg9AAAIQgAAEIAABCEAAAgchgBg5CHY+CgEIQAACEIAABCAAAQggRvABCEAAAhCAAAQgAAEIQOAgBBAjB8HORyEAAQhAAAIQgAAEIAABxAg+AAEIQAACEIAABCAAAQgchABi5CDY+SgEIAABCEAAAhCAAAQggBjBByAAAQhAAAIQgAAEIACBgxBAjBwEOx+FAAQgAAEIQAACEIAABBAj+AAEIAABCEAAAhCAAAQgcBACiJGDYOejEIAABCAAAQhAAAIQgABiBB+AAAQgAAEIQAACEIAABA5CADFyEOx8FAIQgAAEIAABCEAAAhBAjOADEIAABCAAAQhAAAIQgMBBCCBGDoKdj0IAAhCAAAQgAAEIQAACiBF8AAIQgAAEIAABCEAAAhA4CAHEyEGw81EIQAACEIAABCAAAQhAADGCD0AAAhCAAAQgAAEIQAACByGAGDkIdj4KAQhAAAIQgAAEIAABCCBG8AEIQAACEIAABCAAAQhA4CAEECMHwc5HIQABCEAAAhCAAAQgAAHECD4AAQhAAAIQgAAEIAABCByEAGLkINj5KAQgAAEIQAACEIAABCCAGMEHIAABCEAAAhCAAAQgAIGDEECMHAQ7H4UABCAAAQhAAAIQgAAEECP4AAQgAAEIQAACEIAABCBwEAKIkYNg56MQgAAEIAABCEAAAhCAAGIEH4AABCAAAQhAAAIQgAAEDkIAMXIQ7HwUAhCAAAQgAAEIQAACEECM4AMQgAAEIAABCEAAAhCAwEEIIEYOgp2PQgACEIAABCAAAQhAAAKIEXwAAhCAAAQgAAEIQAACEDgIAcTIQbDzUQhAAAIQgAAEIAABCEAAMYIPQAACEIAABCAAAQhAAAIHIYAYOQh2PgoBCEAAAhCAAAQgAAEIrEqMvL184K7+UYzyzbX7dP/aXVT/3D33/a37evfj/qz451P34Pld9b2H7vrDZ/f6ieXTb93TB1eueevlJ/f597oF8/7YOG3ci4eP3c0X6Vtp/W1lSmX17Uv/9dLdfn3vJlvo4wv36Nsbd78t+PLNV/f+p3nseBsCEIAABCAAAQhAYD0EjlCMBEl2IFD2gXTz8yP3+I82NTYnxmFCvZB4sgmHMTHS0grbYCtzv2Ik5N18eSF++/AVvgEBCEAAAhCAAAQgkCewUjEyPqPOyohfQRrjpIi2UBxJq02udDXDr4yUrBblHdO5vv4Pv3no7r/UIrC0bpbvnNAzk1buTqj9NAUCEIAABCAAgaMjcJRi5OgoL1zhfhVjghip6iK9bytzbGVkYTHSiaaqjR8u3C/b7VrmFamFmR9FcYiRozATlYQABCAAAQhAoCdwlGJEXRmJzhjUzRye0+hn2y/ffHIXv27PVAy2e6Xbm7oEeCTZi7c59d8dOTMi1NcZtp7ZhIO+na17f8UrI90WrWZr1r/68y/KVq10m1kk1Lzt6jb/tnGPm7M/w61qybawxH+q9Rq/Va+ux+//G5xpGW4jC/gP6jziD51/9R10KL7CVahXbvNtexap/u6tuxLPW8nvhyGQ1SYGBAhAAAIQgAAEDkdgpWIkBjKcdRfFiJDIdaV0yaByjqJLyrXD2NuETRQj2tkMX2c5+ZQS377V46sM+vmO8D3DNq0gSbaVKTlqhtkk3w5FY3tovecVJ8/Gg/qKf7TJeuZ8TSDaxu3WCoP2UoUyMTJWriRsB1gtYmSsf0SibJLJeAkCEIAABCAAAQhMIHAiYiQ4XxDeWNWtPPgkfZh0xrdb9Ql5mNTXyXY171zfCiWIEflQe/2dp879Xd+4JYgR7VC78bC7TTjYE+zab2xlloiR+tmJW7c6zoHwCNgMZvulZ8P2eHEwSMaHgka7mED6+4FoEEWu4GvZlZHeR8bbNhR+yZY1deUueG+w8qb9/YRIwisQgAAEIAABCEBgAoGVipHCA+zSdqcIRjIDnmz30Wayg4KEZE/a8jT8tCBGLNu9RrZrFW/TShwj5Wsr0+ZhcsJue3cgjJQkPtwONXoLWF2Y5ziJeWo7dYUmEDvjvjbmDxqj8VW27i2tjZqQq17UV5zs9uJJCEAAAhCAAAQgMJUAYqQjZ/g9kCTZMwgYV5DQVnXJixv5AHrqANI2LX0mfEkxUtWw+22V8ut4x363xLeyF1PzxciYDQtslyT8Bdu0Mluo+hWmjI9qYmREiCFGpoZO3oMABCAAAQhAYAkCJydGxm9bsiWeagI9JkbUlYyxhHbkxweXXBkJy0pm8Fs3Wo0YySbmbX29nS3irXlBTcjHfremQIwssjKS29Y2V4ykv4+DGFkijFIGBCAAAQhAAAJTCZyGGAln4uMkvkkS3faXwMdXMvQzI7+4i/oX1/8v/QV2/czIY7f5rT4cXXBmJEhox36t3SYctCRbXh2xlSmsv9S3S318tT20HQubIPkNVg5MbRPFWLriov8QZdv+dz9sf/XetDqg/RBkLxLyZ0akVRt5JafjMHJWqPneX8/cp/vX7kJYZRtYRBGag5WqkKv43cP9qOjUIMZ7EIAABCAAAQgcL4GVihEBqHQNbXCmYPSWo+7dzLYq9ezJNhkVxMgg0Yuq3c7ey7PZ49uLjGdmJL+T2hol9j2rPsme+gvsNu7hykT13+ovqee3yqWiaXxbl+Va5jEbNoitflY9OhBamVWe8NlR/t33M3xGrra2394W8uTa3+MN7dQcAhCAAAQgcBwETkaMNLizv9tRdsbDmzCf0KY3V1l+Z0RMENVEvXcom3CwbT/yibatTNmppXYk2+UsKyPqzH7w3ew2s/5Z+WYqbSuUfPtY3I7Btqbgxxjrr0orPjGburyr/z5ofhMkeV4SL9mbuCKbRGXIDIJ3khUoVkaOI3RTSwhAAAIQgMBpEFiVGLEiVX/00FoAz0FgIgHOWEwEx2sQgAAEIAABCEBAIHCEYmTOTU34AATmEUCMzOPH2xCAAAQgAAEIQCAkcFRiRNryUv86N38gsC8CiJF9keY7EIAABCAAAQicA4GjFSNjNzKdg+Fo42EIIEYOw52vQgACEIAABCBwmgSOSoycpgloFQQgAAEIQAACEIAABM6TAGLkPO1OqyEAAQhAAAIQgAAEIHBwAoiRg5uACkAAAhCAAAQgAAEIQOA8CSBGztPutBoCEIAABCAAAQhAAAIHJ4AYObgJqAAEIAABCEAAAhCAAATOkwBi5DztTqshAAEIQAACEIAABCBwcAKIkYObgApAAAIQgAAEIAABCEDgPAkgRs7T7rQaAhCAAAQgAAEIQAACByeAGDm4CagABCAAAQhAAAIQgAAEzpMAYuQ87U6rIQABCEAAAhCAAAQgcHACiJGDm4AKQAACEIAABCAAAQhA4DwJIEbO0+60GgIQgAAEIAABCEAAAgcngBg5uAmoAAQgAAEIQAACEIAABM6TAGLkPO1OqyEAAQhAAAIQgAAEIHBwAoiRg5uACkAAAhCAAAQgAAEIQOA8CSBGztPutBoCEIAABCAAAQhAAAIHJ4AYObgJqAAEIAABCEAAAhCAAATOkwBi5DztTqshAAEIQAACEIAABCBwcAKIkYObgApAAAIQgAAEIAABCEDgPAkgRs7T7rQaAhCAAAQgAAEIQAACByeAGDm4CagABCAAAQhAAAIQgAAEzpMAYuQ87U6rIQABCEAAAhCAAAQgcHACiJGDm4AKQAACEIAABCAAAQhA4DwJIEbO0+60GgIQgAAEIAABCEAAAgcngBg5uAmoAAQgAAEIQAACEIAABM6TAGLkPO1OqyEAAQhAAAIQgAAEIHBwAoiRg5uACkAAAhCAAAQgAAEIQOA8CSBGztPutBoCEIAABCAAAQhAAAIHJ4AYObgJqAAEIAABCEAAAhCAAATOkwBi5DztTqshAAEIQAACEIAABCBwcAKIkYObgApAAAIQgAAEIAABCEDgPAkgRs7T7rQaAhCAAAQgAAEIQAACByeAGDm4CagABCAAAQhAAAIQgAAEzpMAYuQ87U6rIQABCEAAAhCAAAQgcHACiJGDm4AKQAACEIAABCAAAQhA4DwJIEbO0+60GgIQgAAEIAABCEAAAgcngBg5uAmoAAQgAAEIQAACEIAABM6TAGLkPO1OqyEAAQhAAAIQgAAEIHBwAoiRg5uACkAAAhCAAAQgAAEIQOA8CSBGztPutBoCEIAABCAAAQhAAAIHJ4AYObgJqAAEIAABCEAAAhCAAATOkwBi5DztTqshAAEIQAACEIAABCBwcAKIkYObgApAAAIQgAAEIAABCEDgPAkgRs7T7rQaAhCAAAQgAAEIQAACByeAGDm4CagABCAAAQhAAAIQgAAEzpMAYuQ87U6rIQABCEAAAhCAAAQgcHACiJGDm4AKQAACEIAABCAAAQhA4DwJIEbO0+60GgIQgAAEIAABCEAAAgcngBg5uAmoAAQgAAEIQAACEIAABM6TAGLkPO1OqyEAAQhAAAIQgAAEIHBwAoiRg5uACkAAAhCAAAQgAAEIQOA8CSBGztPutBoCEIAABCAAAQhAAAIHJ4AYObgJqAAEIAABCEAAAhCAAATOkwBi5DztTqshkBL486l78Ny526/v3Y/wOTECb93TB7+4iw+f3esna2paXa8rd1dV6fLNV/f+p0PUba1sDsHiSL/ZxK67A/rQkXJbpNob9+LhY7f5bUr/bfu/O1jfXwQAhSxAADGyAMQli3h7+cBd/SOVeEmSuCRoykoIbH5+5B7/4dz16hLWhYz18YV79O2Nu//+1n29OwW51SYBN18MseHAyVob1x4Ofcvbw5v3m2v36W/nnu7bRgdms5B3n3ExW0F7Mv36yEy57cfu5Sf3+feLssrPebfsSzy9cgKIkVUZyCcXUqWigXxV9aYyOyWwp4B9NmKkTnrvX7vCYXOnJp5WuI8Xhtiwl4R7Wx+X8vWTLOHqh+hvXqDs00Z7YTPNwryVJ9D41uZU+nS+vat7Ys74NOfd1YGgQnMIIEbm0Fv8XX0wX/xTFHg8BPYUsE9ejByPxZev6V4S7rL41frbxeFXfPfCZnmTUmJN4K17++eP7seDbO/DAg2BOePTnHfBf1IEECM5c24HKv/YwylLkblvdP9eNpibi+XB4yawp4CNGDluNxmt/V4S7rL4hRg5YX+jaedDYM74NOfd8yF8Fi1FjIyYWT2/sbMtBMbBfNuBL15eu80f1R74sA3F+2bb/babWGQJQcInD9cvN+7mj8FXyw8OxvvFfRsStsrWtaidfqn++uLG3WzP3HTC0fitpn1/PXOfftu4x9VhyPDPUITamTVzd9I5oKidItuqjbfuSjhDFJ4R0Lb2GbbuRL7fiZGXF5V9h+0fHi7uDx0Pi+jrJW3LCWfRSs5ttPUa+ltdVmJfwfeHZxXkveVaP48PVEs+1rZfYB1NYsjPCRwLY0tb9+GZEYnX5feX7u6f+IDv9L6VtEdsb38ofSB03fbsTuR/LW9l/79Yvm933h/9p2azSWy9kA2rnv7pyS+JnyeH+hXOriQe5lIbP77Eh4oFQbvkmGAvyx5/9TJb33FxbBb635z47c+mWWNMzjTiv4/kA43/uPZwf//HGq+qN+KYKvjfwyq2uCq2JGdGLDFQFCPLjWkSr8YWs/pbzC8fAxaxv+eZjHMFZwcnOdh+XkKMaJy1oL99fjcrJGVipE7P+noU7B8ftLk0sDdf7Q+iTt3jXfF99OH14MCbTxTCAVg8+CoMin1njw/z+kAhJ2yhHftEJQw2EtdyZoOkQhV6EVtvp5HZIzHpn2gTsf1SWfXf/fyd+xweAt/aJCcQpqy+vL185P73e3gLVBp8RT+ptnA0NzV1wTtNdH2bJbFZpe6DLUSij0kDhHhQPu3bkpAoDftJGZK9gli2WN8SB0Y9fkl2l1dGBDGi8nzq3N+VX9TiJuePNdhiNtENX8L7y9mwrmDob0LcUvq1FAP0eGjwsGIxssyYYI4/235tn0CL6heO7YH4kMYf6e+kbUny2NGyLokxBuukjwSTbX0cCxNkYbwOE1qzX4345CAXCfraIHEW4oMwti05pqlipJmwNPa3TBtyMWA5+yui40RWlxAjSu/Xb7XavlA4g2kLMvoB9kGypDnfpK0YpYl1ettSrjPa2t4HsH6GRbslZcvpor8VSZ2JV5mkHVtNlJMyrMwyB3qDQ5dywNqSU4ONfouMOIhmDKG132bfuC5S4DSKbYPDJHWNxVBdhmK3XpyM1EcoT+aQljHuR5tOyNu4jsOIyyj14Z6F/47Wt2KRL7HbjRiZImDrswRDIeqTQuG2uKyf9DaI+9UubNhZIrrdTuewbWswJqnx0NC3fLJ9YV4ZWWZMsMcfa/zVbK74aRJnl4jfZTHGYp7kGWV8kHkWxCvfh7xfaWOpOrmm9bU+BqbCbtkxTRcj6Q2EMa9l4viy9tcF8/HfgokYEXu/Lgq6x3cpRoTbaAbV1JJTbUZrNMLNDew+4C9wEDVul7a9yrcnGXzzASZEEc+mq8En4W1lpm0f8bXo6zuacGXsLV6pKCXnE8WIPIMdFyYMIvHgteAMTspLS8iE2a+RlZKuVcJsvJZ4+u1b/oau3ERGtzqhrFiUJCRxndTkWLFFuvktnWyxtruKBO1Vw0L8mrMyMi3hT/2xlI2pX+3Ahp39I5vpHLSVQsOVz5KzFa+MpImQLWYMP67FwLQsa/ydK0aWiN96ct2t1BVvrY6MNlOMWP3qX9rV7yOrG1os62KgMuab+l5JoAyetcaBZeL40vZXJv1yOeNEVvt8DTGi0M45YrKXchGrGWeOT0KMGFaBMlvlQhuMJkzRnvrimcepYqRATE0SI2MrYRMSf3syoJyDqcEOBtZh4Jw2w12VqXIc7t0dli8NAtHfjTKyJ7NDMZKbyBjfb1y6/XOyGFmqbw2uVN2FGLHFRDVeB/5oTULSFbUguIs+M0xa59pQFiPjHMx+YBmnECPt9uEl4ndhjLGYJ3lmlhix+5VdjBTEwLjuC49pEk9bHChoQ/MRJQbswP6D+k8Y5yf52B5eQoxokDOBaDe/FmwbeNWr9I5oZSRelWjMUDJLEtlNCzBjCbB5i8tUMSJsFdHcbZIYGQtEE7bsWcWIvAVMngHqGb92/1NmzcfjXLriUT8v1jXk8e0L4ReZ4zrmZ63CGTrrCsG0mXw/+JVdPGBOQmesUlnbfaiVEas/2pIQIQ6FDjrar5axoSxG/ASAtNqRjhvTfHD7ZcTI9izjSHyIglZ2C520+rFUIjlLjNj9yhWvjBhW5krG/Alj2nQxMsZlbMSKY0DZGGPK+QMOrz+czg8VI0bGrK/MHpbOfJkcrHnocGIk3jvuB/j0gPcSS/LWPbtyIjolwKQ2S8uW2twnvvfBjWFygEnfl85NyN4wSYzEe3qDokWxl3FEqxiREx0l6PrAub35LdmHnuscEwfa9lY15TKDLjHQ7SMluNakXE6Ocw3tk+ASRrKgDn21/a5fOegnUeb3reGK0Hj8mrNNK8fT6o9aOSVssv1qwoRQ+v3QZr04VTkUbCk0eKH6uxFSPa0xw/Jde1nW+Dt3m9YS8bssxlg4Jc9MjJF+W6nZr5Stv3qukMahfN31uJTte0Z4s/tb7juDGLAL+3v/v3bXm2qcC87O5qq25n9HjBis020BmLu3M/utQ4iRNFHxwaWu7m7EiJAcBStR4g1XwtWVvzz51N3Gpc8E9sutfSIm/V1/68mg3V6QRmeE4oCmMfNbPpx0le/HV85f/Ti+hUkP0N13Az7S32Vdr5bCysxX+/f9maB08AmWqNVrB+saGGbKkor6suPzNfLNY6od2pQ8OdQs2mfU5mkb0qTc1zla5Wh8fONeVVeK/rideNj8Vl9nKyefFpslft/1I1/P4XaD9BfQK44T+1babt+v09WdOWKk3y4TJ+btxMj/e9Ne/SzeJCTdGtT5YRmbtF+17y9jw9ba3j5yH5b8Sva1WSsjflLsS8+7GwODOjby0xgzLL5cUpY1/splWifDqlorsaAp1xq/pTJGY0zZ6qi2U8Ledqtfpc+FfiHfSDgWAyu+gpCyj2l2sRj6n+TL9v7m61wQxwvsb+knfb9rT/ztZpeOtSbLPYcYWY7lAiWN7VNMr+dLDnlNmJXbpkFtkta1oE5kqpu4o98fKRks8jDStl6+uXXuefqbJ2GC2Zc7DHLjg6/EdSRhevPMvXse/n6LlEQP94i2iXbKrKmvssKWJob6jRhDBvnflZiyeldi3zCg1018+PLWPfvrSpylmSqOOlsnWyar9r9x7up5cCuLf7h7VhrQx1dvBj6r/maJRYzUJcX+sS09OcMw7CmlA4vo97G/NUL4O/ei6s8uuiFpTt+SxEi8z36YXA/9Oxa5g1gU8xe2zYY+bvbHmWzifhV/d0py0Nmw8eng9yDES1Ikv1J8Ujkrl4/NfZLYXXBQ1+Vv555+e+PClbuSmJH7bllZtvhrT8j7Ntt+L2OYBI5PJiljwFK/FzFzZUTOARpPHlxt3jwnxeKv7Rbcdz/0k4N6mdW/CBMEMXMpLll2N+R8rInM/reZJve3YRtMMUDKAeZMbieTTpaWr/sZxMi67UPt9kggO6DssS4n9amF9vqeFBMaA4EtgXmrGGA8HQKtwEp+P+V0GrhsSyZOvp5Gf7OfZ1oW+u5KQ4zsji0lHxkBxMguDDZtKX0XNaFMCKyRwGkkR2ske1x1asafv55Vq5ivXXWXF38yBJp+U/2Sut/qbAV2Cv3NrxyVrqRbGR3iOcTIIajzzVUSQIzswCzC4dodfIUiIXC0BE4hOTpa+GupeBMn37ln1Rmo10/WUqkV16NZbXfpNjJDlY+/v53mBB9ixOC8PHImBOoA9+sFM1MLmpvZvgVhUtRJEogPQ59kI2kUBFZC4Oj724kKV8TISjoI1YAABCAAAQhAAAIQgMC5EUCMnJvFaS8EIAABCEAAAhCAAARWQgAxshJDUA0IQAACEIAABCAAAQicGwHEyLlZnPZCAAIQgAAEIAABCEBgJQQQIysxBNWAAAQgAAEIQAACEIDAuRFAjJybxWkvBCAAAQhAAAIQgAAEVkIAMbISQ1ANCEAAAhCAAAQgAAEInBsBxMi5WZz2QgACEIAABCAAAQhAYCUEECMrMQTVgAAEIAABCEAAAhCAwLkRQIycm8VpLwQgAAEIQAACEIAABFZCADGyEkOcUzU2Pz9yjz++cl/vflyk2UuXt0ilKAQCEIAABCAAAQhAIEsAMZJFxAMWAm8vH7irfx666w+f3esnY29s3IuHj92Nu3af7l+7C0vho88sXd7sClEABCAAAQhAAAIQgICRAGLECIrHxgm0YsS5yzdf3fufECP4CwQgAAEIQAACEIBAngBiJM+IJxYlsPRKxtLlLdpYCoMABCAAAQhAAAIQGCGAGME99kxgafGwdHl7xsHnIAABCEAAAhCAwBkTQIyszfgfX7hH3964+0G9+rMYfjtUXO3h9qi37umDK+fefHIXv1bnM76ET1+626/vnT863hz+/mP4tfrphy8/uc+/Byc6MvVqy3HRmZG2Hnfh57+5dJfV39yFZ0bEsquXvonPlRjLW5tNqQ8EIAABCEAAAhCAgEgAMbIqx9gm21ESXguQ23/XZzHqVYAX7rv7Xkw4J70TJO3f3/a3Vv351D14XkmD4O/eXj5y//s9PHS+XWn4EoqWXL2ck8RIeo7Elx0Jjapejz68HogfL5JCkWUub1U2pTIQgAAEIAABCEAAAhoBxMiafGMrFvKHwIeVbpN0QTyEQqR5xbalKREWhnqlYmQrYCbWwW1XS1y3QjOzvDXZmbpAAAIQgAAEIAABCDQEECMrcgR5q1O+gnYxUq2jJMIlLT+uh6VeyTOJmPDfsQmiRIzMLS+PkScgAAEIQAACEIAABPZMADGyZ+Bjn7MIBee3WiUFWVZGBDGinddw8TmV4VmT+PPzxEiwfSsquDu7ghhZkadSFQhAAAIQgAAEILAMAcTIMhwXKSW7AuGFQ7T1afrKiHwWZN8rI+IPJsbiAzGyiI9RCAQgAAEIQAACEFgTAcTImqyxXfVIbrLydVTObqhipLq3Krw5KznsriT42pkRtV5V/dQzI/GNWF5QdX+vbNvSzoxky1uTQakLBCAAAQhAAAIQgMAYAcTIqvyjvwWrO8QeCpB/ba/9DRLy/qpfYZtW0zb/9/1WqP6AvP9e/25/1W+/TasTMXVp/hfWI2E0dptWJ2LCLWZCG7qyg61joQDybc2V58+b3CdXA6/K2FQGAhCAAAQgAAEInD0BxMjqXED4LQ3pel5f7yrhvv3hnbv64yJYBelvnrp1V9VNW30j878fUgmTN85dPd/kfzMkqJe8xSw9C1ILjtcfqt8k+euZ+3T/2rW/ZCI9d+vc8yu3GfzeibG8ZPVldUamQhCAAAQgAAEIQAACFQHEyEm6gXYN7kk2lkZBAAIQgAAEIAABCBwpAcTIkRpuvNqIkZM0K42CAAQgAAEIQAACJ0YAMXJiBm2bgxg5SbPSKAhAAAIQgAAEIHBiBBAjJ2bQtjnt2YrNb1/d+59OsoE0CgIQgAAEIAABCEDgBAggRk7AiDQBAhCAAN+S7bgAACAASURBVAQgAAEIQAACx0gAMXKMVqPOEIAABCAAAQhAAAIQOAECiJETMCJNgAAEIAABCEAAAhCAwDESQIwco9WoMwQgAAEIQAACEIAABE6AAGLkBIxIEyAAAQhAAAIQgAAEIHCMBBAjx2g16gwBCEAAAhCAAAQgAIETIIAYOQEj0gQIQAACEIAABCAAAQgcIwHEyDFajTpDAAIQgAAEIAABCEDgBAggRk7AiDQBAhCAAAQgAAEIQAACx0gAMXKMVqPOEIAABCAAAQhAAAIQOAECiJETMCJNgMAqCPz51D349cJ9un/tLlZRof1VYvPzI/f4r2dn2fb9UeZLGoHG/z6+cl/vflwVpLeXD9zVP1WVvr9dXd1WBeokK/PWPX1w5e6w/Ulad+lGIUaWJjqrvI178fCxu3HXJ5bUbNv15dLdfn3v1jVczjIYLwcE2sTjPG18zm2nE+yIQC3un9+5hy8/uc+/j8n7A48bH1+4R9/euPtB0uljvmfz0F1/+Oy++7mOEe1/v36yI24UuwoCxMRVmOFoKoEYWZWpDjyo7IyFH5gYhHaGeAUFn/Pgc85tX4HrnWYVtmIkv6qwp3FjW5/LN1/d+58C5F6MfBNMom3/zkVCyq+UJGWcpgXPt1WNr2wQnefrAcUtR4wUI9vlC3saVHbZBMo+WwLnnJCfc9vP1uFX0/A9jRuaGJE4bMXIRSxcVsOMiuySwNs/37off2IPxC4Zn1rZiJGcRf3s1Pa5/JJ5rsCxf9/ToDKnirwLAYXAOSfk59x2OsShCexp3ECMHNrQfB8CJ0sAMTJi2u7wXfxMuBy9qGtYBpV4L66vQLwFant4LKxfYb2bQ5F/3Cct7ASZuFe4fbxl19dJTNYiodd9KDrw1ry7uXbXFzfupj4M2f0Rtn35OkW1Hm4LmM/GCXUfClXFThMO86l+WLXRt6u11UVyJifhrvBxkW/48q5fbtyN94Gu7lLbLt3l93fubnBmRODc2GV4rkT81tZ+U7ZziLws7Zv9zUs34NWUF/mokb/d57V4MPy25kMDvn42++W12/xRnQGIbSX21+XjjnOyf92+ce7quet9XJt9V5Jmi19YwrkUFyWOceQs9mVxq5MUu6q+56q+F501tLTX1vcUH+v6VHhQ+V/tuccvEclt7Gi/54bbd8Q+0ftVdhxqR5zmsPSm8t2LynfvZox73fjlbt2nJ78kY2BiR+M4Nh5T857nY8LwgpA0Z7DZNP+97Uhu5mqt35itmjH0+X/aM0hBFdWtgYZxfugTQbwy2s1Kavic98fovJfUp8W4uy1NyoUGOVD7XHFsmdaonb6FGNHwao66fX43KyR5MSLuuRX27C4xU/v28pH73+/hQcP0IHosOsIAFt6ioSbFUZIota8fVIMkVtxPvR0UxTL7d+ezyd8SInIpmVn0fikEL2lAN4uRqg6PPrweHIj1g30Y0PoEIBV8/t/CPiDaqK77z9+5z+ENP8KhXPFb0j50QyiU2uJUhvVwF7Rv4je75KUZJDI+auRv9nnBp1L/rvvtC/fdfXh5hNBXgqQwiW9jh5SDJHh+36qkyHYSxORfVdKSbAUSmFj9IutiylmI/j1bDMp+p35A+FYaHwOhEMQ9a3uL+p4av4R4qAjFNHbpvG7/3Z5NsYxDPsFtREiQwE09oyL2v63guQv7uBIzpO+OxVSLP1iT/SKbZj8ciN8MV2v9ZFsNBW8/Fkn+Ye1jct2bJhfYLYtIfKBcjDSjUXfGSjpna4zj0yp88LcQI4oJxmajm1cKVxlsls6JET0JjgefJZICqc7JYCLd+GJIkMQZsuaDaaCR2yKwyhyw9EnLfDY5MaL9+7bOF/ZrLsdmEsMkzCxGJKOOJOup6NZ91MY1ZaP5gq28sEGZulWra35Wcblvtt83+6iRv7U88Tnj4VHrBEFdZbW/Rt8qt1kMpMC/zCsjdr/IxumcGDHGoOx3goSpPwSeiSudKLS3t6gf7EKMTJmgEf1RYZOz1+j4n94MGPMqGcckkW3yg+1D1mS/yKbZCti5WuvXjfHxLoHRFc10kkdbLenHRS9G8nbsMchCJ4speaBcjMSXPfjdF7lVj/kxt7x1u3gDMSJSHdv6sH3hEGJkLLDGoiBY2ck5c4ljWWa2pM4R/53egbTVlzSgxMFPW8737esS6wXYyDNn2y9pW3F8RUp8R0os1ZlfwzYtYzKcHWSF7Wa2oGgXI5rA0v1V2xbm3+h9SGtf+TfHxMhWpAQiSKy7OgNu9fmh3XXbDb+uiZFkUOzElk6+izGz+5Yu9LX65ldG7H6Rj4XySoR/zxyD8h9KV0bU+B+LD3t7i/rBDsSI1VcTyZps99L8RkkKM/zVWBYxKBnHprbVV9Wa7BfZNOuHdq7W+s0VI/Y+VhBLOg5p/pFFJD6wgBgxXgJhG3entWKfbyFGFNrZlZEJe//zhs2sjIzNIhn2FxdvLVOT6uHWnWHwkwPAsMOMt9MqXOLgl7PZ2LmRYja1MQdb+Qx7Ub0DFPmOTyy25f9f+9sD2hmP+Hdc0kClC+2QwVJiRLVJwGCxwbNABC72za1NtQEhHaBt/M3ldW1uhcu//DkvZdYxjUGB4Mklu1+0CDZ+bqSsbxUkENaVkQK/yMfo9olhQhRvATWINsuHYnvk7ONXRgraW9QPdiBGTImUaRyyJ80W9DYxUjaOIUb8j+EqtjKujNjHeetKYmaSxuIwyTM7EiPq8YHj/30vxIjmaJmAvuRqQ1+FjBgxrIzI9ZL2H+Z6mLxcObZtqJlR/fZFkyzH9bAKjO7wqmEfurwyEh2OzDWzOyw74zdQ4v2nE7cGiFVtgk/VJvEgeeA5xgPsrR3kQ9XhjPgSYsQnbKII3IUY8Vv8DGKvKAnL+pC2TStdGbHyt4qRph3VL7+HlzvYznsIdR7xW1PSmHCaEXcsK29WMVLgFwZTDx+Jzq7NTTgHhU8VIwXtLeoHOxAjeV7WcegQYkTv99I4lm/ruPdZVx6KbJp1eDtXa/2WWRmxjPMFExsdh9xW+SwwPz21PfhvP8CerEjH8c3nGeKhdsSI1TLH+ZyiQstm+kqanusI+n5GMckJP21c8uteURITOdD19W6TImV7SfD3cqJafV3ocNbEzK9UFNunlI1g0uH2nqX2nRq3+XQztXGAjvfMKv4l2FofOLVl7HR/rmy3XW7Tsi+xLztgW8WInb/N541nkIwzjtKBae/qan/NhbfivmX3L62+fua0F8F2v8g1R/r3QRImnaGbUmj9TtIvlbgST4Z0Eyz5BKWoH+xAjGRjtnkcsifNFnOkPtS+FY+zJePYImIkHlsT2+vnu4ZjlIVC0+ImqQ4vo9mSSJJtMWYJ9ZsrRrI+0zVNFyMldrOSGj4nf9t/d5CjaJNAcey0xvFpFT74W6yMGEzQLQsaZlwNxY08khMjwfaAZGa5uoshunp181v/S7lZsZLUKk0u+60J+g1LdTGSGEgDVbT96EkQ+KLrUG2JWf1+vwUmnY3/xV18qG8Ga5+ZxaYJEhv3qtoW0/6sU5okdKyEWYxfnkSzJWNOoy3LxudOkqAf7htPt5F0fIIVQNs2LcEHB6uI8bmM+8AfgjrtZGWkAul5SVf5fnzlvm5v9ipKwgyd2uqjSZKj8LeWN9wuFFQ09DshIei3Oli2ael9s02YfV9YoG/VvTjeaqb4V9/f4yvEWw6DGGD0i6yp63J+veguQkgnTywxKPuV9gEhSfF2k86/DbZuGttb1A+UmVkxuVREaPq9PibE547a/28dh+xJs4V+uBVoeH16OM5q/UIa20YugbBUqH4mWoXrfK/+t+QmtXTlYNdixFq/2WLENM4HthHzNnv+YRc/Q0PGsT6M1ZPEiDWOW/1pZc8hRlZlkJGD85L4COoeCwBpX2Xx1rJBEtAM7669638zvCc+GDir1DP9t+rfR2fJBzbIr6r4x0eXhb9Ehg2C9Xw2YaLvv6Pd2BH/2kDhdjBhprUPatLvdfTfq33ivXsa/f5I6mOXb26de17f0d+LpNwsXsyw8b9mi17wOxCd3XtbPHx56579deVughvFihIiS39VBFx6dfFSA7Z1ZaSuvI1/qRgJ29bZJhRkMZPq325/eOeuwt+myW4vlPy+apJw5WdopuK4I/rNJ/fq4+Nqi2HUz+IYVbf5b+eejlz5G7tQUf2SmDhMBNuylThecnFFEFOH2zck//nqXn9ot+sNfoNiB/1g0O/F3xnZ/uq2WYwESWNoGElMd/8ujUO7ECP+O8Gvlog2LBkPLNuL9CAXx93ad6/+2/4OV+6mwJ2LEaHfSvWbL0asfUxfGWkJl9jtfsJvecTl17Hryt02v4cTTEhaV0bqKlviuGWMXOEziJEVGoUqQWCQ1EhXAUu3bIHtzAi0g91gYNsSmJZ4rBvftHMr624TtVsnAXxtnXY5RK3kSc9D1OS0v4kYOW370rqjJjDlAN5RN5jKlxBQVzLy2z1LPrOWZ0kQ12KJ068Hvnb6Nja1sImx79yzZou36Q0emkgAMTIRHK9BYB8E1DMB1ceLtpfso7J8Y+8EpC2HbSUKtwPuveblHyRBLGfGG9MI4GvTuJ3WW+2kzrsfCs54nhaAvbYGMbJX3HwMAhMJdHvV8zfkTPwCrx0zAeXA8jE3Kal7fHj8pBpHY9ZEoJkECi68WFPdqAsETpEAYuQUrUqbIAABCEAAAhCAAAQgcAQEECNHYCSqCAEIQAACEIAABCAAgVMkgBg5RavSJghAAAIQgAAEIAABCBwBAcTIERiJKkIAAhCAAAQgAAEIQOAUCSBGTtGqtAkCEIAABCAAAQhAAAJHQAAxcgRGoooQgAAEIAABCEAAAhA4RQKIkVO0Km2CAAQgAAEIQAACEIDAERBAjByBkagiBCAAAQhAAAIQgAAETpEAYuQUrUqbIAABCEAAAhCAAAQgcAQEECNHYCSqCAEIQAACEIAABCAAgVMkgBg5RauuvE2bnx+5xx9fua93Py5S06XLW6RSixeycS8ePnbvfvjkPv9+sXjp1gIb1n89c5/uX7vD1cJc24bZjbs+kvpa28VzEIAABCAAgdMhgBg5HVsetCVvLx+4q38euusPn93rJ2NVaZPq5RLEpcs7KMaRj791Tx9cubvvbxcTcVNa2tr50t1+fe8aKfnnU/fg+Z17+HLPIunjC/fo2xt3P8ajqdvG4JNTSPAOBCAAAQhAAAJLEECMLEGRMlybpDp3+eare/8TYmR5l1i3GHH7FklejHyjrXq0vFzWH5e3FCVCAAIQgAAEIGAngBixs+LJRQgsvZKxdHmLNHIHhaxUjOygpYsU+edb9/anH9vVG/5AAAIQgAAEILBaAoiR1ZrmVCu2tHhYury1ckeMrNUy1AsCEIAABCAAgekEECPT2e3mTb/9ZFB6fxbDb4eKPz7cHuW3qHxyF79W5zO+hE8H+/2rv24OJP9xn7QlOQOQqVdbjov2528T6LD0by7dpbur/hdsrxHLrl5KtuAYyxu0ZitWvgjnWXLnHbb1uoi3+mzfC5k3dtlcu+uLG3dTbVfr/0TfNbc1NokiRrZ1SQyYbJvyHIZPdnY21is5M7J9z/kzI1o5QX1sPlzVU2yb91+Zh7Vss71208spFQIQgAAEIACBLQHEyKpcYZtgRUl4nTjd/rs+i1EnlC/cd/fbw8NN3aV3gqQ9TEp9cjdIDB+5//0eHjr3SWsoWnL18qJmKEbScyRBQhy2sarXow+vB7dEeZGUJPyDcylKebFNFdGRJNbxe6VipBEh6eHuwXkKY1tTtxSSb+XchHR+R7xgoOby36v2QLyxXlkxorDv7Wj0YfGAev3uU+f+rv015eF9ZiikfV8YivBetGTstar4QGUgAAEIQAACp0cAMbImmwoz7pbqpUm1tqXHtqUpWeUw1CtdGZlXBxfPuHvRpc34j17fOiLYxg5eF4uRYcJbSTTbzWFJWyWra8l3vBolCdSJW7yEepWJEft343LllbaQS1z2CGtBjMpC1GgvS6fkGQhAAAIQgAAETAQQIyZM+3kon4DJ9bCLkWodJb6aVSgyroelXskzaoJtTPiU7T/ddqCu3rbypggsL4jM27TCK2+39fPbgUZ/l2OiGNFtGa1umcoXHGGmGLFf95z6Zd5PYzEyInyEVRatfJO99hMO+AoEIAABCEDgLAggRlZk5nwCVlVWOyMQbg9SVxEEMaLt8XfxOZV41n8Ibp4Ykc8z1F+IzzRMFSPxSouJ9eyVkS3v6ixJL0YMbRV9smAloHp/0D7Dyla3ivMl/Xi47cm8MjJ2HifrwxaBGfEYFVypUEGMrCjwURUIQAACEDhrAoiRFZk/uwKh/NDb9JUR+SzIvldGxBn0hVdGhlumvnMvLD8guAMxYmqrSYyMrXJFybxhZcRaL5sYGRETRh/Oi8XylZFQyCJGVhT4qAoEIAABCJw1AcTImsyfu91JmeFWxchgtaRuaCQ+lCRV29I09ivb6pmR+Eas5NC1krhqZ0ay5ekG7er48sLd/GH4ZW6Fj35APF09Gm77sbZVaoN+YDv5ockk4ZdFZ/8Ve70sYmRUVBt9WLrAYEhFWSn6ktpAvwwhZ681BQfqAgEIQAACEDhNAoiRVdm1vwWrSzDD5O1fL9yjb2/cfZCQi7cCedHRtM0nXP32oD55TW8a6q/6Da+kzdSr+sV1KQH1detETLg9R2hDV69g61i6RSjYuqWUp5s0uGVM/eXu8O30WuCe9/DX5q0z7YmQUdqatkE6E+HbI9lqeKVwV+/uwP6wPGu9smIktwoj3AAm+nDHpW/H0McEHt4fopvaHjy/S66JttrLb+8L+9yqQgaVgQAEIAABCBw5AcTI6gwYJMy+btL1vP7fqsTr9od37uqPC3f71V/52ydqt+7KXQW/e5H//ZBKvLxx7up5vHIwXi95Njw9H1ELjtcfqt8k+evZ6DmKyze3zj2/chv/+xVNe63ljciR5gB/IGhy9o/P1NSJ7t/OPa1EYXiw3Zzcim2Q2hpXTDugLdglWRFrywqFVPs34cqAxDatV1aMZM+DVJ+NnxF9uHpOOM/U+6/CQ/q+cGOa2V7K9ck5t+HfIQABCEAAAhCwEUCM2Dgd2VP2K1WPrGGzq5s9lzP7CxQAAQhAAAIQgAAEIGAlgBixkjqq5xAjsrlyZyeOyshUFgIQgAAEIAABCBw9AcTI0ZtQagBiRDRr7oKAk/QFGgUBCEAAAhCAAATWSwAxsl7bzKhZu/9/89tX9746XM6flkBzTsDduq93P4IEAhCAAAQgAAEIQGAFBBAjKzACVYAABCAAAQhAAAIQgMA5EkCMnKPVaTMEIAABCEAAAhCAAARWQAAxsgIjUAUIQAACEIAABCAAAQicIwHEyDlanTZDAAIQgAAEIAABCEBgBQQQIyswAlWAAAQgAAEIQAACEIDAORJAjJyj1WkzBCAAAQhAAAIQgAAEVkAAMbICI1AFCEAAAhCAAAQgAAEInCMBxMg5Wp02QwACEIAABCAAAQhAYAUEECMrMAJVgAAEIAABCEAAAhCAwDkSQIyco9VpMwQgAAEIQAACEIAABFZAADGyAiMkVfj4wj369sZdvPnq3v80oYJ/PnUPnjt3+/W9+3HC66fzysa9ePjYvfvhk/v8+8XpNGsHLdn8/Mg9/uuZ+3T/2kFqB4ApcjkCdXz79QJfXY7o2ZZE3Cs1/Vv39MGVc1Nzk9LP8fzZEECMrNDUby8fuKvNtTLYtgn2zRfnLpWA0ATYP5y7/vDZvX6ywgaGVWqE0517+HIXgqENnHff37qvd6WyzHO+PC5RtxWy94VtbnzunyNrq+DabTseHofvr7xrrrV6x+Cr+OFavWdYr/370pGOKx7bdnxxOxmvj8NnqOVuCCBGdsN1RqltAr3ROrtPNusvKAnnMYoRrS0zQFavLiFGjiyx9f7xjSZmZaL7H5TnWVZ7u22HLtR381VK3SeBY/BV/HCfHjH9W/v3JS9GjmxcQYxMdzLeNBFAjJgw7fGhZqVgo87stkLjwl1+f+fulJnsoxIjO0U7R4zstGKrK3z/g/LqEFChIyGArx6JoY6gmvhSoZFYGSkExuNWAoiRHKntNiL/2G62E/WVGA+O21mVi2rb0b9v1e1NiBHPEzGSc++O1Ils07K2l+eOlwAJ5PHabm01x5cKLYIYKQTG41YCiJERUn6pPXmkcAuM1RjObcWGU7bYDA62bxNtoS7TxIjfHnbtLv64cXdhpYVvaGy0cywqgyS4ldXDRWKx/Y4/+yCIEe1ygG05Yf2Tgcq/+/LabSpG99K3xriJdS1frm/t237d/+nrPU2AiYOyWN/qi9H2wPH6WLx/W+fkUW/HkX3W0Zkj0ffDrY0j9vGrjtcvN+5G5esL6M9uDao9YCM9U3ouR2Az6I+WelhsUG1q3G5xk572/iWfZ5PiVs6m7VdE5h1DmV+6KjzjW9vGFsctvwVU8acSPxx+W49/zUTY8/80l5uEvX/wfuPr79yzD6/c5tvqvFypvwf+K/rDlLFP6X/Wdrsp3/Rj6ZfIm6PYNUWM+D5wfXHjbqotod2fpp7/z/1ne6az+/vsNzNxQhx32tIbhq49d9n/EcYUYyzPRopuvBbyBLGdaYmT7a7F8foTnY/YYoFkw6KJZuOYkuXZRsHuHLA+lhTmRbYPr+opxIhmDq3zbp8vclyzyccTST9w+1uytEOSc8RIE9KEASkMID75HDLwQaAw2VLEiKUeTjysXXfsp879XR/e340YqROB2P7ZQU2ta3UZgSY+Jb/JzkwtJEaUsyfJXvhsfQzOX5fx83fuc3jJQHyxgXLRQcw99X3ZLyUf7kVVMJiPcogG/UjQTuuHQ145vxJjgCCss1YQ7CjV3yxGLDath+FOWKcJlGSjPkEO4sycb+3ojJXqh1Findo3SKYUUZZMPIRlBklSGKPM/r51FP98KnRuXNnhZXnSzNbuXiCXikVrv8j1L6nfSD44mJBJxs+hb+djVvRV0aZh0i3Eq1AYWGN5NkhUD4h1kc7B1H/3wn13H97oKfmC5O+y3VWfiduaG0uqZohxxNL+5hn7mGIp0uardk6Wb67xGcSIYpWxWcLmlUmzNRkXGE3s9MQ6HhymJUFKEpvUaWT1ZsrNWJoYiQ/nG5OlKJVLb9NaYGXkXl0p0oWYapPMGaHEY7LJ/zJiRPehaEDJ1mdq2IvbMTKQBb6S1FtNzNPVFq3NpkGwaWawjbISVtP6YYkY0Ww9rIfFAmMz+eEV42YxIn40ra88sRGwFIS6LYHUvpXeMmgrr8QuXmQF39L8MIlHik2V97XV21QwLMhevelRMPrcdk+KL/Z+sZzt7XabKkZs43w6PptjuSVQaPYwToCYY6kxL5DjUdyQ1DbJpJql7f6ZgjElX6zVV635Wf6La30CMSJaRlk2C5/dtxgRO4AsDKYlQVqn8MuD/urdkWRXnP0vFWDWevjZjbGVmN2sjIgzg8FKmjSLlxO39pm/wDdFH1xGjOiDdJzE5+ozNfRpA0gwCyj0idj3x/pCPCOlPRuvSIazg2LrvF2UWeoiImN+NbZtoXTCRBLF2tbFJBnNbC/tGmwXCGM34dkSSPu3EvtaDJTp77IfDrdWhp/pVzHsSW39vl2MTEhSVQ721e/BioFQXrbd21lo9XZJqY4F/cLmSxYharebZjNpxb35siIA5HiV2tkeyw2Or4kRbZIvKtIsRhK7SxMs0+POFLv7ppSMKVmiZl+150XZb670AcSIYphc8riTq2hHZoHG6zNcBt6pGCldvck5vnEGxCcn/aBkCUR7FCNNO4Ol1Or/9QNtTtzOPTcSJgdLiJFxtlIgHyYd9mTFu4fq38J2Ay8G9Xr0M9Jjg45VuCTJamYL5zA2RLYv/P2Xlo/iV0X1yHVE/42tL/7fdh+6tK3IKEYsNs3O2gq8JJvO+dYkMTLa39OVkdx4kj3zNXtlpECMmBOknE+Nn0Oq3862e4oYKegXU5JS+Z0ZYqTBOBInZomR8lg+atUSMaLawTJexZOgwZbOJib8S/29NUssmGL34Vglj3HFuZfZVxEj+Whzqk9kArJ9JrsAkJroD5MRscSxrSqmKlidPb8yUrSneLIYWdnKyIBxuod2TvAbNZ8PZp39lxAjY2wzIjCpT975xP3p4m/EhN/+zr0QftDSKjCaFD+6Qax0ZaTIz7vvzfkNlMivXH1YuXQPv2KPxm6ViAsP72tCwCBGrDZdQozM/dZ0MeJZpv29xA+HFrEntZIPa7Po0uUoU9jne/PwCXtyZh1/DDUo2No1JS7vRoz07Uq2EM0SIzNiuYTaKkaUXRJzV0be/RAenNfPmUmH5MMfP55i9663j/yodHG5Zl9dsH8YutAhHmFlZIy6olp3c3i9GVrkXwwf3Y9p3/s+7mBWZ0+/N+yk9+ovw4vfnyFG5CQk/Iq+MhInkskAICSr+kAvtCxats7XdXr3b+reJYjLiBG1voateMP65NtVMrh3yc3Li+rGq7vE15LkRz3HtOUUzPybxYjvp8VbNdPZvjyd6ImBX6VtKC5v+4LVZqKtvE8EPKw21ZNVLc74iZl+ZnLut+aLkQqi2N/TMyP5saNsDEjaLtiiMbHQb8vZT/Au8zlC6/hjqYO9XxQnj9K40FTJbrf8N6M4MVOMzInlCW2rGLGu5Kk/TCwzCM+vSZ5gjQV5G4z4WcGYkvdWq68u2T/ytTrEE4gRA/Vu2W/SFgvDB7pH5FnnXMeJg419NiqTuAdBdrBn14u0MBmT/s7S9BlipN+738+QDNsudWBt1aKtrOVq33RGvC1z81t1zeJPbTmtzcKZm2gbzJMtnKb9G/fqa3jrSCYQ/npRXSH52l2IScYyYqTfGpRpQ2330frkncD7b7J/vH5Vucig2X1vuta63/7Q21b6O+HQ8bbqUrLabUsTrrP85Ul7vqr2Af/fdVHlgjTvV5Z65C1QPaFtF4gZxytf+RkxpAAAIABJREFU4QpyIuzug62KwequcRU3adtgtboXI1b/sYvNHDGrXcLD8rLPtf3sF3fxob79r4kcRRNSqhgZ9A859oyOE0o8b975+KraJvNjDpLvPcp2GmO7p2zTCvpaHD/iPpkbW6VGWhPe5l3t3FXwg8XZODFTjJhjucWiVjGiTlA0o6zzN4LqZ8PiiRt9q/P4TZ9y3Jli9x6PfUyxILXFcMSIhSXPLEggGSAMM9HxrNfOxUgQZAdNnyLW5oiRMBkPKpI9FBlvwauTqL+de1pteUluDgp/5X5kSbUTrEE90q18QWAMwZVwk7YPDhLGpcRIkBgNjBztlc3Wx9Y5Yn4PX966Z39duZv6Bz4HiU8/EEizzLLvSwOZtsSf3rakzZx3g8igibEwHh5azs+MD3lZ/CpXD5MFhNm+vtyhzeM61X5+9d9wda79osWmuViVllEJvW9fNFvK+oRm3remrIzk7GL3wwqUpf9aZ5q7GLXtP19668fxKMdeE6jlW5SVRNLS7olipG61pV9MSUqXFiNSPQdxYrYYMcZyS6CwihEpR6jsffvDO3f1x8UMMSIImepbIS9L3Jli9yEe25hiQWrzVcSIlSXPLUUgWu5fqljKgQAEICATkG6q2T4p3bIFxvUSMO9BX28TqBkEEgJqHBqJXWA8KgJs01qduehcqzMJFYLASRPQV9PmzyCeNLj1NQ4xsj6bUKPZBNRVPPx9Ntu1FIAYWYslwnqMHlhfY4WpEwQgcMwE5C0tbYvKt+UcM4kjrzvJ2ZEbkOrLBJQtzvXDxReJwHiNBBAja7QKdYIABCBwCALdGaDy34o5RHX5ZkwgPhgOIQicFgF/JqT0/N1pUTi91iBGTs+mtAgCEIAABCAAAQhAAAJHQQAxchRmopIQgAAEIAABCEAAAhA4PQKIkdOzKS2CAAQgAAEIQAACEIDAURBAjByFmagkBCAAAQhAAAIQgAAETo8AYuT0bEqLIAABCEAAAhCAAAQgcBQEECNHYSYqCQEIQAACEIAABCAAgdMjgBg5PZvSIghAAAIQgAAEIAABCBwFAcTIUZiJSkIAAhCAAAQgAAEIQOD0CCBGTs+mtAgCEIAABCAAAQhAAAJHQQAxchRmopIQgAAEIAABCEAAAhA4PQKIkaOw6ca9ePjYbX776t7/dBQVppKLETiM7Tc/P3KP/3rmPt2/dheFbWne/fjKfb37sfBN5fE/n7oHv15MqssyFaCU0yTQ9q0bdx35Vvv373745D7/Xur9p0lqp62if+8UL4UvRKD20+fO3X597xYa2TIV28ani9vlxtKFUOyiGMTILqguXebHF+7RtzfOvewHx7eXD9zVPw/d9YfP7vWTmR9sOtmdexiUP7NEXl+KwK5tr9Sz9a/LPvBu63H/fS4wagnedCBJXaYXxZsQ6Ag0ovkPJ8TQt+7pgyt3l/X1uqitv38J+gqMiwicVv/e+s43scAtQlL28IHG77b/3LvLN+cxSarHizJzFT3d2HazTJ5X9OH9P4wY2T/z8i+qCakrCgRq0N8GM2cafOPqL598lgM64TcWsn0pIVWMZAfZ5f3htJKVMkucZtuX95EyqtXT2351ISZSghgR+mH7TS9GFpoYKm7I8b9wKj7uk/PGItk4uYTdvO+1Ze1vMnHbP7ZNQIwsYUutjJb15gwmihEju/SjpcpWB8KyD+wm6K8gsSjDcFxPL2T70kZP95Xl/WF6XUpbvb7nT7Pty/tIqeU2f7517qcflS2IJWKk9Ms8HxM4fh/vRcHlm1vnnlerarsWI36l2lUrcm+cu9rXzgY/cVm17/aHd+6KlZGdd+imf2z2uNK28xbJH0CMHAh80WcXSkh3E/QPn1gUsTy2hxeyfWmzp/vK8v4wvS6lrV7f86fZ9uV9ZFnLIUaW5Tle2vH7eOUvl869b87I7WmbViUKnrr37RnSPW7T2vz81P3n+ftmazjbtPbUS85kqxZiZE/+ZP6Mn3kIXnj4fRXp/rkbnBlJ9y8Ol2zb17f7mLtZlGEtumVdbStQpcavL27czT/he8F2BKGuzVeDrQ/tQJO2fri0O1J3M7g+KA9q2y1vKsud5mRfqmO/ND5Yog9tFy2v+lmOkGtnh8m2r4bA7ezJqL3qeim+EG8rSBMEaR/9cLm+afY3l5XX3VX/C2dyhOdC/+x4yX5w+X1VXnh+RfCJlv+Fu365cTfVbF3zJ9h2KPphPHsp8Y/Pablb9+nJL81e6fBPslVB4Zw8J/ahqt9+uHC/VOfEhl+JtmIo/S+/3dJqDwG0qV0j/fmAMcP7SHwANefrcgzrz4hoWxovXl67zR9DGzb2r9LI+oxe/0fY4mW0rRR3xrbNdBdT/LZxjwd1iLf5lMVLU//qtrQNeo4T+7fJzwT/zPThfltd9G60RXk0To+OSWVixDpujH6yWIzIY1nlAUVnE4rEiHHcSdvp/fDaXVR9adBr6tj8/D/NedowTg78X9uOuWWWz0PiMb46Y/byohpjwppI2+WtjKUxNFoFMecoJcnS+p5FjKzKJt4xhYPDVT3DPaGxGLEcrlJnoEbOJXSCpuYkni3RZzl9sBruZU3baKl73ky5Q6dlg2v8PfHCgJrHf6+amy7eXj5y//s9vExAPtjaD9rxgdfptq/rKpYr2av6u0cfXg9uCZIGlVyCFn6zD+hBAA4T/dq/fv7OfQ5v1xIGUMlfdF5DC/WDejqgioNm4vM5/1EY+5lQL/ybaskJiXoOZ5AI1QyfOvd360u5PnsfCSrPa3Qft9EeWmIQb0GJ65jvz4eJGVPFSMNhJCFQ7TqI2WHSEfiodDGE/7ucbSckKXI/kc692OOlrX/1M+nheCD3b2P/SRzU2oejGCEkpta4Y+0j2vhlHTeWFCNijFB8buy7RWLEOO6oPOt/6OLkMNHvY53gNwViJDfGi33H2leDGBLGbNuqYN6v8/nR+p9AjKzJRqJalwfC/YiROGGWkojx6zHTazN7UeMHpXzyYjFSrsPaB1c1IBYe8JfapSaLM2zfCwOLvQSWqhgNy4v5arytW3Di9/X3LAFbFr51WzPldntxc/6jC4PEzhlb+kPTFr/X2q6/WzYz23tDvv1+MkJbBbK36zAxY99iJLz9sPFE8faulIXZtpPFiHCDWOKz1nhp7V8F/dvYf8rjdCZmBVeomkS9OCxN7X99YZa4MPh00cqI3s+LxEXnzzNu0zL5r1JfxUfUVcr4ogrF38du0NPsYpm48/aKGVvGtm5yqzD/sGRNa3oGMbIia6hBSOi0ybPBMqh2q0ZuljW9Oji9rtIvX/e/P6ENMiPJTTwbaKi7xUzjs1nWwdWWrFvqo4uRlOss21eV0Wyb2svWvmyAVQeSqWJE9xdLwM4mcKrB4u029YPyNa1qPaKBrZ9Bkz/q+6elXaN2FbeuyStyeX/NixFru8KtgHIsOkzMOBYxovtFbFtlJXLE2PY4Y42XwjaTwfd9X7L3b7OfCe0cHQO0rUK+nGAlytI3ZcwrFyNjAqBI1CxwZmRNYsRQF63vJHGlhHGwrVBfzc7H5nx8X/8TiJEV2cg+UGRm2b5sGyXtg5USGNPMeFumWYyMdm6pc0V7LKfOAgz2DIfL8dbBVXAIbaYufFQd6IZbAopnui1CtEiMaHtZh9sAlxYjfZIQ8e3sbE9WpC6b6zvx2YuujNFzIzbbxSsGalu3H20HHZtok/1l/F1LIpW3R0rZ1i7/3lh/Vuq/45hxHGKk3LbD5H38905y/aSfkDLGS3OCb+/fZX6mx+v2X/JnHLsSkjNmU347plCMGMeN0TSlRESMjWWGhDysR9lKim3cEaKO/Js/S6+MGMZ4sxgpZjwU9OkETqFPrSinLakKYqSE1o6ftQ8UmhjpKygtM69tZSTexuBrP32JPDBQspfTOLhKNs4GaTlYrHFlpGUb7Zk2idEomShYGZEHLeu2r5FzE4GtsisjpeJW2AtctjIi/Zje0LnsokFZoRxbGUl+Vbz/ts0eaUco3j6yLSLtz9NXRubEjOMQI2P+nhGw4pm+oR3tY4w1Xlpnbe1iZKqfJR4b9+FsHI/Hz12LEfu4sZgYMczaW383pESMWMedg4kRg2+YxchkxtLZrZqItY/tOEHdcfGIkR0DLipemeHwnX7sALvWicMfy9mvGNG3i+SDmDIQFsH0gu1i+yvicoeW2KoBUbs7Xgk+JWJEu57RanvbNi37jHR2ZUS7wtKcxMf20PzFzxpNnPGd8QvZcfKqieRkoDXOVOb7Qe6cirBfO94CKfQZ2VcMA56xXflYlDkzIvyaeZ5VPmbIyYTkXwKLkQQj4VkQD6QzTWpbrbYd+U0CLd6l37TGS+u2wIL+PdnPNAEdjQGG3wCxTBTIw1HBLHaRn4wMfkW89PqJgmHks/k+6V+2jzu7EiPxJEYay/N2M4uRkeuds4y3PjH4MVaDUCpMjVb5OGJkVWbxA2M/cx0uWY+Jkfq5X55UV939ftG0SAoUuUFu2pkRnzCNXE8ZBn8/exftzx2vu2HAazrsxr36+t7Vt71LNxrFASjc3pD79drODuK2ItcuJQdnDfqyjVt9uluZym3ftLZZ8cif8UmCcLBNIL3lZuwAe3+7lHg1cWDfNAEKlqWDFYuOmf+7wRaGqWKkgiP4XNdHPr5qbkNrzznY/Kd+188eJnVue191I9Zjd/MlvvKxbvcv7uLD9ta1rn29zeMBTx/w01jR+Xzmik6rPYTUztQuSyxSB2XJVpNihhDYldXS9pLOcV8f+/2IpcWIbEfB3jWXXy9cd37PIFbEmKf0D3O8tPSvYEzqbkVS+7ex/8QmNvRhub+2sSwcg/YiRoSb+LRxYzRNKRIjfW4QXgGucRn7rl2M9GNFt+qijDuLi5EuFsvjqvgzBMrWYbsYsTJu/XzzW71tt225GBeFbV+2SdRVJbfZyiBGsoj2/ECyh7QeJF+7/1VO++6HWGz0W0HCQcbXWN17uH0g+zsjhuS2KSqq82CZd3CGY/vhaMtMvu75WYt+AA/tpV2f65+p//3K3VZCIlxB0iweCsP2GfkK5u7fml/G3Qzubh8d5Cbavg9ieTEi3bPvfzV4fBVNmilN9wHXtn/9ofrNj7+e9UlSF2R7sg9f3rpnf125m+AGm74d4XOVz3/7ovpdBrdd4ZKtow0U3dOSH9YW7G5ZGe7bTezbtaH/xeOubHGmVdkjHT+b2Fz+vQd/q718TfaYz8u8Yl/W7JG+nW9Xvj/vI2aM+Ul/gqjmWf/uR/0bNf3vj4yvCsS+sbwYaXrCdoJjxLaC78S/FxRT6PrJm2fu3fPw9xkksR/XYSReZvtXW5PU77T+nfez1MIGZtVLkn/Gv7FRJkak7/a1y16zPfidDB9fhuNG0laFtxS3pJ5g6qPCizK77YOjK07SWNH+Wv342Kus2FrPjNRVi/tJXc+/qwnEivtgBULwz3CMLxEj9WctjNOcIv3NEum7iBE5vvO3ENgtAWnpcrdfpHQIJATKEhQAQmB9BLKifX1VpkYQOGMCtotOTgEQKyOnYMUTb0OTBFa/fN1sp+EPBA5EADFyIPB8djECiJHFUFIQBHZP4IwmYhEju3cnvjCHQLMcO75FZ07xvAsBKwHEiJUUz62VAGJkrZahXhCICRjOyp4QNMTICRmTpkAAArsj0CRy/sD77j5DyRDYHYH40PvuvkTJEIAABMwEECNmVDwIAQhAAAIQgAAEIAABCCxJADGyJE3KggAEIAABCEAAAhCAAATMBBAjZlQ8CAEIQAACEIAABCAAAQgsSQAxsiRNyoIABCAAAQhAAAIQgAAEzAQQI2ZUPAgBCEAAAhCAAAQgAAEILEkAMbIkTcqCAAQgAAEIQAACEIAABMwEECNmVDwIAQhAAAIQgAAEIAABCCxJADGyJE3KggAEIAABCEAAAhCAAATMBBAjZlQ8CAEIQAACEIAABCAAAQgsSQAxsiRNyoIABCAAAQhAAAIQgAAEzAQQI2ZUPAgBCEAAAhCAAAQgAAEILEkAMbIkTcqCAAQgcDACb93TB7+4iw+f3esnB6sEH14Zgc3Pj9zjj6/c17sfV1azE63On0/dg+fO3X5979ZHfONePHzs3v3wyX3+/eLIDdC2ZfPbV/f+pz015eML9+jbG3fxZo/f3FPTDv0ZxMihLRB9/+3lA3f1j1Spy5UGt5UBpDoQOFcCTRJ05y67gbIdrG++LBM72tj00F2futjZJhz339+eQAK/9QF37T7dv3bHnn4eQ9duxN8fbqX9pJ6wuHJ3C/q2z1n6uLMnK237qXu5P2HVtHUz7Eutve+DuBu2f9v/LtJY4t9rn5bjquWZPdHe+WcQIztHXPIBnzxI7xxXEtAGqGWSoBKCPGsgkCSthnfmPnKAgWNulY/ufVWMlMQOPXmdlXSs0f5aP/Bi5JtTSOARI/vux/PFyC5thhiZ7g8tu81A/IQ5mxRnJTGi5Xnh+5ZnprdkjW8iRlZllV0Gof02FDGyX95FX0OMFOE6mocXseuOYtAxiZGjMbilojuyp+XTZ/rMuYmRg5l53zGlia+baMXL96+H7uGXe5eupgpiRI3TG7f5eOEu6i22lmcOBn43H0aM5LhuncI/9nCnS4KnM3AgRnKOdcB/XyRpLaz/vgeOwuqdxOOL2HVHMWiN9l+E19o9Z0f2XHuzD1g/xMie4O85psg5Td+/ri9u3E2yjTUVIxb/sDyzJ8p7+wxiZAS1en5jZ8v3xoHDH6J6ee02f9y4+7ANs/eCKsuDUbnDvYxtBZo9o/9qD3gN6lT920DERQKvfbtkK0lqNKk+TamxePRbMKIihvtd/XLstbuo+N7F9VPKcJFfNHX665n79NvGPa728od/hvWSln+rp5VgK/ql9O0/Ltz1y427qfazNn++/91db36uzhBEjR+8u/zysNyPwi18Fp+TbLJth9AfJzNqPbk5n+Xi81vW7/i+0B2qlNo3bwuj2P++v3R3/4RnRpxLB9DtNo3QBXy7xH657ddVW5IB0hiHsvY39ic/W6j3o5FgPvgnxd86+6ZbWex9uf6QtQ+N2MLalMFzUnmXlTffVf+LtpztKgab4l0f2+Jxwh6HDX3K6Ff+HECbTA68azgLbixvViJp6oNxXG/PI9jGQO/b19VYULV3MBYMY5KtPCEuOMEPg7jqD/W35Udt2eJPzp8IXB5W8c5V8S4+M6LlbfPOtGi5Wfj337kX9XkcaTwNz4z4tozlapZnJsWI9b6EGNFsowQF//huVkjKxEgdyPt6+OA8L6kXD6nGM4iGGQl1ZUQ8HGps90g/env5yP3v9/AWIc8jDLDbIBkllaMJWxIwfKCVA3foF30wl/aChn9nFyPiYTnBHvK3twBHZoTFcwFL7KEf8RmTz4UDXGATqb6zGIX9PvATqUz/d5KwrCRBd+HErORE8nnJHkG9w0E39u38iqXeFzUxYopDqv2t/Wn5ve76VghFjDSiPteXvQDsRVxjQsFmeVuUJQ5pXwgS9jDm7SgGl8a7YdKWEc7iZNjYIXGrX/X28pMQTbIsJYPV3z368HpwC5UeF+YcYM/1wdgPWz8pGgPrFwKmUiyzladMUvz8nfsc3t625ZkdH8WxRrBlIAylMnMxuaxnNXSVg/9DW7nkMHvuzIiWr4Vie15OV97Ww7yBGFG467dabV/YyeqINqMWzfBrA/vsbQeZDufV/QwxoiZm4n7MeZ0i+VbmwGp/XZ88kDW1GdnLGd9cNN7WcAbbKkb0QSq+5UNOlHNiRE/4xAS/xDy5ZDQRfXEQV+qWlFvKKE4alPcLvuN9xA+IS4sRu1+lCV4+Ac4lQgGvkjhU8mzjV/FkwhrEiJBgJvHA3ofytijpYLZkqb5Na1cx2OyXC8ThbJ8qiNO57Tejt5CpE0G7FSPWydCUk91PJO+TuGdt0UqlJJnX3kvskfGXfmVkZFJTEEMlvUvbpdDFqW7lMZ7wlMSIF4/hzamy4BjmoactShAjokfqoqB7fJdiJHcNozaw+20TU+/A1pahfaO7NiszbgFLbaDNibx5S6lDY8bBTlt29m/1AT6XUMgDTTzDrwbpxH5WMaItf/sWGGfjzcE94LmrYG72Oc0mMbu5jKxiZCQ5jmeelVm8osHQ0LckoawN7HVxcl9bQIxIcUiJWWOJTNyf+tgxb4tbh1JNWO2JU5KkjE3UxH1IWc2a5Bfqd1N77ioGW+PdEnG4W2mqYEmJeblfpT4VT/CIdjmIGLELHbsYkVam0hbvQ4y037jIrywr46h4bbG4GljQ0wr613AyyrXXqwtX+/qvh/1Ry38szxS0ZpWPIkYUs+QCdrjEuZxljduVdiVGMlvT4jYPB5VhMB+dbfqiEZuh/NWkti8zZ9M+EOiJ5thspix+hIFjqhgxJ+4js581ei0JG1tZM6yGjfaDzMy4+m63YmIUI7MZGcXIKA+prtEEx4yzXaoPCvaTnx0KtmEyt18xUtKfGh8ZxKgZ8WKsHxTM4iZipLgPjdmiYGQxJ0u5ibbpTK1iZIk43JLR+1SJX41OnA1+U8K2c8G2UjBm24I+GBZjGAP17UaCGDGVJ481qo2TrWHp+DhZjBTH5F30r9Av65zotftfRow0tfCsxya5Lc8UNGltjyJGNItkkpolZ/D7KhxYjExNOIX9teMrIwvNbHbg4qXR7VAV/fiUfZCYszJiWJ2YKkbUfaupE4+2dcbKyGS/zwjo/A9XGcXIbEZGMTL2nUw/Svf2lw0L88WI/55ProRzEMLqbOJTJZMik1dGlFixxMB8oJWR0RWpLxPFgFmM2GbAyzxSjrddGVHdlojDcf3iPpVfGen9yipG4pW6MIkM45e9fRrlKWLENgbaxYi1vFSMyFt67auNk8XIjJic9feC/hVOmjx8eeue/XU1ujIyFNZjuVG8dTVb66N6ADEyZi5lpcC6X7PcEw4sRnxnnrAFLV7S1gK8HKjKSQ3esCY65q1GI1tw1DLS4O3bGvtLykD+Xvq+PRhNEiMj9hcH4hKzqcFcHvTSoq1iZC4jqxjRv5P3cWVbnpGnVr4kcsZmiMNkqj8vVZAILSBG4vM1PYK8X8RJixFf/1ixGLlPtgSpfVm9eW1EbGx59rYoaZHCSxBtef8s+W4wlbY9vJuNd0vE4aSKUZ8qiNM2MWKNC5lVaRPagj7oy7OOgWqMj/zHXF7a3tHV2AkrI1qMKBkf5/t8+VkbP2Y+/Kb6/ZGRbVqtCfPxzvaMycFW+RBixGCWbslxxtYKw2eqRw4tRnxgqW7riNpaM/jlyaf2JpE60P964bqDfX7AE27nSGcB/baEaFBuyti4V9WVqv7qPxuzoCMnNxhpt9/E++XrOv3iLj7427hGxEiwNaBvW798H7Y33MbWDdBe4Io3esXXqLYXX4rXIktX+X581VzxWP8ZFSOCvTzrrs6CLedtTdSDrfTNxqqhz6mzXkJirzBuvpNlZE86ui1DoS2Ebw/b0fexuatM952/D7eP6Ldptc9tfquu4N5eOyyJTE14zloZUQdbqe8If5fEB8vgnYkgaj/QZnGj/jjmZ/XNW6N9yGYLewzsb4VKYk1dyCBe7CIGB2NHGLNERnK8bJMtWxzO9ymjX23jzNU/+TMjidgPdk+kNzrZz3VINjb3we5lb9N4ZT4eA8Ntgf5ZiZW1PH1lJDmDWdd1ihjpblKUt1xnx0eln5b0LT03G8nZwt01Xbul1ejeJm3stjyzrb1Z2Je19hBPI0YOQV395th+3iB5L5mRnNC+4VkQX0D6/cEd8clM4Nhe6OG/dVWcI/aSbXVVoH3j3JX2i6lfIjDSYK3WR7JTOuPZJW9vnrl3z8PfXpGWYmMm9TNX7ra6t3wT/1aKsmKXCiF9QBzs6RV/o2T4CwBLrAYO/cpyp316/XF6OFFZZZjMqECM1C4kfcfwmzyzecbfbWzY3nPvggss4llKaS93IoqivuT/fZ4YGSarg2tUxd/liPuTFDPmb/eU+8HIlhJTX47b2saa2OYmWxTF7zQu1bZ7/WH7e0f3r119m1b7Z/kYXBbvlLHOGIelMSrtU7Y4bVsZqZlJfG+dez6M0fO3aVWfsvbB0D9MY2AfL199fOyugt9Vyf8mlzymSu2NfVvarqRxElc8pbZtz2O8+2E7SepZGGJyUbfaPizXd3wCWZzIVo4ADOKw5ZnaI5OrhKe0bB3vIEbWYQdqcYIEFhmUTpALTYLAsRGgL+ctBqM8o1N84mzsPmsb5W4sH2+P381X9lMqYmQ/nPnKGRI4myB9hralyedFgL6ctzeM8oxO8YnsubSTafR2FSR7/mNPDW7E0Tv3rNtevqfv7ugziJEdgaVYCDA44wMQOA0C9OW8HWGUZ3RKTwy2ys3ZYn1MUMau7t5rO1phlGxR22sdlv0YYmRZnpQGgZ5AfNAfNhCAwHESoC/n7QajPKMTemJT2ftpdSbzVGbmT8g0R9kUxMhRmo1KQwACEIAABCAAAQhA4PgJIEaO34a0AAIQgAAEIAABCEAAAkdJADFylGaj0hCAAAQgAAEIQAACEDh+AoiR47chLYAABCAAAQhAAAIQgMBREkCMHKXZqDQEIAABCEAAAhCAAASOnwBi5PhtSAsgAAEIQAACEIAABCBwlAQQI0dpNioNAQhAAAIQgAAEIACB4yeAGDl+G9ICCEAAAhCAAAQgAAEIHCUBxMhRmo1KQwACEIAABCAAAQhA4PgJIEaO34a0AAIQgAAEIAABCEAAAkdJADFylGbbZ6U37sXDx+7dD5/c598v9vnh4/zWn0/dg+fO3X59737ctmDz8yP3+K9n7tP9a1dMsC7v14tp7x6a4DHXXWDX2PEP564/fHavnxwa7hq+b4kNb93TB1du81KOHy3Te+e+uV6Bj4/XdQ3Ej7sOrb/cuNTWs2LkcUOh9hCAQEUAMYIbZAi0A/Td97fu651Pr4GmEZAS1reXD9zVP5e9QGkEy517qCRCk54yAAAgAElEQVRoYdnJu0eEPqn7xxfu0bc37n51vrRNkr4ENko4k6imrpePDY0PbGSh0fpHX+rlm6/u/U+HdfC2/14MJhMOW6MT+noT9zaimD/mOLdTCxWMFTutB4VDYMcEECM7Bnz8xecTjuNv43ItKBEjzpCUH/MgrYqRVcyChzb3YuShuurRtMWdmCDfJjrTRUAmNowkn86tNK5sBfPFCoTRclFpDSW19nYK12OOczulu+2jlrEirYe+ErXTOlM4BCYQQIxMgHZer6w0aVipEUxipKDuxzxIH3PdhyZ6697++aP78cCz9gVuY3t0x2Lk7Z9vK2baaupaV5q2CdzFiQlPm0fs7qnKF95WvqB6Q7x6vLuanFHJiJEzMvbRNxUxcvQm3HUDECMlhBEjPa3TESMlHnBEz+5YjIyTWKsYcY6tWvv3YWLFLpgjRnZBlTJ3QwAxshuuE0v1A/S1u/jjxt2FpQhbW+I91/7x4bYLvczmzMLz/7T7+INvSe/ffX/trjc37uZLWKloj73f4vDy2m2q+rdl9s+I9d3Vlh1/PiG2RPQ9v/3m05Nf2oO0KofqH/yS+eCp4dYekxjZ1s0Nzoz4rUJDvpff37m78LxJ/c/Gtkn1tZxTKXdea91TYesTv+uXG3fj+Qfb12w+I33fDc/kiLaLfTPyZ/Gdik60vc6fi7i+qPpHcAaiqsHMw+4j28dm7SWXeQ0PkSvPDNouT1TkbJb7d7mfxdzLYqWtzK3nzxZpeg/qDmr/tnGPq3Nj4Z+kbxrijY8FF0rMLWp3ccff2n9knLKNUdWmPWllxNj/iqtdvSDGnW1BybbFQ8ZbYawwxRuFXdi2bD+seEjf6v3UEiM8a21sFXwoyhum2Ld+Z5mxxftmVIswDlr9Q3uuLjrMS5Tn8nnd3PFmKull3kOMLMNxoVKCjikkZKEz+ltohgOYfz9MqqQyh0GkL3f77CBhl+skfj/oRPHA6p8fdCgxKV8IZRWMH314PbgBTKpDH5AlZsHfiYev05mnqWJE4mmuWxd474MEfH8rWsV1D3y7u01JSNytPtNyigJxPRj/96q9dEG13VPn/m5vxrKeb/E2kQf19JKCaXu9gz6giI5FZpJHkm6VaZVAJ/FCsGe+nysrI95W0qRBJfSSb9eoMrGys3+2zC33HcYl2d8F0WmMN+HERCJmzCynxdycD9rHqHn9b0rtRTuIvKQxtU+we+Y7ireaGGkmPXLxJnN7WTX5k+un8hjUEjfFiFxfqv/95+/c5/BynFkTLb03LDG2qGPQ/+fc++Z2TKt/SIJb8hkpBxt5N4p/U/rCWt5BjKzFEm33lm+uSjr0yPJr0pGVMpVEJB1gtCAr1EEZ/KrQrV7p6GdeJl17W2o7NbCntyjFokK91jU6pDtNjGT4CDdxpYeO4xuhdjQ4JswL6i74t5yw1B+x+ky+nZYreWO/199JBws5KVtqi8TIBIHhAoTRLqKKkUyf785TxM9ZbdbHuvjKXzt3a6z0iaN0JbM88PsEf7hyWRps5OfH40gv9KzxRhNaTQ9Sr6JW2l3YxHExUjJGpcnWruuulZ+0Se0je4q35jFL4q3ZwN5PpcmXrRRRbtmMzlzlxIjoc/mYbnHV+WOLIYbP9I8k/9HKSy7WkEWQhctan0GMrMoyWieMZxFHOmsyo7YrMaLPZqWDuLYU6+GPXam6oIHMgb36ZhQUtO0GXQu2t8RMEyO6Pe1JcjpTNTartRxVe90lsZ1NOtSKbn3GMNjlZnCb1DjaJqK/EychyhYTX6ZyrW0J/4TRUtuIMgPfcGNFUONuhSG2fUk/l1dG7NytsVK3Tyd44yudDT5VYr/wWdXfo29a482YcLKznNiaYCtQOjlSMkbN639Taq/Zof37/mrnsYmMeGVgJ/G2YMxKJ/a0ZNreT1UfGttyVBukixHBLgzzluwlxcjIJERubDHc+Gf3j0ikNd/WdlaokfcgOx+m9K8p7yBGplDb2TvGAXZ0sFQShHgWdfbKSIEYMQeuJcEq+1mrT4TbGdRgO+Cjl9XWuN8itGsxMpZYi4FxsHd4F3tKdyRGrD6TTcwNs1uJGBl/xypcFlv1ExPVBQS8xk7bq++7ZxdLIttbbdaUI4mREu7GWDmywiaJ0KZq4hapZWKTTYy4diX5i/bNoB+rY0EJyzltGya2XWwtGqPisWT3dbeKkYPH212IkYJ+mhsfVc+J8o1+y1T9xjB2qcJ75spvrq9lJ1sMkxIl/tExaNr1r66PZ8/xBJDHtsjO6cVreBcxsgYrdHWwDrD5Wad+dWJFKyMzg0uJqcT9rAWBXV4ZySeAuxYj+ZkYpY7qFroSqtKzOxIjhlmpMHEc21Kzk5WR4FektfIXEyODhPo792KpHyHNrIzktykZJz5EF5u4MtJxt8ZKw8pI/IvghiRkaq/JJUieucVnc/6fXRkRfgl9arv6VSYvlErGqAkrIzPrbhUjB4+3BWNW8cqIYTzOrYzkY0TkUX6iY/ttn6DLl+bMu147u+qebX9+hcbuH63AfvdDeDlROjlo2VLcEs3XbXpfPsybiJHDcFe+ah1g060ivsC0cy8kRpIl1m25wi0QaYDS67sb/MrM2shhwHibQSxm5KCZ1n6aGNH4+FlHy6+3C/aIqhdvQViGfUHd1TMj0lK61Wes7Y4Oa0aNl7fDCe8Is+a7FyPB/v+XF9WtY/KvWBfbM3dmJLutIo4tVpv1g6l8ZsTC3Ror+8PG6i1JxlXjYr7CC9o+9ji+WOPN2DYttYxdrfwM9rWXjFHamRGLH0yzilWM+Emp9BZCa9zpt3xNqulOxIi9n+qCNt9+rb2haPo/8fdllkm09cTe2n7Dc+ph+4hPcuZDoWM+vL8Mo0k+uaOXECM7AjutWPsA213ZGCYMftZBug3LOOCmwSdchvdJcb9tKXcbR8dBrNs2Ufj4qr31qP6z0EDpl367+gVL0+k2rfbT/tnhcqr/mS7PIZrNaMrduFdf3zc/6DVNjATXH3o7DZbSw9UOib3wd1G9upkUwV/mXveb8FLrnvr36EyQ0We6Zf7s9iF9O53u96G9ZR/Yhxjp7Fc7alYkGKPPSF+T+0CbNP7ypLoS/PeL6iNCvDLaTN6m1YuUu8HtahL3gljZ3XiTt2Vdg7Htjov1leo7XVljcTu+ZS7u15btUFmWRn8ZPNbGnM1vX9377Y+BJqvRUrsU/5jT/ybVXjncn07YLBhvp1R0lhhRbryq62Hsp/ltSNVmJ+Gq8y5G1N/59cJ1F9REMScV50G+kV25GAe6xNjSxcH4DEy3Mmf0D7+6/SWt83CSRMmtmhj2i7v40N7+yMrIlM7EOwUESgbYIKCEX0g68DIrI/UM5quPj6srVPuPaVdJqku3yl70QWc0zwzksKbnPC7f3Dr3/MqFs7FdsH3j3FV477+Y8IXCLPh+crXpcKY/CehKAhHvnW34fvvCPXju3O1W7LRflc6wxEu+Ul2HW7jMs6851HVobGa4It9I6l4oRsJBM6qDvJIVPiT/Bk64Tzh/dijPsBkWlF+PXm6bVtsuz3huQhxSGtgt8vluIB6wFxJ6ZaIjdhv5nnwvbAa1am/qGRQQbz8sjJWdIBnxke0/SfZcqq90CdKbZ+7d8/D3naTtlfl4k7/5y+bDhi6ePBL3+fqBZPVJivlCkin3od3V3bwysmC8ncJYsm9RvInOh0hj7Vg/zW0XzMYI6XyKcsW2r8fDl7fu2V9X7qa7tW8SuZHb5LblWfKRerRthOtg5Ih+P8oyHkurLL1/D2O6ckbVMsk8DdUq3mJlZBVmoBKewG62Eul8c8H2lC2zdLJ8yqzW0Db7fuI11PZY6yCLnKX6CjY8Vr+g3hCYQaARPtL22q3wmCm8ZtRsNa8iRlZjCirilx7d9prcfRA5WzHSzFi9c8+6Zd990OYb0wlM36M9/Ztn+KaUNCzYVxAjZ+hTNPnsCaj9foeXZRwbdMTIsVnshOvbCAM37waNUjznKUb8zR7SFplSgjy/FwKLbV/cS22P9COS4Fu2ryBGjtQ1qDYEZhFQtlzWZS51BnBW/Q7/MmLk8DagBgck0CQH4QH6A9aFT0NAI3AIoY41dkAgPtC7g09QJAQgsF4Cuzj7t97W2muGGLGz4kkIQAACEIAABCAAAQhAYEECiJEFYVIUBCAAAQhAAAIQgAAEIGAngBixs+JJCEAAAhCAAAQgAAEIQGBBAoiRBWFSFAQgAAEIQAACEIAABCBgJ4AYsbPiSQhAAAIQgAAEIAABCEBgQQKIkQVhUhQEIAABCEAAAhCAAAQgYCeAGLGz4kkIQAACEIAABCAAAQhAYEECiJEFYVIUBCAAAQhAAAIQgAAEIGAngBixs+JJCEAAAhCAAAQgAAEIQGBBAoiRBWFSFAQgAAEIQAACEIAABCBgJ4AYsbM6kiffuqcPrtxdVdvLN1/d+5+OpNqLVnPL4Ptb9/Xux0VLnlLY5udH7vHHV/upy59P3YPnzt1+fe8O3/IptHhnnQQ27sXDx+7dD5/c598v1lnFGbV6e/nAXW2u3af7125265o+eHfG8Tc2RB2Pf3EXHz67109mGMn06mn7qQkBD50cgSaH+OPipMd1xMia3PbjC/fo2xt3PzWJ9u/7Nn2z0OC6Jkbbgf7hSz0pWlfHbQfHG7cfW7Rtd+56LwP/TMeY6+/Zz2/Zf7k86SCexTDlgaSfrUvgT2mS+s7WDy8Wmbw5YU5Toe9VnAn8DWPG1KYt+t6x1HPRRhsK28k4cWxjQ+vXm5G8x0By1Y8gRtZkHt/pJoqIo0pEp3LfBmynCbaG4Tv3bDXJOGIklwTeT/T3vAv5AefhbsXZXpOtfKsXeSLpZzOT7BUzWnLyYtEVlkUMuYJC9mp7XYyoY8YKEDVVyI1ta6nnnHpM8YWZeZFc3T2NDXNYRe+eemxBjCzoLIcuaslB9dBtmfr9zZ9vnfvpx/lbLaZWIHkPMbIYyrUWNGWAXWtb1HqdqhjZ9s+LJbZ0vnVv//zR/XiWW2NHHHqv/WOmnx5dvzyyCu/VF46MTa66DbvNbifWcnXY4b8jRnYId99FI0b2TdzyPcSIhdJRP3MWA+zMJG+tjLazru6Etz8cvG/t1fYz/fTgsE68Anv1hVNjedpbtRAjq/LXNJB6gXH9cuNu/rgf1LY7oB6fFdk+1R9g90uScWOj7St+7/TLa7f5ozq70jy+3W8v/ltbXvMd1x7a7P/IZQ9bUD2dbNGR69qdERGThznt29Z46jmdAdL+8oDur7+5rAjeVf+Lzoz4JfnB+/O3E4lb9RT/SNgLdRo7m2PpOm19FL91QuKg1bX+mPcVbY+/MNA1S9v/RGdGsv2l/pgP/NfuouoLoWf33BS/G/i08szA36RnhnVu2zH/UoqmHHfrPj35ZcQuVfOTfqYkeaIfV+937TMwsvqn95fQ8eZu8VOSI1PcbeqhJAhCnNLLbG3ttjbuY0d6zsz7waDvRQzE7wT+Jpbh4/jMVR2xv39fRcB/4gP9ln5hiTDxM3pMGQrOzDhTF2uJ0SPjYrotrHxs26WtErpj43/t6bF/hjHZF6aOIa49O/kl+mrnu1K89eNhSewJ4qYYV/oxVhwbsvGsrb89PvSxNM59hhcM5ceA6qt7PX86pffNeQcxMofe4u9qYqR24yBRVfZQaisjYiIjlRF03iQJFf8tTL6F+oUJV9XJH314PbiJxw9cYads6xol5XWA+O9VexuVMMjPa99ye0fTegQBJkwYxAN5ywSaVIx4Gw2TW8++t/MOZhSzs87pN9MBQk8ukgPHJjGyLS9K4NTv1n1cSOQGA8nIbJ/qz8FtS5azXouKkUrUdJMMQUJdpYv9QX+LGFHikFhXlZHVP30ytOxlBBr7PqnOxd1SMRLF8jD5CXxSio3S30nxUKz7dqxK+30vqAb2nzK2Sf4QtM8U52ffQmYTI9ZxZniZjBCjxXFRHlOs3+xFU13OC/fdfXgzohy/pphLEyONh0YrhTbfM4wh2TgwjLdtHUcmrZJJnafO/V3f2qbH+dt/t7eMJjG/IJ6Vxoe7zHhjGQMaEtLk2iLGP3whiJHD2yCogSZG0tuRJKeUxYgeIJIAM3ZQTEks5U5kTKwtCU9sn4J3tPYlWzIWWTrWOKcs1MCzwJ7QpGy1bfFtIoaBpLSvFIsRuQ7Jwb05KyMaj6RMhYfUptwAm6y6Dc8pWAeiUvzS89pgltTB0M/0eguJgMbI7J+7GYjNPLYwNdGa3HKjrozEsVyJlcn7ekyN+4csOOoGjMTlrR3mrISOx7VwZSQTK2ed37GIkXysM8doLcYlfp3/piQsS/rw7Pigjv9W3zO0MRcrwwmRrkH2vKh7xTCmx325JJ5pzybxwTjeWMcAxMhsL6cAGwF7p5OEhyhGxhLCeAAae3YfYiSbvFYU42eWaJ+W3NqM1j6l1iMN5NrSu//cnN+HiYPaWJCLZ+r6ei01+6ysDKmDjHSYWJ+NnLIy0s9oycbNrxQJM+GZASfZmug/HW07k2YkS1zQ8qw6mMVtMIgRfWCMhW5Vs9HtUPJV1MlMsjLLbmm39kypGEljbOnKyFQxEq5CS63p+2w2qZK2pIqrtWVkS30r2y/KPu/lYvs7W2EbS8aMgejUKxBvkU4muOIxZcrYpnx+ZwmpWke772XHkJwYEbdLW1bQh7AsyX3MsSSeja+o9r8HYh5vxBW21AF2ZvtJfW3Zl1gZWZbnzNJ2IEbGZghKgvRsMaKd6wiWhA2zGUnSv0T79ipGdA6t88w7NxIHybHgJQbUwZ7ZeXXxnWEYkEOho/l7laY0g9K/un3GA4E2Y2XELgS1Wb4CMaLtP/Zgxs6NLHKGqWAwKxYj46uf1hnCYv+Mzo3Mmcmv6RyNGAmSFXGQSbZ4CQJvNCE2zGpnRjezGCnqF6VDqmFlJDvOFMRojWkco7LfrNo5suqaUlhqwigoOdMWs3gcG0MWESP5nReWpH34TFk8s4oR+3hT2yHyO2EMSCZoSrvHip9HjKzKODsQI4aVg+wsT81ophgRO1GJGPJ2Knknm2BtC92rGNnNdpNh4t8nIvmVEWVQU5fsZ3QYP0h1QTb29zYYv/shPDQuCKIZYsQyY9a2cAExYpkNFXD6AWzOCplmJXPCuMTKSHhpw+SVES3pWuas19GIEdUfU0vPWRmZc6vYdN+aEVOSVw1ixNAvLcls82mrGDF8U1v1j38E2Vy3Uqy5lZHSCRJpDFlEjOTHUEucL14ZCeKZVYxY6iGZSRsDdmb7Ul/ZwfOIkR1AnV7kDsSIH8SEW2cSgTAWMGeJEeu+aPnQ2YCnliTNad8SYkTjLATk5CzLdIdJ3tTOjKQzyHnW4ra/mXVtfG7jbwmK/N1qB8UXpQCuzdDnZ9QXECMjfW8co7L1Zyb7RmIpt3LlY4G+ipWIJu/z0QUW9W17ybPqWYW8f/rkbc4vp48nFenqgrZNa7AtqOIsnduQv2WNjcLWN8Uf9ARIL2OJmKSVkfqcwbaTfd0gRgz90szDKkYM37Su+u8sIVXHf7vvxWZL+stCYiRrH8MZqJijWqYQz6xixG9PzY83MTlpDMivCE3uNit4ETGyAiP0VdiFGOkHxvBWoG7rzNje2pDNLDEiJEHBtoOwo3bLmtrsuVAPqS1F7bMmwRlf8XXv2hMuVw/Ekt+DK11/vHGvqms+q3vDJv1Jg2S/9Ctd9TxcFQu/vUDCULf/1wv36f51+yOUSVCXV0aS6x+rV+VrEONrGltk6a094ey6xKNJ06u95r+4iw/1TSz+/0d7z5vShUFCSr631hP9cCsKfnnyqbldrvYb/9/1a9KguNRqSbhtwHOy9RVJnEl+PObb1XXh2mH+L6HddJ/d/NbehNNYQrp5r7TXFK7YSAI9tk24LTGMbfPESNUwH0+kq3w/vmpvG+z8Rz6HI5ahlFuKsuvf3SHk4baTsF9a+kXx94P+OXpmpPOd6j/UVVpjjDaLkeBqXOvYJkxk9f1Xuvp75rbasclIi+8172fGEDVWjm0T1AXmfbCtedi/vP2CuBL19VTU2eOZWYwEW6+GY9hwvLGMAdpq/SJxcFpnW/QtxMiiOOcWthsxEiY4YQ2163vFpfqZYiTZD9kkjbfOPb9y8U006T7LsStH2xaFCYBvo7l9C4kRuY1f3esP1W9t/PWsT8rDQTN2mdKl8Oj90YSnSvj6P/HA1Qfv/pmZ+5IDwdmVKYmy5DcphHMlVQEDe8Zl1+X+7dzTb29cOFMuzyIqe8JH6+ZbIK9aDHxW/N2HeMd1z9/iu8uKkYrvG+euwt8FilcWDdu0WiJ2v9EZSfZIE6s0Lsz/3RVtgLcnGxKD2n+rX3OpDlKHsW22GKk/pZy3SBN9RYxoZcyMO13/juvX+NV37kXFwtW/RxX8jonk93PPzI1dAxuPa6PjjDVGF4iRxlOS3+rIjG0Cz9sf3rmrP/pD0v24s0y8VrfqZX3PFgvkOFAoRmqYwvgyHPOF+iTXtMfMbG0oiw/58cYyBshbAqevWsWpx6H/P2Lk0Bbg+xCAQEugGew27rpbnfBgpFu2gDaFwM62eEypzEreGW4dXEmlqAYEzAR2t63TXAUe3DkBWQCdju0RIzt3IT4AAQhYCKh73S2HPy0f4JmT/tGsyeZVRfDkEnkRAnsj0MTNZOV9b5/nQ3shIE/InZLtESN7cSQ+AgEI5AlIS+Tbt4QLCvLl8URMgJURySdO+2AoveCECTQTNe/cs2Q1+YTbfIZNEw/Xn5jtESNn6Ng0GQJrJ5BcBrD2Ch9J/ZpBLTjsfCTVppoQgAAEIHDCBBAjJ2xcmgYBCEAAAhCAAAQgAIE1E0CMrNk61A0CEIAABCAAAQhAAAInTAAxcsLGpWkQgAAEIAABCEAAAhBYMwHEyJqtQ90gAAEIQAACEIAABCBwwgQQIydsXJoGAQhAAAIQgAAEIACBNRNAjKzZOtQNAhCAAAQgAAEIQAACJ0wAMXLCxqVpEIAABCAAAQhAAAIQWDMBxMiarUPdIAABCEAAAhCAAAQgcMIEECMnbFyaBgEIQAACEIAABCAAgTUTQIys2TrUDQIQgAAEIAABCEAAAidMADFywsZdsmmbnx+5x384d/3hs3v9ZMmSD1vW28sH7mpz7T7dv3YXi1Vl4148fOze/fDJff59uVIXq95ZFdTa4ubi1n29+/GsWk5jhwR209ehvASBZnz5+Io+WghzaW5JeX8+dQ+eb05u3C/EzON7IIAY2QPko//Exxfu0bc3zr2cnlw3icA/D9cV1Lbtunjz1b3/aUkrvXVPH1y5u++XTIC3SfWXS3f79b0jrS6w19kOqCv1mW2/u1+0f2T8YWd9vcAPj/FRb6tvlp6wCWFs/dTt8hsrgN/EoTv3cMY4OmzF0tyk8pjMWYHnnEUVECNnYeY5jVwmGLVixLnLxRP/6W1rV3sudpDc71KMHFjQbQfUNdkx7wGtPTaLJQH5L67jCS9GpvjM0olOQGQvCW6Utu2sr6/D0mot5k4k7cVWO/S1NZlnGzvdYiJ8aW5yebsbJ9dkHOpyaAKIkUNbYO3f//jWva3m4X88oa1ZLfJlRJZsvl2IkZU4ylGKEefYolPqP0snOqXfX/L5Xfb1Jeu5g7LmipEdVCkt8pR8bS/Ath9ZmptSHquK+zTq2X4LMXK2pj/zhu90kEaMrM67znar1lRLLJ3oTK3HAu/ttK8vUL9dFnEUbT8hX9ulLZOyl+amlXfGYn6v9jzvjyFGVmV/v53k2l38cePugro1+0yf/6c5u3Ef/H2yXcYvq0ftSp7zS8aD5/rzCH5bVYxnWI5eXxftMRYPwIt1HW4psdXDb0cJa5s5W6HO8G+FRFhU0Ja2HaEF2geH+4BTMWJ7r5/Bv764cTfVtraw7JZF1C7RjtVbY1sB1O0CY2cMJMbVdzo2ylYoIRnyy/7XLzfuxrPc1lf8t60trL4e+17zei4pG9mOkj3v1Lz7zj378Mptvq3OCim+U/+1X6GR7Nut1n2Je120zar0eyafCb6h+JTnb/NlKTb4b8hi3dbXK0pCHxzdNqj19QKO3n+Sni/GuQsn+XZn/22/7qwc9lVT/LbFXZnntBgfn38TyzadK5Hi66W7rHrNXXxmRPTD/JbDpm7u1n168ksSqwd+4mf8X167TTXetrYN4qsxtpZ+Lz57aWNp5Kb4TxoTjeVtnVQce1aVO1GZYyeAGFmVBYMA0Q1QwySwD6bbZwcDgPR32wQoTEjEA6T1d54693d9W1b93y/cd/fhQemR79UMgwFVOh+SihG9rrf/bg+U+6RDTPSDQWPKTV/aO7mg+/bykfvf7+GNYlICnyZbtve8raJBURsQlAQ6fz5HER25hL2uR0bEJecyVDFSD/1pYtEnmsG/ie30fWUozmSfadLA7KUCsujIvxcmqqGvSnXpE49ULIt2k9oeJBy27wXfUvt+dePYIBnUZ11tvizFMh9sdbGe6+tZUSnEczU+mDnafU30322d/L8lCfH/59z75jY/Y/z2zxnirs6rMMYH8V1th+GSk9THg/EtHMvMfpoaXO5jgg0V+4eTF/eRwJL6aOn3QjFiZWnmVsXnRx9eD25xlL5hLm/gu6d3m+aq0r8zrwxiZFUOoCQ+SgKYJM6jM4A3zt8aNSV572f1wiRKqa+agAbBLHv2YGQJOrqVZEp7NNGREyOSu6hCK3NQUar3mJCI66a3W05qwrpLA5SJ44JiRLpVxiwS1XpoqzsGUSHddpP104qqKuIkUapd5KDXL7FV8ff6PqvaONnGVrYFRO0D4Uxz54BxW+19fYoYUfu0lWOBr+li2MDTGL9VYS21xzLBEASGlJXdVvlzWZqPp2zsfqqJkVTsJ2WOrIaWxFbNv7Tv9WJkTPCHV87buYnpTOID5eWZxoZV5VJU5tgIIEZWZbF5YkTbPuGb6JO/KQl3kRjZztyFs+RxMMsHt5HkMZ41G5vhUlQT4YAAACAASURBVOyrMgiW5q03Ri0vRuQtZnGddTuObbfSZqcNydKiKyPyLJvmF+3f9zefjfnP5BUOf6lBsEJg6itqwpcyLU+M+9WoTrzN+J64JSToI73PG/1BnTkdE3/xvxX0dW+jL9WHTduChJVh314jRzfyG0uxr2WT2JEJCmv81lf5Wo6D1cnFxYiwvWcQY0e2xxp517/MZPdTuxhJVnVH2JTE1txY0vUpTRSoOciWZQE3kxiZUF5+vF5VIkVljpAAYmRVRpsnRmwB3JhkaPtlBzOdWhKRDopxMMsmeaODqPTd6ExDZlVi/PvDAXcwg6/tyR1sORLqZ3pvJHHqBmg/2I/bMcs3Ls+atCy2MjJPjIy1Tx4486tFdSgYvmtYTalfKhjczYlLGJfi8id/Tzn3030r3DY34l8mXy4QI8V9PT43Mn4+rFwADtv+f9JZLUWEqUmboX/Z4nczLaRsOSwUI1NivGr7LZAxgWj22xI/3YUYKYut5j6t9OP0BGLE0sytiWDtj7zWYj36M2UywxchraSvKnWiMkdPADGyKhPOEyPW2YtsohqvPGwZ5ZfwPcy8GMnXNT9bqv0I49hWp66GIwlG7xI+sEcHb7OH85WZ3+x7JWJk7NkywVnP3L3+UK88GPYEr0SM5FdG4gR1grD49kXzI2XZFbKCZKE8Ma68MWY+43vZvt85v+ZDsqgrWx0sXxlRf3DV8NsN5cyHbc+vjBi2wRnOLOVj4jC+pj+qWiBGJsd4Yz+SxtUZflsyTE8WB8FHsisjltXTbL81sizmJl14EfxocUF5QzFiGB9KDMWzEAgIIEZW5Q7zxIhPWnK/8Jqd5bCeUSmYoUsGWml//sAW+lajbP2FbWKxmc0D/zZwN+dt/iX/En02EVOCv1SHsWQx/jeVg5JoCHOI2xnWa3e9qW7vujD8YnzuFrJoRcrXMT1oPW9lRPd1ZQXEMDPd8ukT0ebGq43hV6E973hWWLCDbl995SbZdjbje/m+06Uf7QxrfMOR2ZcLVka62Vxtn//9qCBs+IzYKbdaER9S7i4k8L6sxqrUZnpcMWydzMbEBcXI5BhvaIc6po73zdAOdj8VopryA7taP5KEbkls1Sa/8t+zsrRyUyYQtO1hWrwSVrfskxirSqiozBERQIysylgzxUiwRJtewfuLu/iwvQWqW2rvZ1AGg6hrk+5wcOi3EBgOsBvOjHRbDSr+XV3jAdLPeobBUfi7um6/PKmuPv693m3cb+Eov+6zDeab39rbvOo/wwHFb9+KZ0Ljm6GUmd/kBrD0RqkSMdIzDGfCfB3zV2CGrOr/zq4A1A+NCJ14UA73wC8uRkRf77coaFdZm9oYbF/JCfvGScKtK9FVx3fRjWH57WWVTwg3Fw2uap71PcU/mjI37tXX/ga9JJlqe0QrYLO+XCJGqmKNfb157tcL96m5fWrcH7vQnjkY3myTGbWb5Feyr41NcnT9oftWnDxq/luzDOJ3wSRQZy9D4mmO8ZKtfNz9+Mp9vftRlyNbodD1q3CrmHQzZHzjnuCn8cfC7W7JddTCNcryqpvUT+S+M+t7Rpb+GzluiTAKYkUYy6zltWwlkZPGAdXo/AMEDAQQIwZI+3tkrhgJAseXqNbaYBQ8Nki84v3E1fu3P7xzV8Eh4pK9y6P7+MOqxmc9pH3Nyux7WEw+iZRZS/u2pbvp+32+lTB549zV84279mJPShaSvdbSe2XbtNr2+kEhbH3mN1bCR7t62d8ZMBITCP+Buszqxv/oUG0+YUtXTdp3+gPsg0Fy4OuyCDOvhA2Y2gRdf2bk1j3762qwXzsWP7kZxlDAeYqJL3cznVO/J/lM9bW470U+Gx/ELe4Dnd+Nx7lB5MrUqXk2e5Bd+V4BR3kvvnY1tb6dJbVvXIay51/qZ8m5OGGbVp1KDn6XZeR3NEpivHLeJC/20/Z120T/etaLTDW2CX4aDXVdH2vicvCrP8oYqG4BNMbW2d8zsbRyk567de55dLGBcLYka4eBvyFG9pcXnseXECPnYWdaKRDIbe84D2jGfctHDcN4hqZrY+Hz5i1gC0Hc9/cWqvYhixH7OhwNJjm++JAT/IZGFz2y7+8VVW6Jhy3Xmy/xHco4awKIkbM2/5k3PvlthfPjMWdv9tHQCs/9bLffjdbdvHd/W8q+k9p9f+9oDD1SUamvwzFv2SNktG9xsO/v5Y227BNM2i3Lk9JkAogRPOOMCRTOgJ8cKesBymNueHkb5bMSIwz2nbDt+3vHbP6x1S44jlg23Mpn3K64Ej/ZtzjY9/f2irl0YmavleNjp0QAMXJK1qQtECgh0CRj79yz7qxLycun+mybhLn69jTLKkqDIT5gvGs2+/7ertvz/7d37khyG83aLu5EpNcM0jjahYZxHEbI+DkhOt8ShpTFkKGgJc4sQQ4Vw2Mogs4XHO1CDhlsj8OdzI9Go4BCVSYqcWtguh/KUg9QlyezqvKtG5ZKH44q+S+FiP91d5ua4Ya9pcyn5Fuu9mYO0k9Z5EPnN2XZSQsCayGAGFmLJSgHBCAAAQhAAAIQgAAETowAYuTEDE51IQABCEAAAhCAAAQgsBYCiJG1WIJyQAACEIAABCAAAQhA4MQIIEZOzOBUFwIQgAAEIAABCEAAAmshgBhZiyUoBwQgAAEIQAACEIAABE6MAGLkxAxOdSEAAQhAAAIQgAAEILAWAoiRtViCckAAAhCAAAQgAAEIQODECCBGTszgVBcCEIAABCAAAQhAAAJrIYAYWYslKAcEIAABCEAAAhCAAAROjABi5MQMTnUhAAEIQAACEIAABCCwFgKIkbVY4qDl2LpXDx+77e937tMvB814wcw+uGcP3rjN52/u8smhirHL89y59wHnv565By+du7775F4cqhgHzGf76yP3+Mtbd3czUe12vH7buK+3l25zwHoMzqq07407C22+S+zI7T6Y16penLpfnDq9VcGiMBCAAAQmI4AYmQzl1AntB7Kr71W6P1xMF5B9eeUePb1y7vVX9+2PexHijYerBYnjU9ZTEDiXwfo75y4OKormrGSYduWzbjpf/XD2wJ3/c9aIt4rp7U/X0wmeyfBU9d+kZTtuu08GsDuhqg0/7Nlv7X3oYb7NTd0vTp3egTCTDQQgAIFDE0CMHJq4Ib994HIrPtl3IBYTOcVBEjFi8LyxjxxQjEwpzsdWu3q/bLd/PxcnDRAjdsiJAPWvVm3Y9RSi+/RculoVF2nqfnHq9OwIeRICEIDAvSKAGFmbuboG3OJvjz5fjl/NOMVBEjFyAE8/gBg5QC2GZbF1H/5y7sUv8kojYsROVRUj9iSGPTl1vzh1esNqxVsQgAAEVk8AMZIzkRcH1XOTrEyoee7PGBQ7zuc9U3CKgyRiJOfpE/z9lMVINz7EiN29ECN2VjwJAQhA4BgIIEY6rOiX95NH5toi0mNPtLaVKxFLkZja1eXhT2fO/XPTPjPi9+LHlc3WdS+gtvE+bkHwlDy3F+5ic+Wuim0TzT9hP7dQ7vJ5wxYNic1ZUeebos7xwWLRxtk6F+UQyxfVw3pmxMzei9UAXWdZo3NH5WuR0LXUQ2wjUlnOitRviv+iMyOmPOSynv1UpBeeGXFVvpEfiHasnxHKKrEQ6in6Ung43Wg7UYwY35Xwa31TcnA+erm7Pva2PKpMoj8Ufvl5494UZ9niDap1nxa1J/UsSHSuSGRv7Bcn72ePIWqgDhCAAAQmJoAY0YBqwXD1/BwrJH7gywUUuyJ8OHvk/v0jvBnKB3NhsCmstAQBUKsOwhYwW3nsAUwTQAVllLal+TJGgbZp77f0bmDLkK1YP8uqkXiIWlgVMIkReTXMly20Ud8Z4+xsvLUeQhtJbRGIidBuxjz0+sYCKhUjqh3/17lPu1u4dmX49Uf3LbzhyyL8s75gt11qC/u7Kf4d61fux9vwRrYqvS5xaqyPZWJhcJlUf3jm3H/3/Znq53H5lcsMYtYm9kq/OHk/O/EATnIQgAAEjoEAYkSxoroq4p+3zJ739BBb8K8nmgy62takbFBS5WF6rq8YibegpUG8HkTnAy713YSFvqXIr+Bo18l257Ftbu2xiBF1+1gqLqcWI+Z6JC4nr04418OWZb09q4wtOldGhm4N0+oQVDbn/z1sZ26bnuH3/ls1s/6Rq0+16jRMjMj9UlymrEAuJ1qiG9R80kn5pQkYgw+O7BfNtszy7jlA8DgEIACBIyWAGBENK20ZiR68B2JEHfitg6TpubFipAo+iu1bPvjXgyop+GjbJXcTT7Myom3d8enpwWBOqNZ5GMRIV3CWbENRVnjUvklbBateMNcjzkD1izQQtOWhC4PUnvGzBlEhArK8p6z2VOn1sV1+tr4ppPkq2qheWTFSC53iRbH/srdl63gYlylfxj5ipJC/1c2Dk7Q5U3/n82yu5x7dz1ph8hwEIACBIyWAGFEMmwuiLGcX+vqMtFXFEmi2n2nOLfQbJHUB1r0lzR7AaIFIeyWie6Y7F8yYxYi2X9/DVMVmTqgG50YMYqSrPrL92iIqv10wKm99jqJHPQaLEWseI8SIMYBU23PvM0iNSO1ju9iWfd4V+wB1G2l+RaV9DiLd1jl4ZSRbJtsqln1lZEem7TtSmzELQcmX1H5iaD/bd1TgeQhAAALHTwAxotk4E6xaznX0dh9lD3SajrxdacygK87GmgK9qcVIx8yosA0oZmMWI8pBaIvNcoKoTsMgRvKz61pw6QN9w8fcqgLF5zzM9RgsRrpsGSY6QowY7Chvf7SsjEQVj8439bGduW3uwmttm5IvjtJPZN+L7Zic17K35aSdGMtkKWM/MRLyunT/7j4UG12gYGaftNfp+1lL/8IzEIAABE6NAGKky+LKTF9+NnqoGzUzybLYqb5l8D9/il9Q1/Yyx+VNV2CUGcseYuQmmmGWVnlsKyPC1otMEBbS1s7dxIF4fb5hwN5889kegxjxt3KlPpU/H+Oq9Dfh7U6drtcONs31SNJUyuYD0mBVyZaHtv1OOuQdi4ihW/cGiBEvFPyWQvUQfMrH2jbrmf6ubaDKmQdLoC+K93qLpMzEtGJrLJPFH/qKEd+Gzl5fuO27q/YtgUWFreyTeir93+D0hg4LvAcBCEDgyAkgRgwGrrd4GLZ0GJLrfiRckQkCknYZXPI9kmbrRThT7oO55rdwu0p6U1PwleLMeYPWvHb0heNwG4jlNqj2Nq1dymm55d8ElHW5/YpCe6tQS+R5sRkFfmX5v7x1d+HtS62spPIVD5R5b93bu+qWI4sYCfbxN2WTROn+t+3vd+7TL/vC5M4W7P7+5snX+iOZaSBorIeA2ftRbd9QuLd42vKofca3sdbKpHBDXNAW63frfNvi2lXnChpfDLa6dbXpXZ1+2zRfVE9m/3U7XX1vf/E7XUWxv5vgF0Rf0647tmll6+N9qim71pYHl6m2q77NSRUs6uRIuHUxrX/K3tovpmJ4bD9rEnajBxESgAAEIHC/CCBGVmkvZa99GDgl28iKQfi9c+f1DUVVxaTn7vbbGT7+3ASqzUpBA+Ts/bVzL4VviCTM2ucY9t+yOHfX0fdHrCsjVahdCa4ws/x++PLpeEWrDFJ/dK+K8rh4FUFZ/cpvw4vrXJVTsJELvsEib+2R7J1uv5LOPXSVMwwkPUV1BSa2aVZ4p2XeleXycyHk/n7eBPB72STYsvg5862QsqxPXxW3brngI6Dds/dNNdr8YnYPX1+753+fu6vNtS46pa2ayYqFzXZj7C52UYKPX//80Z2/2+gfTDXVx9aWR5VJKEfbL5VzUR0rtV0TRiJ7a784cT+LGFnlgEuhIACBhQkgRhY2ANlDAAIQgAAEIAABCEDgVAkgRk7V8tQbAhCAAAQgAAEIQAACCxNAjCxsALKHAAQgAAEIQAACEIDAqRJAjJyq5ak3BCAAAQhAAAIQgAAEFiaAGFnYAGQPAQhAAAIQgAAEIACBUyWAGDlVy1NvCEAAAhCAAAQgAAEILEwAMbKwAcgeAhCAAAQgAAEIQAACp0oAMXKqlqfeEIAABCAAAQhAAAIQWJgAYmRhA5A9BCAAAQhAAAIQgAAETpUAYuRULU+9IQABCEAAAhCAAAQgsDABxMjCBiB7CEAAAhCAAAQgAAEInCoBxMipWp56QwACEIAABCAAAQhAYGECiJGFDUD2EIAABCAAAQhAAAIQOFUCiJFTtTz1hgAEIAABCEAAAhCAwMIEECMLG2C67D+4Zw/OnXt/5z79Ml2qpHQgAn89cw9e3rgz7Hcg4HE2W/fq4WO3/f2I20/pY85d331yLxaiTLYQgAAEZiew6+t+27ivt5duM3tmZDAFAcTIFBQnTOPD2QN3/k+Y4JkQPOwDp6vvwd++vHKPnl459/qr+/YHzW9Ckxwgqb2QvPnp2t3dDAsT937z0F18/uYunxygyMeWxQm0n+2vj9zjdw4fOTbfpT4ygWqC5yFj4sl5yH48DOKjKX2hGituR4zXJ2cQQ4URIwZIh3vEiwwpx1CU+OeC4HNkMJU03sNV+uRzKtlvL0bN4ngRy8rKQHca2X4G5nrQ1xAjB8VNZgcioI5dVQDqTiVoPIE+zOpSmhjp5QvabgUvRn4YOGazC0I0I2LE6t0Hea4SGS5yckunOrIjQowcxMBCJh/ch79euBdsrVvKAPt8R7afZQtvyx0xYuPEU/eLAGNXZa8T6MOsnjmJT8wlGuZK1wpnpc8hRnKG8UKgem7eJV9FjDjt96DwIzuiSRpvjiV/h8BaCYxsP2utVlguxMh9sBJl7EuAsQsxEvvMJD4xl2iYK92+DWdlzyNGOgySnt+oHh66PJc1fkaMBGdEksamBFNaHertPH7JMSpbS3Qpz7iYQyTcdkkOEm8dy6Bjz0b4LVEXmyt3FZ7NKevyH/dneRYngJEs8Stb6eLnRGbNtrp9YHibeESb1/4syfb1hdu8u3I34dMReznQlMsa5pH1jzJPKR3pLFPWwasH/GULX93mt4i3a6e7r9cmOTclDjaKnyZb1yQ//enMuX8KwtH+cpGPyH7jLl5v3VVk08Hb5jr2JSdtwNg+Ux+pziolZpNt0KrfiK0vNp+z+pJ/Tmor6TbWuMW17FNy/Oief37rtk+LM1zZ9jak/foyHZ69b0uaHS2+7jJ9fJmGu3Zfn7xJ+jdLOyxGjPRMk5Cn2/UTnzfuTXFOMrZC3b9FY6I6dkRtbWzfXOb/8s/yDGdYtqT+pv7KNgbIbUra2h21qxHtuExpwjr0bfH75+Wx6eynG3cTnhmR4iPVl111JjcqUd3vC2c8q/Q3xVi9Lcbqlk/WjJXYIRxPRF8vyhHZSfLRwWPNMPCTv4UY0ZBqTlE9PyjIzppPESNCYGIRI95hpQC3uLepFeDpMwl+0JQClNtAbIw/hB3ikQeO8Xk0nXZTn1bDDhq9VAaxXMlMR1XOKGjdvXv9//a3NX04e+T+/SM8bC5cSuCCgCUpVzEcBzdvSWJELev/nZcH5a3+Mf2MulyvOtAJ6moXIzrz1kHGmml6+cNuAAnbiueTBqztiyIa/xGC3xETF7Y2YG2fxbAdH2Df9Su//ui+hZcmCAc9xfpl+zL5AavP9U9e8akyIaNvBIGV5AdtET+8/dZB3ELspYDf5uv5/lfqX2v+4Zgjim1h/FOfe+bcf/f9pzp2xQGoIvDjdjG8b24Hm02/Ifmf0Sd7jAFdW01t41bfVjdDHXoWQepPRB9MxEjel/14lAb5uhhpjyHC2d5d/XqeRfH1iSeQj+2yIsSI4vzqqoh/fkSQobe3js44mjHKi5GOrV1CwKF26OqSYhw8Gxp3n45Guv1iguVNuZ5K2TWRoa2WbKrbsAaWU525VlZdws7I/G5tA7t/zCZGNI7BmSmzGMl08Bsv3DLPNUx1Pn51zV8bqfHRBb6xIVjagLl9CmJELEbaFmQBYaxD6zG7z/VPXRZlZTpW31C36tn6Nn3lybqKOCd7b/9wAslTtvp6noPm8zEbtU8pbbWtV0csfY9ZjNSz6MKKQXxOM3JAc/+q+FpSRqtPejFiGAN0MaLZrbK7H7f6Nro56tCrDBm/7VwZyfvyEDGSCASJkcJN9/VI9B3plmLEiOj8XbdaVS/MKUa+x4VKl67zYqSjsVlWWqoidA0G8WyLPCvWq3cJHk47mtHB3W6ONL7yr8zRKEa07TCRQHUDr1A1D3hVebfBliJx1rvzquce/qHMGA+1rMpbsI9VjGhbK3wZ/ay26s/azJlayXhlLb0yVyu7nVs68xj7b5/2aQnsJNvY3rPUqofPWZJrPaOnbfUNPZgznNkrymJvv1rlNDEyzXXM2WDH4Ou5Pt46qZWb7POzwJY+3y5GGkHWd5bZbFujGDH7pDY2CWOA6r/GcavvBwFmqUOvdq+3+Xx85GOBXYbKZIE60aOvjCRixG/fCr8fZvSRBkU88RvEp7PEob2MMNnDiBEFZa6z7HVFnNlctkGvDJ/joFpZkpaX8tLGpHXoXYOBOLi1treN++5FO33DTIaB8ygxktm6533CMoBqe23bWyi0Ou9/7xQjudWZztkVKd9IoI/aa2wfRKxiJNdeffBhFiM9BnAtzfFiJA5w7e121xQss9Eqt2Sr3AQBcW+fMzTo+pGcT+lp5QPTrhXrON2wz+vusw7KXhRLVdl7+Hr5RkcfbxMjuck+z9A2HvYRI7HYFtuuysNgW2Ogae2v9ImbdAxQxYhx3OrT2poYxNCu+giqXoXItXnDd9i64pWDipFuX5d8vC0GrauvvQAf9GHEiIY700HPc1jI1vmaxIjaARRvC0GBdXk9xNUZdHt+Y5R7WM6nryb5QvkoMWJcHs3PJKcz3lLw2GcgmmNlRNuT6gfS4W3APohYxUie+d5zzWKkq/1EfcacYqTVVoU2kF8Z0Vdw/GDWtuOcs/P5lZHh+6BzKyMGMaW277hfHtt+hRn60qfmZN+1TW/gRI/Qx9vESMc5j6htWSZ2+omRMO9L9+/uwpLWFq2RtjWKEWt/1WcMyK2MDG9bcpA0Sx16hb/2cSR7dbsUrxxUjHS1iUxc6AXVqAnCXuBneRgx0oVVmVGY5/B6GSrtb3HI7F+1iRHpQHQYkN22DkDnBpG0znKnHeIcPzPc8Chvvxr5YUCRmxIElD9rZ0ZyAkva6x+CUYIe81YAyzYt5dBuU4x+/tFuJsKsXK/uqfKdZHk89Sl5wBPezzH35VOe84F54+c6n7iqs4qRoE/Y3wAXzYCp9c6ztApze9CRc4IxPpdLuyOgtvqGNoESb2sd3X7t20WnY98lRuy+Lvt+c9udNlGx/z29TTA3oSEL5qg3ErfeFs9o4tL369XNR60gfaxtjWLEjy35WMK+Op49M5Ibt3JNLP67tV3NtjKi+a0wPhgmEpN45cBiRPV15eKF0Bxl+5ogPurrAlM+jxgx0KyXVGdXnlOKkSaYbl3B6wWWeD1pW6BU0qW+5q4ZOJpl9vYWh617e/fJvQgD/LEdYCAI8x133pjWAEwWI82MZrxNb5fumyfFlY5/7Hbe+s4wuPGq1bGlnWWz5GrYCmASI8Ge2Npvo4FN8gXht3bdtFndPPvmiYZPs19X8KndC0mAKL27e1B5v2T1xm0++5vL/PsN53DLRMvHutrKl7fljWRlzsoZofFivGqBwTXQaRuQ6i2zkLdtCTfi7bKdY5vWLl2jz/Xxpv2zXbP7Rt8IV8PjazxbF4iMbb/SYfLAr2di3ylsLL5e8unu48O21N4aWdwz1Bo/03ZYmjHOo7ZJLGSala5cEJeuCGh9SOBHwURJr77ZKkb69ldJ7CFNCOkThHUdonTivr1fuzO2q9nEiDAet3a0dGzTMvhyPfYo7G/C3zWxI50ZUcWF1CaE33Y+9tum+BTBpSvP+RjESj+7LvM0YmQZ7kquE4uRcPAPcxRFVdhBx98Hkfb4xudB2u/vs5tiH6MyaA2021gx0gSfye320f34Ag+h82pSKVi9d+48uEmmzxK9Fmike5PlmfUWTsOd5uOEYRM4XhdfJTgPvvcipdveG7v3zU/umfD9EWUveiyIky2YOyb7LRsff/aCsiKirI7mrlVu/CT9Rkpv1xUCsnYalvYpi6bYPx6+vnbP/z53V8ENO1POzpfllpiOnujpEiOlNTLfDmgGdecZfG8o578R0af97tM9NPusHbO+nu/j6/617MuCL7WIk1JSegUYwzeb5Ovq91y174yEbaZzglHqH6x9s1mMGH2yZyDf7ivl6/jbfce4c52mdtWzDn37x7QdFX14uaXVNZ8vSMRC3peTNmr4zojpAHvc9lttw1Au6QjB2EnfvtBneB4xMgNUkpySgF2gTZkrac1JIBc4zpk3aUNAIWDYygG7bgKWMx4whAAEIBATQIzgE+smYN6Xuu5qULrWvGR5G1hrmRtAEFiaAGJktAUQI6MRkgAETpIAYuQkzX5/Kh0ffLw/JaekOgFWRvCOFRJAjIw2CmJkNEISgMBJEkCMnKTZ70ul90GrCz8YdF+KTjk7COy33m1/v3OffgEUBNZCIL7sYC3luj/lKM8sBJc73J+SU1IIQGBJAoiRJemTNwQgAAEIQAACEIAABE6YAGLkhI1P1SEAAQhAAAIQgAAEILAkAcTIkvTJGwIQgAAEIAABCEAAAidMADFywsan6hCAAAQgAAEIQAACEFiSAGJkSfrkDQEIQAACEIAABCAAgRMmgBg5YeNTdQhAAAIQgAAEIAABCCxJADGyJH3yhgAEIAABCEAAAhCAwAkTQIycsPGpOgQgAAEIQAACEIAABJYkgBhZkj55QwACEIAABCAAAQhA4IQJIEZO2PhUHQIQgAAEIAABCEAAAksSQIwsSZ+8IXAsBP565h68dO767pN7cSx1oh4QuBcEPrhnD86de3/nPv1yLwpMISEAAQi0CCBGjtQhPpw9cOf/PHQXn7+5yydHWkmqtRoC218fucfv3Kz+hk+vjON2XgAAIABJREFUxtwUZE0Evrxyj55eOff6q/v2x2ZNJaMsEIAABEwEECMmTPfvoX3g5twZs2X3z3j3sMSHEyP49PrdY+tePXzsrtyF+3p76aYLj+dKd/1EO0uIGLnnBqT4EIAAYgQfgAAERhM4hBgZXUgSOBCBuUTDXOkeCMtc2SBG5iJLuhCAwIEIIEYOBJpsIHDMBBAjx2zdvnWbSzTMlW7f+q3secTIygxCcSAAgb4EECN9ic36/P4g4k2Sx1l9MFjdN18NSLc/Xbu7mxdODg6rwfx7nEF0tqRKa/P6wm3fXbnb8PEq/eYnJc3ouX15Win13kJWpvH3c/f19617/LJN6WG8X9rziKra3ra2570t6rkp6rlPMWChpOF+yG0/kdKtCiK9Wx7+Tq3uEtap8/nteK2/RHns2W/cxeutuxpgA3se3WdG9HLs/dtVWwvruoj1CPOQfK9pK67Dj0s/cDF34YzVYNvoPlD66ss/y33+YYtItlQa/W8s1x1vi43LZ7YX7mJz5a6KLaDNv4Cbwiusm5hXkVjnltJsurZ+SK1D6Wv/cX/utpeF/WPUBsv33bX7+uRNvj8z+o5UJt+fmVghRmYdlUkcAhCYnwBiZH7G9hx2g8qvP7pvhZio/1UDWh1sR6LDPxeLD0mMiOdIfHph4BcEQU2Q7wf7dsAmiqOqzHVwMdFg2QiasAxSuSpRFwWz+7IGwaoLxF8S+Pu/hc+7SuTdukT8tKwsp2vmHwSHXQGa59F6RmAtcpPsLnhqvzwsYmQXfivBa2AvKV+Lj7eqIPpxKPgF4Rn6gcLIdh5L8oF2wNzYTfJXu/+J9g0DYRPX27YYEPyoCYyDNuHzabUffQXDl7XdfuS6pu6op2vqh1qiq6lDa6IkqIeUpsig7kdSIXwr9kFt4SWnuav9rr6v3I+34Q11gq9M1L/aByqehAAEIDAtAcTItDxnSK0afOpB0gc0YZCcDtKpGInTaYqaBH7a4BaLDD8Ia6slm/0qjZ+hHnvbi7oVKC5XUs6qrn6mvD7U3xEEaWmUAcJu9rQtUtqGV1irQkEK4mVBFVhNPSTsZ1r94WGNWyrOYvfNBH/FLHkujzDFztW6+LCzgVV2a5jix9Zy6OnnbLOrteIDil8ltujhf9b6lLZImNhtLPuL9L6WZsc2q3jSRexJtfe1vq163vdDtRiJ267dVlqbsQvl1Hds4rYBkpQBMTLDuEuSEIDAIQkgRg5Je1Be6UBpEQ9JgNI1YCmrL4l4iIN5bRuJr2c9KxjMCGe3OOmQ1OAwqpu0JSxMtZmVzQk0eaY/f8Wslq7futNcwakLgpzo0bb0+ZrGM79pXfz2Hv3bIOPzmFOM+MC6XGuRrjUdKUaG22a8GOkSWrH/jRMjdhtrPGLxu5/Rl27T0ttbbcvOrYlKuuZ+yG9Hm16MuEg89vGd/KRANNURr/AiRgaNrLwEAQishwBiZD22KEui7RFunx9oD+pSMJL8ps60CrOl2uAWixFtT7Rn2nlupGtlQTaKVYyoDKtkk+0xQgDUFSBkZ+TVFaNYjHQfyO0MUnoEYFp5s2JkgjxmFSNl4tFZAWGbVSyqbcH7CNvsW/L+/FfsW8aVkT7+Z6tPZYm4bfew8Wgx0hk0dwiV2okUm/Toh+Q62G2l2qVl136+09nO1bqlW8LGrjyvbCikOBCAwAkRQIysyNji/nwlqGkGsEv3rzALOWRlJHvGQ1kZ6T0IivvM84awipG8WPB5jVkZGbBNq7LlNpjFz86gqt9qsARv+3oOFiOqqEptZWE+KmjuqEdtzfjbOnOvjHR+R8Me4DaTEPnVLPuz3asITZu1+9FoMdLlT6bZfWud9L7kMGJEW4EJxHPgO2of4IWidIg+PPtmYpfvX3kCAhCAwFIEECNLkRfyHTRQVjde5Wd/9X3uybYj68qIDy4GbL1Kt3bkDeHFWrwlJxFxpv3nHbPXuz+paYw4LyCIEVmAFvkrgUhDKbeNK3hS+Tp6dmXEdD6mW/CEVp1bjPjViFrsjRQjw23T4VvGlZE+/jeOq92PxosRPS+VdatbyGz/MvRDg/rY4MOx2vkOeetcdCnAri5Cu7attjQgODOSHyt4AgIQuF8EECMrslcabAf7udXbnnYVSGfp9a1bxQ77IK36fIVhe0t9VWowOIvvFyXaDZhvnlRnI3YB2G+b5mvM6oAsXK0a2Cc8C1ILEr/K0gpEmq076VW+b9zm8zd3+SQjRoLtP00aWrqxE9nPjNTbecIbpurbebp5+IA1vmq45PTl7f7ygOLf8JWRRpQNzWNOMdLysbqeQQA4UoyMss3IbVrh9rOc/40TI3Yb28WIXxnouCo5bK9iG5Y75mTipHrM1A9V/VL7Rr1+wjHcAurtIuft++6QgfRbxyqK7ycDVk3+3du0tImbFQ13FAUCEIBATQAxsjJniM87PHx97Z7/fe6ughthfJHrZ4UzD90BaPt7H9o3OrIH2ONAoMUy870OUTx0nyOp6/T+ufv4MvxGg/RedJbAl62Vb26LipRGRiCU+fQRI8HzLX7GMzXZ7y+MFCO7Mo3IY04xEopTn0/Ll0eLkTG2GbdNa18fm/+NFiNGG/cRI+HlArvkW5MCkj8ZvqlTIonOuITpSv7QukZ61zKT67072quwilW//9658/DbQOKqjHQ5QNque50ZKfK5/vmjOy++G1RfPKHePJe7gnxlgx/FgQAETpYAYuRkTb+miqe3TEmls5xLWFOtKAsEIHBcBDqFw3FVldpAAAIQOBgBxMjBUJORRqAUGbsvq99euk0HJsQIPgQBCCxJADGyJH3yhgAEjpUAYuRYLXtf6lVuMfjontfnOPSCI0bui1EpJwSOkwBi5DjtSq0gAIFlCSBGluVP7n0IxAfh+7zLsxCAAARGEogvhxiZHK9DAAIQgEBBADGCG0AAAhCAAAQgAAEIQAACixBAjCyCnUwhAAEIQAACEIAABCAAAcQIPgABCEAAAhCAAAQgAAEILEIAMbIIdjKFAAQgAAEIQAACEIAABBAj+AAEIAABCEAAAhCAAAQgsAgBxMgi2MkUAhCAAAQgAAEIQAACEECM4AMQgAAEIAABCEAAAhCAwCIEECOLYCdTCEAAAhCAAAQgAAEIQAAxgg9AAAIQgAAEIAABCEAAAosQQIwsgp1MIQABCEAAAhCAAAQgAAHECD4AAQjcDwJ/PXMPXt64s/d37tMvhy7y1r16+Nhtf18i70PXlfwgAAEIrInAB/fswblzi/T9a+JwvGVBjKzKtvuA58pduK+3l26zqrKNKUxVr+9n7vruk3sxJinePUoCH84euPN/HrqLz9/c5ROpipUPba7d3c0CHvTllXv09Mq511/dtz+Op2UepTOVlaLP0Wybb2tLeMUx2euY6rKELwh50v+uxBDzFQMxMh/bASkfuxjpCjYH4OKVoyGwD5Ccuuqx/fWRe/z38+VEOoPhPfM1HxDS58SGy7W1LkPv351jUumY7DWyLouuAK+0mdP/rtQw0xULMTIdywlSOlYxMgEakjhhAlv34S/nXvyy4IoEg+EJ+x9V9wTmEyMwrgkgRlJnoP89+gaCGMmZuOoY/GMPZ92mgRjJmYO/Q2ARAgyGi2An03URQIwcwB6IEcTIAdxsbVkgRjos4pezk0d+mOtMh0WM+CXguFTxdoT9ga+b8LGe5S63xry7TapfC7IqQLv9Kd3HH+9LFgexSOjVGUXple9uL9zF5spdFVt5mn/CFgxfpqjU7UPP49k4oewtoaqUw0U22DPeuIvXW3cVse59ULvM86N7/vmt2z7N217z73a+kr9F2zREO/bzxz0H1z4zsgTDnd9Itv3pzLl/itbUmoxQ2qLQHnIdv/fx9lmxtD/o5S9Gfrmy7f9u7XcyqVVs00mdaJ+9sexS3+DTHtPnZNt3DlqPtijaNPAhUzvtnZ+trdV9gWKPZCyIuUT93Vz2ksaq3v1nUXaRdc9xc4cg8b2K3+b1hdu+u3KtUbW2tdLGwvwtfa2YV9BnW9Jw3WNkNjbItY/670I+5d+iMUaYDFLjgpLXf9yfu/O334OCtPplY77KeNAqX4+YY1vYf1PYvzMum6DvM+Nf0YOIEc0YWqBcPT/PCklejIj7fb3zBp3WFDNYH84euX//CA8Upwfz5MOQVUNPBtSggxHK3HTi7bMDzQAhdKhSByMNgME+5/Fs0vq13ch3dO0O1Xfgoe80nXoQvCtssv1G0IlJeeR+K4bQSsA25RZFQlgQUZCmfpxjnuazEEOBgVO4ir4/cFaznxjZhTI5f7Hzy/pVEKS1ArxBfqoc7o2DjYLjo8+XrcsCfFsJyyD2DVWFtIDwVuwfwj4n174NxAa0xZZNqyykPkNqp5qP6n1OKEaq+mb6TTHI9iiWtNdEq5aSf3mufS+uUH1v13LrCQ3lbInWhxj7Ws0XSlMZ08j115bYwNBK9uX59Uf3LbyURJqw0MRIOTkZj1eV1Evij6jP7JFve8J1Z7dnzv13FxtZ204gfoSJhla/OkFbMrFf2UOIEcUg6qqIf37AbEne9jkxog+ScUea60zyZZGfSIJGqeMQOtO4PHqQmzZuuS4Cq0wnvqmuBRzPJhOsqAFpGohpHAaVUR2U4/J2+Flkz5wYUf9eprOtVzpy9dH8Kp3dnJlhxoeaoETzgWG3fvUTI9Gsdi0WUrFu4ZfvC+z9Tj6tYo2lWnENy5bzszCQCgNDcXJGESP2Pmc6MZIGsWnasuDYVcLeTvWgWcsv8CFjv9kpRiTDdwSQ0qrF4DFiEjGis5bbZrena2Ik8QeJvWIPa19bCw4hRrGmkeuvpdqb2rClg/ATQuFEo+pL8WUKSts1TRIZ2kpcfnPbUcpl9d2ebcmEeWUPIUZEg2hbEoKHlxAjXY4bi4JgZWfIcrXmp+oMdmZVJu7c9M5OW31Jb3CJBwlt6djXpZ6RmoBN14xsV6ccz6Zrz/qtG72uQlb9Ix5oO4KteOZMmeH1THOivfa9DPOYw1IM1XxjttpS+sDJirFiJPaXPvyyY1KffiebWPFAMjubm4SpEjUHJPvnx/c5u1QG3hxlbotenKUCs14Bkbb9Ke00FT/aVr8mP3O/KYneLnsfzF7BeD14XNa27fgK9vMDsxipGPmJsjI3JcA197Ud7dWcxoAx8hjFSE6U2duONubuf9/mziL3bEuWbnhtzyBGFIvkGq0bsC88b/zMoNyl7sUOqN3B9t5apgZc7fMA7U5IbnTtRt1dT2sQEQdwOZt1nRvpzSYYNPZ2bZh0dWDWoHtWMdI5GyPZLxLnuT3OtaN3nxtJt401AdJSDM1iJLONs2//MLUY6cMv2y/17neyKbaFguiP+oRQ6Ddd9RzT54RBYdy+87VrBNcQcVCn36edjhA/ffrN/CRSSudQ9moHhv3EQ7i1SbRvT5EzvRjJTZCm2zZV3/uuebC9v9Z59b9KW/W/mVdG8vnmJ0nsbaePGBnf95n6qJU9hBjRDJKZ+ZxytaEpQsb5DTOUcrmUvamdzijvhRSDtbBcT1+JX8m2Cgxpa4I2AMorI9IMY1dFh7CJ0vO+Ug1YTjqMXb0S12WtKyPaHmnf+Xo/y80cyeRT5laRtktvToZmMWJdXjd2+FOLkfzKSI9gbXC/01H5QOBcfk4vL9jbOApses4OjulzWiWP2rfpgukR4qDJO7+CWbfTEfn1mdHu7IvXYi8/UdBrwnCCrXmB00wvRoRD8ZnYRerDp+mve8QGmf5P2rIprgia275tm5Y13xwve9uxi5Ep+j7jsLOqxxAjXeZQZj8HzaKbzJ5T4nIn0ARoHbMS0nJwV5mUwU1ufE259zdeKVuqgt/lzqCZUQwPjFnFiF/e7m2fvmwEbq2VDOkcTflOar85xEh8QFfdFvM9tZNql7rO7WXl/POKk0XMEw5LMVTy9fVsfEtvi6amHj0k+rgQBJv9pQe/fHlH9Dtq4n5wLm7J2xZ9hgtvKFT6QXNAss9UFq236Yc1k21jaaF7r1RqAkbISw9olMP+RfGSdjcmP9VXUg5yX7w+e8nivsvTddb59mHgpInFHtu0zH1tx+SBOY24SmE5/2d3a+NVdLNg13ZDnaDsT0Lgbm77NjFizTfLy9x2rGJkmrY0xGeXfgcxYrBAvRTXa6bFkHDySE6MNINQuA2kXp6Ots9sf79zn34JB+Y+S6h+i5d0U0WaTrhELomBtPH79MO0pN/0GaF0wGmWN9MtWW/c5vPu9ov9M6PYlB3j1r29++ReiCJDKodcNnNwaXGncDWv3lYgM62vLpWujYzO/7x58rW+1SjtnJX0W4zyzFMOCzGsb9OKt93tDSDehCZcRR0ys5iutodPS7SlPuCnwbKdn6V8aR8j90WWtPwz4RaHeEU3XoHrvtFMXuUZ3Odk27ehlj3aYufsqp8Qy7TT1raZTNu3tbVSzhX72X2/ua+zFpwtaq8do982xXWul65ctTKIS9GCEmtf5y9v3V1441PGBUatjKjlt/S1Tf3l1W1LGrn+ul9s0IVKneTZvTTjNq2++d4G27Db7ccSc/i2VFy3n8SQ6ZmRKdqSoYda3SOIkVWZpGNfaODEYeDvix8LAGkvY++tZeGAWmZUDPrvnTsPbkmq8dXPyoKncyaiZYP8qkormCm+PyJ+m+F7ZNjkgH377/3YSIcd43JLttREXLq1rPdMbDAIu9fX7vnf56071sX6SSt/UWdp8bXmqtGIeeZbCfnblBZgGAYzdXV2tr10/xYi9uPPjTALg7N2zfuI/ubNuM3u+Jz/3/4bO97H+4lXGz9rF2jzBWtqxXO1/0liIi372ftr5162D3t2baMY3udY2nemnvVMbr4tdoqRXTaGdtrcpjU0P2XsSc5KaOcQF7RXMk4VzHqe8aitqeyG6Dc+6N8ZSQSCsirf6gtadZF8Mx+4t701n0Y2fugTG2SaSpzXQz9+bYLvl028MlLKg3IraFM4MV9xPGhPSqnfYJLsZhAjUnp9+74evfBqHkWMrMYUFAQCIwl0LM+PTJnXIQCBPgQO3RYPnV8fFjwLAQhAIEMAMYKLQOBYCBCQHIslqcd9J3Dotnjo/O67fSg/BCCwKgKIkVWZg8JAYAQBApIR8HgVAhMSOHRbPHR+E6IiKQhAAAKIEXwAAkdDID1wejRVoyIQuFcEDt0WD53fvTIGhYUABFZOADGycgNRPAhAAAIQgAAEIAABCBwrAcTIsVqWekEAAhCAAAQgAAEIQGDlBBAjKzcQxYMABCAAAQhAAAIQgMCxEkCMHKtlqRcEIAABCEAAAhCAAARWTgAxsnIDUTwIQAACEIAABCAAAQgcKwHEyLFalnpBAAIQgAAEIAABCEBg5QQQIys3EMWDAAQgAAEIQAACEIDAsRJAjByrZakXBCAAAQhAAAIQgAAEVk4AMbJyA1E8CEAAAhCAAAQgAAEIHCsBxMixWpZ6QQACEIAABCAAAQhAYOUEECMrN9C+eFv36uFjt/39zn365TAF3v76yD3+8tbd3bw4TIZjc/nyyj16euU2742Mqudv3UN38fmbu3wytgDN+yW7v5+7r7eXbjNdskFKH9yzB+fOWes6SxlIFAIQgAAEIAABCIwngBgZz3D+FKrA2b3+6r79MU94267EXvxcuYsZA+opsVXl3VzbxNNfz9yDlzdNAX4yvmcs8oezB+78nzN3fffJzSLlDu4PxorzGAQgAAEIQAACEOhJADHSE9gijx88+LxfYqRciXi3MQf/c4uFudN3B/eHRbyeTCEAAQhAAAIQOAECiJH7YOSDB5/3SYxs3Ye/nHvxi33FqBQL2/lWfRAj96FRUUYIQAACEIAABNZAADGyBivkyoAYyRHq9XfESC9cPAwBCEAAAhCAAARmI4AYmQ3twITj8wxFMg9/OnPun+KMQ3RmZD8DH+XzQzTjL6XXSmd/GDo4QeHcD2furPjlJj4zUh/6bud5lj1ILeVx4a5//ujOw4Pe2iH0qg7tfKrVm+9R/bvOfwgsCrrNAfbc331W4nPNGRG/MnLxeuuu3t0GBYwOyys8XWzD2JUUcSr6Q/FubJ/9trawXOkzYZb1gfzft+5xeNZm55vxOSZrnbJ+abWv5bm9/21fX7jNu6vI1+dbIRvYA/AaBCAAAQhA4KQIIEZWZW4ftAeHn4PgLgz8fEDZCjSTILVKryNA9wFsk04Q3LWC4iqtKFC2bEky59FDjOzTjIJ7UbSkBhZXRjznFithu5r63DPn/ru/lasRBYEdffAdpl/89ujzZetSAtGuBjHi32uLA92f+lyG0IiXkLf3k/A3Ib+i7GnZrH6Zt6/NDwIxHPBP/XJVnQGFgQAEIAABCJwEAcTImsysBdOJyNDPdLQD7VzQp/1dSD9TNv1K3R55mMVIJs3MrVqSGNkHzC695res97b+XX0u8CNZoBnP4Vi25PXwB1fZrRYplvSjNtHN5qZZeVHFoBcuXpyN9MvavlY/UJ4bwGJN3QVlgQAEIAABCBwDAcTIiqyoBn3aioda9njL0O5B4apZNRhLA2dpa0+YfbJdx/+xRx7+lqhE2MRBrrYVyOeZ2eYkiRFti5NP0q8c2VeCUt6msyqWALnPCliykqOtfOkNweqXXUItXsEQV48in2lvJAvK5+1r9gNNtPjtW4e6MntFnQ1FgQAEIAABCKyEAGJkJYbYFcMa9PmgPRus+bq19ucHW196CAVrsJ7g7JGHWYyIZzaCnDPfDUlFgXLuoE7SM7OtbmiCpU++qrjblSlm2ilg5EC8LS67v4li9csuoSamofml1b7W5xxiZEXdHEWBAAQgAAEItAggRlbkENagrziVsD903vdjfX4mOZpZTs8PaCsjwjamHL85xIhl9aCjXPrKSP5DhVOujIjnHSx1G7Ayop4Rkc6yROysfplfGVH4mv0yKpiFVfkKYiTXTPk7BCAAAQhAYCkCiJGlyEv5xvv7q2fSA8DxHnx7JdofCJQPpdcrL+F2J6Vs+Zx75JG5Jao5ZK+kmS/MPjQVvjNiOjhevGt5zrYyoqyyWAJs7czI9zTYN5e347sr8uF4gYXqI3l7mfwysW8+3f0riBFj0+AxCEAAAhCAwMEJIEYOjrwrQ3/rT7OVKtwe1dq642e0o/MRZVD35a27u3lRbefZurd3n1zxf01QFrzj06/TDre+tNJutjK1r4rdlfmN23ze3yQl/eufh1z/MN96m1G0OrTL682T7jMA8tmNlH1ZlzLwDxjW5xSaMsYrAjYx0ty6VdcrOAPRa5vWrpySP2i//bZxX28vXfmZSPF2sLYVwy1diZ9kfUTwm5ipFwtBWlb72p7rIUbiVZpV9Q8UBgIQgAAEIHB8BBAja7Npcih3N9t96f59+Nh9/DkKspU988kKQquO8ex5el5i9/7l50LUhN8AKdNQzlbkvoshvHf2/qvb/PbYXeW+ZbJL+7/OPXt65eKD7fKh+ug6WMG++kFy4Xsou/fj7XDCwelQPFjFiMTz7P21cy9338ToEFTa6onkD4ay575rUout98/dx5dXrjmrJG27knwktonEWV/VaZswtW/eDxAja+vmKA8EIAABCEDAE0CM4AsLEbAdBl+ocGQbELBcZwwwCEAAAhCAAAQgMIQAYmQINd6ZgABiZAKIB0kCMXIQzGQCAQhAAAIQOEkCiJGTNPsaKo0YWYMVLGVAjFgo8QwEIAABCEAAAkMIIEaGUOOdSQi0DttPkiKJzEJgdxYlPPQ+SyYkCgEIQAACEIDAKRJAjJyi1akzBCAAAQhAAAIQgAAEVkAAMbICI1AECEAAAhCAAAQgAAEInCIBxMgpWp06QwACEIAABCAAAQhAYAUEECMrMAJFgAAEIAABCEAAAhCAwCkSQIycotWpMwQgAAEIQAACEIAABFZAADGyAiNQBAhAAAIQgAAEIAABCJwiAcTIKVqdOkMAAhCAAAQgAAEIQGAFBBAjKzACRYAABCAAAQhAAAIQgMApEkCMnKLVqTMEIAABCEAAAhCAAARWQAAxsgIjUAQIQAACEIAABCAAAQicIgHEyClaXajz9tdH7vHfz93X20u3uY9M/nrmHrx07vruk3txH8t/CmU+ERvd+7Z0Cr5IHSEAAQhAYDUEECOrMcW+IB/OHrjzf8JCPXQXn7+5yyfzFnSf71kTzH955R49vXK3P127u5v1h/dlAPjOHYTVvJY43tRns9HKfDVpS8drUmoGAQhAAAIQGE0AMTIa4ZQJbN2rh4/d1XcpzUAoTJlllZYqRn64uBerJbMFujOwPtUkZ7ORFyMr8VXEyKl6OPWGAAQgAIEhBBAjQ6jN9k4lRlwkAMrtLTfOzbhKcd8DqNkC3dlsfXoJn4qN7ntbOj3PpMYQgAAEILAkAcRIjr4XAtVzD19/dd/+mOtUhSJG3Af37MG5u5lx5ve+B1CnEujm3HXNfz8VG933trRmH6JsEIAABCBwfAQQIx02Tc9vVA/PJgp6ipFIKO1LF50x8VtY4npGdUgDqEoA1asx1f93pLMPNm8Tom0Bt09n+/rCbd5duWK9Jy1znIKhnuZA15BWcXJnL/7CcrR4yX+//vmjOw8vAajYb97fuU+/BIlVZTiLfhf9LbLTvp4bd/F6665arPfb+Fx85ki0c+r0cVniJ8R8g5U6e9nb53q0NmZiE/tmtHJoS1vyR6WdD25LxzdwUCMIQAACEIDAVAQQIxpJMWhtHp5nhUQWIz6oagVo4qFd4f2iHo8+X7ZWc7xoCNPLi5EIVJW/C1aKPpw9cv/+ER6292dgwvMuQSBv2XZmrKdJjBjTys1sp/YIzvqEwX8PMSLZxAmMG8EXiM7QV4P80zR35XzlfrwNbxyzrbqJ+VYu0a/soRixlUdN/3+d+1Te/hYLZ+f8O5IQvnF5fxTb3OC2NFV3TToQgAAEIACB4yOAGFFsqq6K+OdnWR3RDrCnN2qpwXcZmG67b5UShUR0m5YQ4DWotBWcFGbsp9I7AAALsUlEQVRaTi9GbAfyrfW0iBFrWt1iJA1897UWmJjFiM6zLMu2OUMk10F5X7Cz5O458VXWrlr1SkX42LKnJWqXx+JrsU063qmEW1MPxZ5GdpJgtPA8vqGEGkEAAhCAAASGEUCMiNy6brWqXphTjPgD7MG2ENO2laAundtuRooRcaZa8T9VjFhWRYo0c6LQ19MiRqxpuWClIeGoBqljxIiyBa5m2gi3ZcWIdHXy2LLnxIgm/sL3lC2Fko8lq2Na+n77VuaMmKktDeuceQsCEIAABCBwCgQQI4qVc4HrPDdbSTO60kpCTiyFKyn6s+Est3mbVtc3HbQ99a1zLJbg0hvFXs+8GLGntc+9HWTXrOYQIyq3VPiOFiPq9sPulSqV79iy58pjWqGIfKrzHatwkcTI0LZ0CkMJdYQABCAAAQgMI4AY0bhlgqzcgd9h5pC3l9jOeMg57kWGfKi9fd7Dtk1L34Iinz2YZmUkv6UrL0b8Kks+rTZJH4BWDN3+Y5Ahu/3zE6yMGFaLRokRRUhathXpfO3iMknDVB5L+laBUZgpESr2lZHhbWlYb8BbEIAABCAAgVMggBjpsrIyazvP4XUloA1n6TsPJ0sVsZ8lMK2MKLdAlTkrs9FjxYh1S5hFjFjTSki2zn4oB76lD+8pTPQD8HmhNEqMdN7iNXBlxIuw7wPKbiqPdAlCbCHlzIhQptQHrGJkTFs6haGEOkIAAhCAAASGEUCMGLjVW7YMM9eG5DoeyRwGbq1w+G1E0qrH1r0trnl9UeSUBL7Bik+/bVq5Gep0O5l8A1MuHSXQFK8sbuppESPN1qsuZnsbbH9vruONZ8Q905qfcptVvVryvckv3P7XWl3zaUhX+X556+5udtb0B8njsxvGQFkQTE15hoqRolBDy24sT+1HNZu4voJPSWUSy2kVIxO0pdYtXuN6Ct6GAAQgAAEIHAsBxMiqLJm/Bah9VkU5PNwSTek+97P318693H3rozmcm10ZsZwHSZ4pAtz3zp23bvfqK0Z2BsrX0yZGbGlJ54Xa2/Ikpl/d5rfH7spfPuD9KmayC6j/69yzYquX9v2R2CXDvEetjOwSjlf7ivKU30cpvl2y+07JXvKk/7J8lVXEbNmN5WmErS9bKCgVn5LKlEwo2MVIIy4bPr3aEmJkVb0thYEABCAAgXUQQIysww6U4t4TsFxBe+8rSQUgAAEIQAACEIDApAQQI5PiJLHTJYAYOV3bU3MIQAACEIAABIYSQIwMJcd7EGgRQIzgEBCAAAQgAAEIQKAvAcRIX2I8DwGFQHmuIThsDigIQAACEIAABCAAgW4CiBE8BAIQgAAEIAABCEAAAhBYhABiZBHsZAoBCEAAAhCAAAQgAAEIIEbwAQhAAAIQgAAEIAABCEBgEQKIkUWwkykEIAABCEAAAhCAAAQggBjBByAAAQhAAAIQgAAEIACBRQggRhbBTqYQgAAEIAABCEAAAhCAAGIEH4AABCAAAQhAAAIQgAAEFiGAGFkEO5lCAAIQgAAEIAABCEAAAogRfAACEIAABCAAAQhAAAIQWIQAYmQR7GQKAQhAAAIQgAAEIAABCCBG8AEIQAACEIAABCAAAQhAYBECiJFFsJMpBCAAAQhAAAIQgAAEIIAYwQcgAAEIQAACEIAABCAAgUUIIEYWwU6mEIAABCAAAQhAAAIQgABiBB+AAAQgAAEIQAACEIAABBYhgBhZBDuZQgACEIAABCAAAQhAAAKIEXwAAhCAAAQgAAEIQAACEFiEAGJkEexkCgEIQAACEIAABCAAAQggRvABCEAAAhCAAAQgAAEIQGARAoiRRbCTKQQgAAEIQAACEIAABCCAGMEHIAABCEAAAhCAAAQgAIFFCCBGFsFOphCAAAQgAAEIQAACEIAAYgQfgAAEIAABCEAAAhCAAAQWIYAYWQQ7mUIAAhCAAAQgAAEIQAACiBF8AAIQgAAEIAABCEAAAhBYhABiZBHsZAoBCEAAAhCAAAQgAAEIIEbwAQhAAAIQgAAEIAABCEBgEQKIkUWwkykEIAABCEAAAhCAAAQggBjBByAAAQhAAAIQgAAEIACBRQggRhbBTqYQgAAEIAABCEAAAhCAAGIEH4AABCAAAQhAAAIQgAAEFiGAGFkEO5lCAAIQgAAEIAABCEAAAogRfAACEIAABCAAAQhAAAIQWIQAYmQR7GQKAQhAAAIQgAAEIAABCCBG8AEIQAACEIAABCAAAQhAYBECiJFFsJMpBCAAAQhAAAIQgAAEIIAYwQcgAAEIQAACEIAABCAAgUUIIEYWwU6mEIAABCAAAQhAAAIQgABiBB+AAAQgAAEIQAACEIAABBYhgBhZBDuZQgACEIAABCAAAQhAAAKIEXwAAhCAAAQgAAEIQAACEFiEAGJkEexkCgEIQAACEIAABCAAAQggRvABCEAAAhCAAAQgAAEIQGARAoiRRbCTKQQgAAEIQAACEIAABCCAGMEHIAABCEAAAhCAAAQgAIFFCCBGFsFOphCAAAQgAAEIQAACEIAAYgQfgAAEIAABCEAAAhCAAAQWIYAYWQQ7mUIAAhCAAAQgAAEIQAACiBF8AAIQgAAEIAABCEAAAhBYhABiZBHsZAoBCEAAAhCAAAQgAAEIIEbwAQhAAAIQgAAEIAABCEBgEQKIkUWwkykEIAABCEAAAhCAAAQggBjBByAAAQhAAAIQgAAEIACBRQggRhbBTqYQgAAEIAABCEAAAhCAAGIEH4AABCAAAQhAAAIQgAAEFiGAGFkEO5lCAAIQgAAEIAABCEAAAogRfAACEIAABCAAAQhAAAIQWIQAYmQR7GQKAQhAAAIQgAAEIAABCCBG8AEIQAACEIAABCAAAQhAYBECiJFFsJMpBCAAAQhAAAIQgAAEIIAYwQcgAAEIQAACEIAABCAAgUUIIEYWwU6mEIAABCAAAQhAAAIQgABiBB+AAAQgAAEIQAACEIAABBYhgBhZBDuZQgACEIAABCAAAQhAAAKIEXwAAhCAAAQgAAEIQAACEFiEAGJkEexkCgEIQAACEIAABCAAAQggRvABCEAAAhCAAAQgAAEIQGARAoiRRbCTKQQgAAEIQAACEIAABCCAGMEHIAABCEAAAhCAAAQgAIFFCCBGFsFOphCAAAQgAAEIQAACEIAAYgQfgAAEIAABCEAAAhCAAAQWIYAYWQQ7mUIAAhCAAAQgAAEIQAACiBF8AAIQgAAEIAABCEAAAhBYhABiZBHsZAoBCEAAAhCAAAQgAAEIIEbwAQhAAAIQgAAEIAABCEBgEQKIkUWwkykEIAABCEAAAhCAAAQggBjBByAAAQhAAAIQgAAEIACBRQggRhbBTqYQgAAEIAABCEAAAhCAAGIEH4AABCAAAQhAAAIQgAAEFiGAGFkEO5lCAAIQgAAEIAABCEAAAogRfAACEIAABCAAAQhAAAIQWIQAYmQR7GQKAQhAAAIQgAAEIAABCCBG8AEIQAACEIAABCAAAQhAYBECiJFFsJMpBCAAAQhAAAIQgAAEIIAYwQcgAAEIQAACEIAABCAAgUUIIEYWwU6mEIAABCAAAQhAAAIQgABiBB+AAAQgAAEIQAACEIAABBYhgBhZBDuZQgACEIAABCAAAQhAAAKIEXwAAhCAAAQgAAEIQAACEFiEAGJkEexkCgEIQAACEIAABCAAAQggRvABCEAAAhCAAAQgAAEIQGARAoiRRbCTKQQgAAEIQAACEIAABCCAGMEHIAABCEAAAhCAAAQgAIFFCCBGFsFOphCAAAQgAAEIQAACEIAAYgQfgAAEIAABCEAAAhCAAAQWIYAYWQQ7mUIAAhCAAAQgAAEIQAACiBF8AAIQgAAEIAABCEAAAhBYhABiZBHsZAoBCEAAAhCAAAQgAAEIIEbwAQhAAAIQgAAEIAABCEBgEQKIkUWwkykEIAABCEAAAhCAAAQggBjBByAAAQhAAAIQgAAEIACBRQggRhbBTqYQgAAEIAABCEAAAhCAwP8HD8bLzQr3GAoAAAAASUVORK5CYII=;" vertex="1" parent="PbY_MZgcbPNX0MPxPYcz-238">
          <mxGeometry x="18" width="272" height="221.87" as="geometry" />
        </mxCell>
        <mxCell id="PbY_MZgcbPNX0MPxPYcz-141" value="" style="group" vertex="1" connectable="0" parent="PbY_MZgcbPNX0MPxPYcz-238">
          <mxGeometry y="780" width="215" height="140" as="geometry" />
        </mxCell>
        <mxCell id="PbY_MZgcbPNX0MPxPYcz-142" value="Aviones" style="rounded=0;whiteSpace=wrap;html=1;" vertex="1" parent="PbY_MZgcbPNX0MPxPYcz-141">
          <mxGeometry x="55" y="60" width="160" height="80" as="geometry" />
        </mxCell>
        <mxCell id="PbY_MZgcbPNX0MPxPYcz-143" value="" style="group" vertex="1" connectable="0" parent="PbY_MZgcbPNX0MPxPYcz-141">
          <mxGeometry x="55" width="50" height="60" as="geometry" />
        </mxCell>
        <mxCell id="PbY_MZgcbPNX0MPxPYcz-144" value="" style="group;direction=west;" vertex="1" connectable="0" parent="PbY_MZgcbPNX0MPxPYcz-143">
          <mxGeometry x="15" y="20" width="20" height="40" as="geometry" />
        </mxCell>
        <mxCell id="PbY_MZgcbPNX0MPxPYcz-145" value="" style="endArrow=none;html=1;rounded=0;" edge="1" parent="PbY_MZgcbPNX0MPxPYcz-144">
          <mxGeometry width="50" height="50" relative="1" as="geometry">
            <mxPoint x="10" y="40" as="sourcePoint" />
            <mxPoint x="10" y="20" as="targetPoint" />
          </mxGeometry>
        </mxCell>
        <mxCell id="PbY_MZgcbPNX0MPxPYcz-146" value="" style="ellipse;whiteSpace=wrap;html=1;aspect=fixed;fillColor=light-dark(#FFFFFF,#33FFFF);" vertex="1" parent="PbY_MZgcbPNX0MPxPYcz-144">
          <mxGeometry width="20" height="20" as="geometry" />
        </mxCell>
        <mxCell id="PbY_MZgcbPNX0MPxPYcz-147" value="Numero" style="text;html=1;align=center;verticalAlign=middle;whiteSpace=wrap;rounded=0;fontSize=8;" vertex="1" parent="PbY_MZgcbPNX0MPxPYcz-143">
          <mxGeometry width="50" height="20" as="geometry" />
        </mxCell>
        <mxCell id="PbY_MZgcbPNX0MPxPYcz-148" value="" style="group" vertex="1" connectable="0" parent="PbY_MZgcbPNX0MPxPYcz-141">
          <mxGeometry x="105" width="50" height="60" as="geometry" />
        </mxCell>
        <mxCell id="PbY_MZgcbPNX0MPxPYcz-149" value="" style="group;direction=west;" vertex="1" connectable="0" parent="PbY_MZgcbPNX0MPxPYcz-148">
          <mxGeometry x="15" y="20" width="20" height="40" as="geometry" />
        </mxCell>
        <mxCell id="PbY_MZgcbPNX0MPxPYcz-150" value="" style="endArrow=none;html=1;rounded=0;" edge="1" parent="PbY_MZgcbPNX0MPxPYcz-149">
          <mxGeometry width="50" height="50" relative="1" as="geometry">
            <mxPoint x="10" y="40" as="sourcePoint" />
            <mxPoint x="10" y="20" as="targetPoint" />
          </mxGeometry>
        </mxCell>
        <mxCell id="PbY_MZgcbPNX0MPxPYcz-151" value="" style="ellipse;whiteSpace=wrap;html=1;aspect=fixed;" vertex="1" parent="PbY_MZgcbPNX0MPxPYcz-149">
          <mxGeometry width="20" height="20" as="geometry" />
        </mxCell>
        <mxCell id="PbY_MZgcbPNX0MPxPYcz-152" value="Modelo" style="text;html=1;align=center;verticalAlign=middle;whiteSpace=wrap;rounded=0;fontSize=8;" vertex="1" parent="PbY_MZgcbPNX0MPxPYcz-148">
          <mxGeometry width="50" height="20" as="geometry" />
        </mxCell>
        <mxCell id="PbY_MZgcbPNX0MPxPYcz-153" value="" style="group" vertex="1" connectable="0" parent="PbY_MZgcbPNX0MPxPYcz-141">
          <mxGeometry x="155" width="50" height="60" as="geometry" />
        </mxCell>
        <mxCell id="PbY_MZgcbPNX0MPxPYcz-154" value="" style="group;direction=west;" vertex="1" connectable="0" parent="PbY_MZgcbPNX0MPxPYcz-153">
          <mxGeometry x="15" y="20" width="20" height="40" as="geometry" />
        </mxCell>
        <mxCell id="PbY_MZgcbPNX0MPxPYcz-155" value="" style="endArrow=none;html=1;rounded=0;" edge="1" parent="PbY_MZgcbPNX0MPxPYcz-154">
          <mxGeometry width="50" height="50" relative="1" as="geometry">
            <mxPoint x="10" y="40" as="sourcePoint" />
            <mxPoint x="10" y="20" as="targetPoint" />
          </mxGeometry>
        </mxCell>
        <mxCell id="PbY_MZgcbPNX0MPxPYcz-156" value="" style="ellipse;whiteSpace=wrap;html=1;aspect=fixed;" vertex="1" parent="PbY_MZgcbPNX0MPxPYcz-154">
          <mxGeometry width="20" height="20" as="geometry" />
        </mxCell>
        <mxCell id="PbY_MZgcbPNX0MPxPYcz-157" value="Peso" style="text;html=1;align=center;verticalAlign=middle;whiteSpace=wrap;rounded=0;fontSize=8;" vertex="1" parent="PbY_MZgcbPNX0MPxPYcz-153">
          <mxGeometry width="50" height="20" as="geometry" />
        </mxCell>
        <mxCell id="PbY_MZgcbPNX0MPxPYcz-158" value="" style="group" vertex="1" connectable="0" parent="PbY_MZgcbPNX0MPxPYcz-141">
          <mxGeometry y="55" width="55" height="40" as="geometry" />
        </mxCell>
        <mxCell id="PbY_MZgcbPNX0MPxPYcz-159" value="" style="group" vertex="1" connectable="0" parent="PbY_MZgcbPNX0MPxPYcz-158">
          <mxGeometry x="15" y="20" width="40" height="20" as="geometry" />
        </mxCell>
        <mxCell id="PbY_MZgcbPNX0MPxPYcz-160" value="" style="endArrow=none;html=1;rounded=0;exitX=1;exitY=0.5;exitDx=0;exitDy=0;" edge="1" parent="PbY_MZgcbPNX0MPxPYcz-159" source="PbY_MZgcbPNX0MPxPYcz-161">
          <mxGeometry width="50" height="50" relative="1" as="geometry">
            <mxPoint x="30" as="sourcePoint" />
            <mxPoint x="40" y="10" as="targetPoint" />
          </mxGeometry>
        </mxCell>
        <mxCell id="PbY_MZgcbPNX0MPxPYcz-161" value="" style="ellipse;whiteSpace=wrap;html=1;aspect=fixed;container=0;" vertex="1" parent="PbY_MZgcbPNX0MPxPYcz-159">
          <mxGeometry width="20" height="20" as="geometry" />
        </mxCell>
        <mxCell id="PbY_MZgcbPNX0MPxPYcz-162" value="Capacidad" style="text;html=1;align=center;verticalAlign=middle;whiteSpace=wrap;rounded=0;fontSize=8;" vertex="1" parent="PbY_MZgcbPNX0MPxPYcz-158">
          <mxGeometry width="50" height="20" as="geometry" />
        </mxCell>
        <mxCell id="PbY_MZgcbPNX0MPxPYcz-49" value="" style="endArrow=none;html=1;rounded=0;entryX=0.487;entryY=1;entryDx=0;entryDy=0;entryPerimeter=0;" edge="1" parent="PbY_MZgcbPNX0MPxPYcz-238" source="PbY_MZgcbPNX0MPxPYcz-94" target="PbY_MZgcbPNX0MPxPYcz-2">
          <mxGeometry width="50" height="50" relative="1" as="geometry">
            <mxPoint x="430" y="220" as="sourcePoint" />
            <mxPoint x="500" y="190" as="targetPoint" />
          </mxGeometry>
        </mxCell>
        <mxCell id="PbY_MZgcbPNX0MPxPYcz-55" value="" style="endArrow=none;html=1;rounded=0;entryX=1;entryY=0.5;entryDx=0;entryDy=0;exitX=0.5;exitY=0;exitDx=0;exitDy=0;" edge="1" parent="PbY_MZgcbPNX0MPxPYcz-238" source="PbY_MZgcbPNX0MPxPYcz-51" target="PbY_MZgcbPNX0MPxPYcz-53">
          <mxGeometry width="50" height="50" relative="1" as="geometry">
            <mxPoint x="450" y="280" as="sourcePoint" />
            <mxPoint x="480" y="270" as="targetPoint" />
          </mxGeometry>
        </mxCell>
        <mxCell id="PbY_MZgcbPNX0MPxPYcz-56" value="" style="endArrow=none;html=1;rounded=0;entryX=0.5;entryY=0;entryDx=0;entryDy=0;exitX=0.5;exitY=0;exitDx=0;exitDy=0;" edge="1" parent="PbY_MZgcbPNX0MPxPYcz-238" source="PbY_MZgcbPNX0MPxPYcz-52" target="PbY_MZgcbPNX0MPxPYcz-53">
          <mxGeometry width="50" height="50" relative="1" as="geometry">
            <mxPoint x="440" y="300" as="sourcePoint" />
            <mxPoint x="440" y="270" as="targetPoint" />
          </mxGeometry>
        </mxCell>
        <mxCell id="PbY_MZgcbPNX0MPxPYcz-57" value="" style="endArrow=none;html=1;rounded=0;entryX=0.5;entryY=1;entryDx=0;entryDy=0;exitX=0.5;exitY=0;exitDx=0;exitDy=0;" edge="1" parent="PbY_MZgcbPNX0MPxPYcz-238" source="PbY_MZgcbPNX0MPxPYcz-50" target="PbY_MZgcbPNX0MPxPYcz-53">
          <mxGeometry width="50" height="50" relative="1" as="geometry">
            <mxPoint x="450" y="320" as="sourcePoint" />
            <mxPoint x="500" y="270" as="targetPoint" />
          </mxGeometry>
        </mxCell>
        <mxCell id="PbY_MZgcbPNX0MPxPYcz-53" value="" style="triangle;whiteSpace=wrap;html=1;direction=south;container=0;" vertex="1" parent="PbY_MZgcbPNX0MPxPYcz-238">
          <mxGeometry x="380" y="220" width="100" height="40" as="geometry" />
        </mxCell>
        <mxCell id="PbY_MZgcbPNX0MPxPYcz-54" value="pueden ser" style="text;html=1;align=center;verticalAlign=middle;whiteSpace=wrap;rounded=0;fontSize=8;container=0;" vertex="1" parent="PbY_MZgcbPNX0MPxPYcz-238">
          <mxGeometry x="400" y="220" width="60" height="30" as="geometry" />
        </mxCell>
        <mxCell id="PbY_MZgcbPNX0MPxPYcz-95" value="" style="endArrow=none;html=1;rounded=0;entryX=0.487;entryY=1;entryDx=0;entryDy=0;entryPerimeter=0;" edge="1" parent="PbY_MZgcbPNX0MPxPYcz-238" target="PbY_MZgcbPNX0MPxPYcz-94">
          <mxGeometry width="50" height="50" relative="1" as="geometry">
            <mxPoint x="430" y="220" as="sourcePoint" />
            <mxPoint x="430" y="170" as="targetPoint" />
          </mxGeometry>
        </mxCell>
        <mxCell id="PbY_MZgcbPNX0MPxPYcz-94" value="" style="ellipse;whiteSpace=wrap;html=1;aspect=fixed;container=0;" vertex="1" parent="PbY_MZgcbPNX0MPxPYcz-238">
          <mxGeometry x="420" y="190" width="20" height="20" as="geometry" />
        </mxCell>
        <mxCell id="PbY_MZgcbPNX0MPxPYcz-2" value="Empleados" style="rounded=0;whiteSpace=wrap;html=1;" vertex="1" parent="PbY_MZgcbPNX0MPxPYcz-238">
          <mxGeometry x="352" y="90" width="160" height="80" as="geometry" />
        </mxCell>
        <mxCell id="PbY_MZgcbPNX0MPxPYcz-21" value="" style="group" vertex="1" connectable="0" parent="PbY_MZgcbPNX0MPxPYcz-238">
          <mxGeometry x="352" y="30" width="50" height="60" as="geometry" />
        </mxCell>
        <mxCell id="PbY_MZgcbPNX0MPxPYcz-5" value="" style="group;direction=west;" vertex="1" connectable="0" parent="PbY_MZgcbPNX0MPxPYcz-21">
          <mxGeometry x="15" y="20" width="20" height="40" as="geometry" />
        </mxCell>
        <mxCell id="PbY_MZgcbPNX0MPxPYcz-3" value="" style="endArrow=none;html=1;rounded=0;" edge="1" parent="PbY_MZgcbPNX0MPxPYcz-5">
          <mxGeometry width="50" height="50" relative="1" as="geometry">
            <mxPoint x="10" y="40" as="sourcePoint" />
            <mxPoint x="10" y="20" as="targetPoint" />
          </mxGeometry>
        </mxCell>
        <mxCell id="PbY_MZgcbPNX0MPxPYcz-4" value="" style="ellipse;whiteSpace=wrap;html=1;aspect=fixed;fillColor=light-dark(#FFFFFF,#33FFFF);" vertex="1" parent="PbY_MZgcbPNX0MPxPYcz-5">
          <mxGeometry width="20" height="20" as="geometry" />
        </mxCell>
        <mxCell id="PbY_MZgcbPNX0MPxPYcz-13" value="NSS" style="text;html=1;align=center;verticalAlign=middle;whiteSpace=wrap;rounded=0;fontSize=8;" vertex="1" parent="PbY_MZgcbPNX0MPxPYcz-21">
          <mxGeometry width="50" height="20" as="geometry" />
        </mxCell>
        <mxCell id="PbY_MZgcbPNX0MPxPYcz-22" value="" style="group" vertex="1" connectable="0" parent="PbY_MZgcbPNX0MPxPYcz-238">
          <mxGeometry x="402" y="30" width="50" height="60" as="geometry" />
        </mxCell>
        <mxCell id="PbY_MZgcbPNX0MPxPYcz-23" value="" style="group;direction=west;" vertex="1" connectable="0" parent="PbY_MZgcbPNX0MPxPYcz-22">
          <mxGeometry x="15" y="20" width="20" height="40" as="geometry" />
        </mxCell>
        <mxCell id="PbY_MZgcbPNX0MPxPYcz-24" value="" style="endArrow=none;html=1;rounded=0;" edge="1" parent="PbY_MZgcbPNX0MPxPYcz-23">
          <mxGeometry width="50" height="50" relative="1" as="geometry">
            <mxPoint x="10" y="40" as="sourcePoint" />
            <mxPoint x="10" y="20" as="targetPoint" />
          </mxGeometry>
        </mxCell>
        <mxCell id="PbY_MZgcbPNX0MPxPYcz-25" value="" style="ellipse;whiteSpace=wrap;html=1;aspect=fixed;" vertex="1" parent="PbY_MZgcbPNX0MPxPYcz-23">
          <mxGeometry width="20" height="20" as="geometry" />
        </mxCell>
        <mxCell id="PbY_MZgcbPNX0MPxPYcz-26" value="Nombre" style="text;html=1;align=center;verticalAlign=middle;whiteSpace=wrap;rounded=0;fontSize=8;" vertex="1" parent="PbY_MZgcbPNX0MPxPYcz-22">
          <mxGeometry width="50" height="20" as="geometry" />
        </mxCell>
        <mxCell id="PbY_MZgcbPNX0MPxPYcz-27" value="" style="group" vertex="1" connectable="0" parent="PbY_MZgcbPNX0MPxPYcz-238">
          <mxGeometry x="452" y="30" width="50" height="60" as="geometry" />
        </mxCell>
        <mxCell id="PbY_MZgcbPNX0MPxPYcz-28" value="" style="group;direction=west;" vertex="1" connectable="0" parent="PbY_MZgcbPNX0MPxPYcz-27">
          <mxGeometry x="15" y="20" width="20" height="40" as="geometry" />
        </mxCell>
        <mxCell id="PbY_MZgcbPNX0MPxPYcz-29" value="" style="endArrow=none;html=1;rounded=0;" edge="1" parent="PbY_MZgcbPNX0MPxPYcz-28">
          <mxGeometry width="50" height="50" relative="1" as="geometry">
            <mxPoint x="10" y="40" as="sourcePoint" />
            <mxPoint x="10" y="20" as="targetPoint" />
          </mxGeometry>
        </mxCell>
        <mxCell id="PbY_MZgcbPNX0MPxPYcz-30" value="" style="ellipse;whiteSpace=wrap;html=1;aspect=fixed;" vertex="1" parent="PbY_MZgcbPNX0MPxPYcz-28">
          <mxGeometry width="20" height="20" as="geometry" />
        </mxCell>
        <mxCell id="PbY_MZgcbPNX0MPxPYcz-31" value="Apellido" style="text;html=1;align=center;verticalAlign=middle;whiteSpace=wrap;rounded=0;fontSize=8;" vertex="1" parent="PbY_MZgcbPNX0MPxPYcz-27">
          <mxGeometry width="50" height="20" as="geometry" />
        </mxCell>
        <mxCell id="PbY_MZgcbPNX0MPxPYcz-33" value="" style="group" vertex="1" connectable="0" parent="PbY_MZgcbPNX0MPxPYcz-238">
          <mxGeometry x="297" y="85" width="55" height="40" as="geometry" />
        </mxCell>
        <mxCell id="PbY_MZgcbPNX0MPxPYcz-9" value="" style="group" vertex="1" connectable="0" parent="PbY_MZgcbPNX0MPxPYcz-33">
          <mxGeometry x="15" y="20" width="40" height="20" as="geometry" />
        </mxCell>
        <mxCell id="PbY_MZgcbPNX0MPxPYcz-7" value="" style="endArrow=none;html=1;rounded=0;exitX=1;exitY=0.5;exitDx=0;exitDy=0;" edge="1" parent="PbY_MZgcbPNX0MPxPYcz-9" source="PbY_MZgcbPNX0MPxPYcz-8">
          <mxGeometry width="50" height="50" relative="1" as="geometry">
            <mxPoint x="30" as="sourcePoint" />
            <mxPoint x="40" y="10" as="targetPoint" />
          </mxGeometry>
        </mxCell>
        <mxCell id="PbY_MZgcbPNX0MPxPYcz-8" value="" style="ellipse;whiteSpace=wrap;html=1;aspect=fixed;container=0;" vertex="1" parent="PbY_MZgcbPNX0MPxPYcz-9">
          <mxGeometry width="20" height="20" as="geometry" />
        </mxCell>
        <mxCell id="PbY_MZgcbPNX0MPxPYcz-32" value="DirecciÃ³n" style="text;html=1;align=center;verticalAlign=middle;whiteSpace=wrap;rounded=0;fontSize=8;" vertex="1" parent="PbY_MZgcbPNX0MPxPYcz-33">
          <mxGeometry width="50" height="20" as="geometry" />
        </mxCell>
        <mxCell id="PbY_MZgcbPNX0MPxPYcz-134" value="" style="group" vertex="1" connectable="0" parent="PbY_MZgcbPNX0MPxPYcz-238">
          <mxGeometry x="297" y="130" width="55" height="40" as="geometry" />
        </mxCell>
        <mxCell id="PbY_MZgcbPNX0MPxPYcz-135" value="" style="group" vertex="1" connectable="0" parent="PbY_MZgcbPNX0MPxPYcz-134">
          <mxGeometry x="15" y="20" width="40" height="20" as="geometry" />
        </mxCell>
        <mxCell id="PbY_MZgcbPNX0MPxPYcz-136" value="" style="endArrow=none;html=1;rounded=0;exitX=1;exitY=0.5;exitDx=0;exitDy=0;" edge="1" parent="PbY_MZgcbPNX0MPxPYcz-135" source="PbY_MZgcbPNX0MPxPYcz-137">
          <mxGeometry width="50" height="50" relative="1" as="geometry">
            <mxPoint x="30" as="sourcePoint" />
            <mxPoint x="40" y="10" as="targetPoint" />
          </mxGeometry>
        </mxCell>
        <mxCell id="PbY_MZgcbPNX0MPxPYcz-137" value="" style="ellipse;whiteSpace=wrap;html=1;aspect=fixed;container=0;" vertex="1" parent="PbY_MZgcbPNX0MPxPYcz-135">
          <mxGeometry width="20" height="20" as="geometry" />
        </mxCell>
        <mxCell id="PbY_MZgcbPNX0MPxPYcz-138" value="TelÃ©fono" style="text;html=1;align=center;verticalAlign=middle;whiteSpace=wrap;rounded=0;fontSize=8;" vertex="1" parent="PbY_MZgcbPNX0MPxPYcz-134">
          <mxGeometry width="50" height="20" as="geometry" />
        </mxCell>
        <mxCell id="PbY_MZgcbPNX0MPxPYcz-164" value="" style="group" vertex="1" connectable="0" parent="PbY_MZgcbPNX0MPxPYcz-238">
          <mxGeometry x="360" y="280" width="140" height="120" as="geometry" />
        </mxCell>
        <mxCell id="PbY_MZgcbPNX0MPxPYcz-51" value="MecÃ¡nicos" style="rounded=0;whiteSpace=wrap;html=1;fontSize=8;container=0;" vertex="1" parent="PbY_MZgcbPNX0MPxPYcz-164">
          <mxGeometry x="10" y="60" width="120" height="60" as="geometry" />
        </mxCell>
        <mxCell id="PbY_MZgcbPNX0MPxPYcz-85" value="" style="group;direction=west;" vertex="1" connectable="0" parent="PbY_MZgcbPNX0MPxPYcz-164">
          <mxGeometry x="15" y="20" width="20" height="40" as="geometry" />
        </mxCell>
        <mxCell id="PbY_MZgcbPNX0MPxPYcz-86" value="" style="endArrow=none;html=1;rounded=0;" edge="1" parent="PbY_MZgcbPNX0MPxPYcz-85">
          <mxGeometry width="50" height="50" relative="1" as="geometry">
            <mxPoint x="10" y="40" as="sourcePoint" />
            <mxPoint x="10" y="20" as="targetPoint" />
          </mxGeometry>
        </mxCell>
        <mxCell id="PbY_MZgcbPNX0MPxPYcz-139" value="" style="ellipse;whiteSpace=wrap;html=1;aspect=fixed;" vertex="1" parent="PbY_MZgcbPNX0MPxPYcz-85">
          <mxGeometry width="20" height="20" as="geometry" />
        </mxCell>
        <mxCell id="PbY_MZgcbPNX0MPxPYcz-88" value="Turno" style="text;html=1;align=center;verticalAlign=middle;whiteSpace=wrap;rounded=0;fontSize=8;" vertex="1" parent="PbY_MZgcbPNX0MPxPYcz-164">
          <mxGeometry width="50" height="20" as="geometry" />
        </mxCell>
        <mxCell id="PbY_MZgcbPNX0MPxPYcz-90" value="" style="group;direction=west;" vertex="1" connectable="0" parent="PbY_MZgcbPNX0MPxPYcz-164">
          <mxGeometry x="105" y="20" width="20" height="40" as="geometry" />
        </mxCell>
        <mxCell id="PbY_MZgcbPNX0MPxPYcz-91" value="" style="endArrow=none;html=1;rounded=0;" edge="1" parent="PbY_MZgcbPNX0MPxPYcz-90">
          <mxGeometry width="50" height="50" relative="1" as="geometry">
            <mxPoint x="10" y="40" as="sourcePoint" />
            <mxPoint x="10" y="20" as="targetPoint" />
          </mxGeometry>
        </mxCell>
        <mxCell id="PbY_MZgcbPNX0MPxPYcz-92" value="" style="ellipse;whiteSpace=wrap;html=1;aspect=fixed;" vertex="1" parent="PbY_MZgcbPNX0MPxPYcz-90">
          <mxGeometry width="20" height="20" as="geometry" />
        </mxCell>
        <mxCell id="PbY_MZgcbPNX0MPxPYcz-93" value="Salario" style="text;html=1;align=center;verticalAlign=middle;whiteSpace=wrap;rounded=0;fontSize=8;" vertex="1" parent="PbY_MZgcbPNX0MPxPYcz-164">
          <mxGeometry x="90" width="50" height="20" as="geometry" />
        </mxCell>
        <mxCell id="PbY_MZgcbPNX0MPxPYcz-165" value="" style="group" vertex="1" connectable="0" parent="PbY_MZgcbPNX0MPxPYcz-238">
          <mxGeometry x="115" y="280" width="175" height="120" as="geometry" />
        </mxCell>
        <mxCell id="PbY_MZgcbPNX0MPxPYcz-50" value="Pilotos" style="rounded=0;whiteSpace=wrap;html=1;fontSize=8;container=0;" vertex="1" parent="PbY_MZgcbPNX0MPxPYcz-165">
          <mxGeometry x="55" y="60" width="120" height="60" as="geometry" />
        </mxCell>
        <mxCell id="PbY_MZgcbPNX0MPxPYcz-42" value="" style="group;direction=west;" vertex="1" connectable="0" parent="PbY_MZgcbPNX0MPxPYcz-165">
          <mxGeometry x="60" y="20" width="20" height="40" as="geometry" />
        </mxCell>
        <mxCell id="PbY_MZgcbPNX0MPxPYcz-43" value="" style="endArrow=none;html=1;rounded=0;" edge="1" parent="PbY_MZgcbPNX0MPxPYcz-42">
          <mxGeometry width="50" height="50" relative="1" as="geometry">
            <mxPoint x="10" y="40" as="sourcePoint" />
            <mxPoint x="10" y="20" as="targetPoint" />
          </mxGeometry>
        </mxCell>
        <mxCell id="PbY_MZgcbPNX0MPxPYcz-44" value="" style="ellipse;whiteSpace=wrap;html=1;aspect=fixed;fillColor=light-dark(#FFFFFF,#33FFFF);" vertex="1" parent="PbY_MZgcbPNX0MPxPYcz-42">
          <mxGeometry width="20" height="20" as="geometry" />
        </mxCell>
        <mxCell id="PbY_MZgcbPNX0MPxPYcz-45" value="Nro. Licencia" style="text;html=1;align=center;verticalAlign=middle;whiteSpace=wrap;rounded=0;fontSize=8;" vertex="1" parent="PbY_MZgcbPNX0MPxPYcz-165">
          <mxGeometry x="45" width="50" height="20" as="geometry" />
        </mxCell>
        <mxCell id="PbY_MZgcbPNX0MPxPYcz-64" value="" style="group" vertex="1" connectable="0" parent="PbY_MZgcbPNX0MPxPYcz-165">
          <mxGeometry x="15" y="70" width="40" height="20" as="geometry" />
        </mxCell>
        <mxCell id="PbY_MZgcbPNX0MPxPYcz-65" value="" style="endArrow=none;html=1;rounded=0;exitX=1;exitY=0.5;exitDx=0;exitDy=0;" edge="1" parent="PbY_MZgcbPNX0MPxPYcz-64" source="PbY_MZgcbPNX0MPxPYcz-66">
          <mxGeometry width="50" height="50" relative="1" as="geometry">
            <mxPoint x="30" as="sourcePoint" />
            <mxPoint x="40" y="10" as="targetPoint" />
          </mxGeometry>
        </mxCell>
        <mxCell id="PbY_MZgcbPNX0MPxPYcz-66" value="" style="ellipse;whiteSpace=wrap;html=1;aspect=fixed;container=0;" vertex="1" parent="PbY_MZgcbPNX0MPxPYcz-64">
          <mxGeometry width="20" height="20" as="geometry" />
        </mxCell>
        <mxCell id="PbY_MZgcbPNX0MPxPYcz-67" value="Restricciones" style="text;html=1;align=center;verticalAlign=middle;whiteSpace=wrap;rounded=0;fontSize=8;" vertex="1" parent="PbY_MZgcbPNX0MPxPYcz-165">
          <mxGeometry y="50" width="50" height="20" as="geometry" />
        </mxCell>
        <mxCell id="PbY_MZgcbPNX0MPxPYcz-166" value="" style="group" vertex="1" connectable="0" parent="PbY_MZgcbPNX0MPxPYcz-238">
          <mxGeometry x="570" y="280" width="130" height="120" as="geometry" />
        </mxCell>
        <mxCell id="PbY_MZgcbPNX0MPxPYcz-52" value="Propietarios" style="rounded=0;whiteSpace=wrap;html=1;fontSize=8;container=0;" vertex="1" parent="PbY_MZgcbPNX0MPxPYcz-166">
          <mxGeometry y="60" width="120" height="60" as="geometry" />
        </mxCell>
        <mxCell id="PbY_MZgcbPNX0MPxPYcz-59" value="" style="group;direction=west;" vertex="1" connectable="0" parent="PbY_MZgcbPNX0MPxPYcz-166">
          <mxGeometry x="95" y="20" width="20" height="40" as="geometry" />
        </mxCell>
        <mxCell id="PbY_MZgcbPNX0MPxPYcz-60" value="" style="endArrow=none;html=1;rounded=0;" edge="1" parent="PbY_MZgcbPNX0MPxPYcz-59">
          <mxGeometry width="50" height="50" relative="1" as="geometry">
            <mxPoint x="10" y="40" as="sourcePoint" />
            <mxPoint x="10" y="20" as="targetPoint" />
          </mxGeometry>
        </mxCell>
        <mxCell id="PbY_MZgcbPNX0MPxPYcz-61" value="" style="ellipse;whiteSpace=wrap;html=1;aspect=fixed;" vertex="1" parent="PbY_MZgcbPNX0MPxPYcz-59">
          <mxGeometry width="20" height="20" as="geometry" />
        </mxCell>
        <mxCell id="PbY_MZgcbPNX0MPxPYcz-62" value="% de propiedad" style="text;html=1;align=center;verticalAlign=middle;whiteSpace=wrap;rounded=0;fontSize=8;" vertex="1" parent="PbY_MZgcbPNX0MPxPYcz-166">
          <mxGeometry x="80" width="50" height="20" as="geometry" />
        </mxCell>
        <mxCell id="PbY_MZgcbPNX0MPxPYcz-184" value="" style="group" vertex="1" connectable="0" parent="PbY_MZgcbPNX0MPxPYcz-238">
          <mxGeometry x="460" y="860" width="307" height="183" as="geometry" />
        </mxCell>
        <mxCell id="PbY_MZgcbPNX0MPxPYcz-168" value="" style="group" vertex="1" connectable="0" parent="PbY_MZgcbPNX0MPxPYcz-184">
          <mxGeometry x="160" y="-10" width="167" height="140" as="geometry" />
        </mxCell>
        <mxCell id="PbY_MZgcbPNX0MPxPYcz-107" value="Hangares" style="rounded=0;whiteSpace=wrap;html=1;" vertex="1" parent="PbY_MZgcbPNX0MPxPYcz-168">
          <mxGeometry y="60" width="160" height="80" as="geometry" />
        </mxCell>
        <mxCell id="PbY_MZgcbPNX0MPxPYcz-108" value="" style="group" vertex="1" connectable="0" parent="PbY_MZgcbPNX0MPxPYcz-168">
          <mxGeometry width="50" height="60" as="geometry" />
        </mxCell>
        <mxCell id="PbY_MZgcbPNX0MPxPYcz-109" value="" style="group;direction=west;" vertex="1" connectable="0" parent="PbY_MZgcbPNX0MPxPYcz-108">
          <mxGeometry x="15" y="20" width="20" height="40" as="geometry" />
        </mxCell>
        <mxCell id="PbY_MZgcbPNX0MPxPYcz-110" value="" style="endArrow=none;html=1;rounded=0;" edge="1" parent="PbY_MZgcbPNX0MPxPYcz-109">
          <mxGeometry width="50" height="50" relative="1" as="geometry">
            <mxPoint x="10" y="40" as="sourcePoint" />
            <mxPoint x="10" y="20" as="targetPoint" />
          </mxGeometry>
        </mxCell>
        <mxCell id="PbY_MZgcbPNX0MPxPYcz-111" value="" style="ellipse;whiteSpace=wrap;html=1;aspect=fixed;fillColor=light-dark(#FFFFFF,#33FFFF);" vertex="1" parent="PbY_MZgcbPNX0MPxPYcz-109">
          <mxGeometry width="20" height="20" as="geometry" />
        </mxCell>
        <mxCell id="PbY_MZgcbPNX0MPxPYcz-112" value="Numero" style="text;html=1;align=center;verticalAlign=middle;whiteSpace=wrap;rounded=0;fontSize=8;" vertex="1" parent="PbY_MZgcbPNX0MPxPYcz-108">
          <mxGeometry width="50" height="20" as="geometry" />
        </mxCell>
        <mxCell id="PbY_MZgcbPNX0MPxPYcz-113" value="" style="group" vertex="1" connectable="0" parent="PbY_MZgcbPNX0MPxPYcz-168">
          <mxGeometry x="56" width="50" height="60" as="geometry" />
        </mxCell>
        <mxCell id="PbY_MZgcbPNX0MPxPYcz-114" value="" style="group;direction=west;" vertex="1" connectable="0" parent="PbY_MZgcbPNX0MPxPYcz-113">
          <mxGeometry x="15" y="20" width="20" height="40" as="geometry" />
        </mxCell>
        <mxCell id="PbY_MZgcbPNX0MPxPYcz-115" value="" style="endArrow=none;html=1;rounded=0;" edge="1" parent="PbY_MZgcbPNX0MPxPYcz-114">
          <mxGeometry width="50" height="50" relative="1" as="geometry">
            <mxPoint x="10" y="40" as="sourcePoint" />
            <mxPoint x="10" y="20" as="targetPoint" />
          </mxGeometry>
        </mxCell>
        <mxCell id="PbY_MZgcbPNX0MPxPYcz-116" value="" style="ellipse;whiteSpace=wrap;html=1;aspect=fixed;" vertex="1" parent="PbY_MZgcbPNX0MPxPYcz-114">
          <mxGeometry width="20" height="20" as="geometry" />
        </mxCell>
        <mxCell id="PbY_MZgcbPNX0MPxPYcz-117" value="Capacidad" style="text;html=1;align=center;verticalAlign=middle;whiteSpace=wrap;rounded=0;fontSize=8;" vertex="1" parent="PbY_MZgcbPNX0MPxPYcz-113">
          <mxGeometry width="50" height="20" as="geometry" />
        </mxCell>
        <mxCell id="PbY_MZgcbPNX0MPxPYcz-118" value="" style="group" vertex="1" connectable="0" parent="PbY_MZgcbPNX0MPxPYcz-168">
          <mxGeometry x="117" width="50" height="60" as="geometry" />
        </mxCell>
        <mxCell id="PbY_MZgcbPNX0MPxPYcz-119" value="" style="group;direction=west;" vertex="1" connectable="0" parent="PbY_MZgcbPNX0MPxPYcz-118">
          <mxGeometry x="15" y="20" width="20" height="40" as="geometry" />
        </mxCell>
        <mxCell id="PbY_MZgcbPNX0MPxPYcz-120" value="" style="endArrow=none;html=1;rounded=0;" edge="1" parent="PbY_MZgcbPNX0MPxPYcz-119">
          <mxGeometry width="50" height="50" relative="1" as="geometry">
            <mxPoint x="10" y="40" as="sourcePoint" />
            <mxPoint x="10" y="20" as="targetPoint" />
          </mxGeometry>
        </mxCell>
        <mxCell id="PbY_MZgcbPNX0MPxPYcz-121" value="" style="ellipse;whiteSpace=wrap;html=1;aspect=fixed;" vertex="1" parent="PbY_MZgcbPNX0MPxPYcz-119">
          <mxGeometry width="20" height="20" as="geometry" />
        </mxCell>
        <mxCell id="PbY_MZgcbPNX0MPxPYcz-122" value="LocalizaciÃ³n" style="text;html=1;align=center;verticalAlign=middle;whiteSpace=wrap;rounded=0;fontSize=8;" vertex="1" parent="PbY_MZgcbPNX0MPxPYcz-118">
          <mxGeometry width="50" height="20" as="geometry" />
        </mxCell>
        <mxCell id="PbY_MZgcbPNX0MPxPYcz-180" value="" style="group" vertex="1" connectable="0" parent="PbY_MZgcbPNX0MPxPYcz-184">
          <mxGeometry x="30" y="10" width="80" height="163" as="geometry" />
        </mxCell>
        <mxCell id="PbY_MZgcbPNX0MPxPYcz-169" value="Guardar" style="rhombus;whiteSpace=wrap;html=1;" vertex="1" parent="PbY_MZgcbPNX0MPxPYcz-180">
          <mxGeometry y="60" width="80" height="40" as="geometry" />
        </mxCell>
        <mxCell id="PbY_MZgcbPNX0MPxPYcz-170" value="" style="group" vertex="1" connectable="0" parent="PbY_MZgcbPNX0MPxPYcz-180">
          <mxGeometry x="15" width="50" height="60" as="geometry" />
        </mxCell>
        <mxCell id="PbY_MZgcbPNX0MPxPYcz-171" value="" style="group;direction=west;" vertex="1" connectable="0" parent="PbY_MZgcbPNX0MPxPYcz-170">
          <mxGeometry x="15" y="20" width="20" height="40" as="geometry" />
        </mxCell>
        <mxCell id="PbY_MZgcbPNX0MPxPYcz-172" value="" style="endArrow=none;html=1;rounded=0;" edge="1" parent="PbY_MZgcbPNX0MPxPYcz-171">
          <mxGeometry width="50" height="50" relative="1" as="geometry">
            <mxPoint x="10" y="40" as="sourcePoint" />
            <mxPoint x="10" y="20" as="targetPoint" />
          </mxGeometry>
        </mxCell>
        <mxCell id="PbY_MZgcbPNX0MPxPYcz-173" value="" style="ellipse;whiteSpace=wrap;html=1;aspect=fixed;" vertex="1" parent="PbY_MZgcbPNX0MPxPYcz-171">
          <mxGeometry width="20" height="20" as="geometry" />
        </mxCell>
        <mxCell id="PbY_MZgcbPNX0MPxPYcz-174" value="Fecha entrada" style="text;html=1;align=center;verticalAlign=middle;whiteSpace=wrap;rounded=0;fontSize=8;" vertex="1" parent="PbY_MZgcbPNX0MPxPYcz-170">
          <mxGeometry width="50" height="20" as="geometry" />
        </mxCell>
        <mxCell id="PbY_MZgcbPNX0MPxPYcz-179" value="Fecha salida" style="text;html=1;align=center;verticalAlign=middle;whiteSpace=wrap;rounded=0;fontSize=8;container=0;" vertex="1" parent="PbY_MZgcbPNX0MPxPYcz-180">
          <mxGeometry x="15" y="143" width="50" height="20" as="geometry" />
        </mxCell>
        <mxCell id="PbY_MZgcbPNX0MPxPYcz-177" value="" style="endArrow=none;html=1;rounded=0;" edge="1" parent="PbY_MZgcbPNX0MPxPYcz-180">
          <mxGeometry width="50" height="50" relative="1" as="geometry">
            <mxPoint x="39.82000000000005" y="120" as="sourcePoint" />
            <mxPoint x="39.82000000000005" y="100" as="targetPoint" />
          </mxGeometry>
        </mxCell>
        <mxCell id="PbY_MZgcbPNX0MPxPYcz-178" value="" style="ellipse;whiteSpace=wrap;html=1;aspect=fixed;container=0;" vertex="1" parent="PbY_MZgcbPNX0MPxPYcz-180">
          <mxGeometry x="30" y="120" width="20" height="20" as="geometry" />
        </mxCell>
        <mxCell id="PbY_MZgcbPNX0MPxPYcz-182" value="" style="endArrow=classic;html=1;rounded=0;exitX=1;exitY=0.5;exitDx=0;exitDy=0;entryX=0;entryY=0.5;entryDx=0;entryDy=0;endFill=1;" edge="1" parent="PbY_MZgcbPNX0MPxPYcz-184" source="PbY_MZgcbPNX0MPxPYcz-169" target="PbY_MZgcbPNX0MPxPYcz-107">
          <mxGeometry width="50" height="50" relative="1" as="geometry">
            <mxPoint x="-68" y="30" as="sourcePoint" />
            <mxPoint x="10" y="30" as="targetPoint" />
          </mxGeometry>
        </mxCell>
        <mxCell id="PbY_MZgcbPNX0MPxPYcz-235" value="&lt;i&gt;(1,N)&lt;/i&gt;" style="text;html=1;align=center;verticalAlign=middle;whiteSpace=wrap;rounded=0;" vertex="1" parent="PbY_MZgcbPNX0MPxPYcz-184">
          <mxGeometry x="100" y="60" width="60" height="30" as="geometry" />
        </mxCell>
        <mxCell id="PbY_MZgcbPNX0MPxPYcz-185" style="edgeStyle=orthogonalEdgeStyle;rounded=0;orthogonalLoop=1;jettySize=auto;html=1;entryX=1;entryY=0.5;entryDx=0;entryDy=0;exitX=0;exitY=0.5;exitDx=0;exitDy=0;" edge="1" parent="PbY_MZgcbPNX0MPxPYcz-238" source="PbY_MZgcbPNX0MPxPYcz-169" target="PbY_MZgcbPNX0MPxPYcz-142">
          <mxGeometry relative="1" as="geometry">
            <mxPoint x="490" y="950" as="sourcePoint" />
            <mxPoint x="10" y="790" as="targetPoint" />
            <Array as="points">
              <mxPoint x="460" y="950" />
              <mxPoint x="460" y="880" />
            </Array>
          </mxGeometry>
        </mxCell>
        <mxCell id="PbY_MZgcbPNX0MPxPYcz-186" style="edgeStyle=orthogonalEdgeStyle;rounded=0;orthogonalLoop=1;jettySize=auto;html=1;entryX=0.5;entryY=1;entryDx=0;entryDy=0;" edge="1" parent="PbY_MZgcbPNX0MPxPYcz-238" target="PbY_MZgcbPNX0MPxPYcz-50">
          <mxGeometry relative="1" as="geometry">
            <mxPoint x="220" y="880" as="sourcePoint" />
            <Array as="points">
              <mxPoint x="230" y="880" />
            </Array>
          </mxGeometry>
        </mxCell>
        <mxCell id="PbY_MZgcbPNX0MPxPYcz-187" style="edgeStyle=orthogonalEdgeStyle;rounded=0;orthogonalLoop=1;jettySize=auto;html=1;exitX=1;exitY=0.5;exitDx=0;exitDy=0;entryX=0.5;entryY=1;entryDx=0;entryDy=0;" edge="1" parent="PbY_MZgcbPNX0MPxPYcz-238" source="PbY_MZgcbPNX0MPxPYcz-142" target="PbY_MZgcbPNX0MPxPYcz-51">
          <mxGeometry relative="1" as="geometry" />
        </mxCell>
        <mxCell id="PbY_MZgcbPNX0MPxPYcz-188" style="edgeStyle=orthogonalEdgeStyle;rounded=0;orthogonalLoop=1;jettySize=auto;html=1;entryX=0.5;entryY=1;entryDx=0;entryDy=0;" edge="1" parent="PbY_MZgcbPNX0MPxPYcz-238" source="PbY_MZgcbPNX0MPxPYcz-142" target="PbY_MZgcbPNX0MPxPYcz-52">
          <mxGeometry relative="1" as="geometry" />
        </mxCell>
        <mxCell id="PbY_MZgcbPNX0MPxPYcz-229" value="" style="group" vertex="1" connectable="0" parent="PbY_MZgcbPNX0MPxPYcz-238">
          <mxGeometry x="536" y="540" width="189" height="50" as="geometry" />
        </mxCell>
        <mxCell id="PbY_MZgcbPNX0MPxPYcz-216" value="Reparar" style="rhombus;whiteSpace=wrap;html=1;" vertex="1" parent="PbY_MZgcbPNX0MPxPYcz-229">
          <mxGeometry x="54" y="10" width="80" height="40" as="geometry" />
        </mxCell>
        <mxCell id="PbY_MZgcbPNX0MPxPYcz-217" value="" style="group" vertex="1" connectable="0" parent="PbY_MZgcbPNX0MPxPYcz-229">
          <mxGeometry width="55" height="40" as="geometry" />
        </mxCell>
        <mxCell id="PbY_MZgcbPNX0MPxPYcz-218" value="" style="group" vertex="1" connectable="0" parent="PbY_MZgcbPNX0MPxPYcz-217">
          <mxGeometry x="15" y="20" width="40" height="20" as="geometry" />
        </mxCell>
        <mxCell id="PbY_MZgcbPNX0MPxPYcz-219" value="" style="endArrow=none;html=1;rounded=0;exitX=1;exitY=0.5;exitDx=0;exitDy=0;" edge="1" parent="PbY_MZgcbPNX0MPxPYcz-218" source="PbY_MZgcbPNX0MPxPYcz-220">
          <mxGeometry width="50" height="50" relative="1" as="geometry">
            <mxPoint x="30" as="sourcePoint" />
            <mxPoint x="40" y="10" as="targetPoint" />
          </mxGeometry>
        </mxCell>
        <mxCell id="PbY_MZgcbPNX0MPxPYcz-220" value="" style="ellipse;whiteSpace=wrap;html=1;aspect=fixed;container=0;" vertex="1" parent="PbY_MZgcbPNX0MPxPYcz-218">
          <mxGeometry width="20" height="20" as="geometry" />
        </mxCell>
        <mxCell id="PbY_MZgcbPNX0MPxPYcz-221" value="Fecha de compra" style="text;html=1;align=center;verticalAlign=middle;whiteSpace=wrap;rounded=0;fontSize=8;" vertex="1" parent="PbY_MZgcbPNX0MPxPYcz-217">
          <mxGeometry width="50" height="20" as="geometry" />
        </mxCell>
        <mxCell id="PbY_MZgcbPNX0MPxPYcz-228" value="" style="group" vertex="1" connectable="0" parent="PbY_MZgcbPNX0MPxPYcz-229">
          <mxGeometry x="133.9999999999843" width="55.00000000001569" height="40" as="geometry" />
        </mxCell>
        <mxCell id="PbY_MZgcbPNX0MPxPYcz-226" value="Nro. contrato" style="text;html=1;align=center;verticalAlign=middle;whiteSpace=wrap;rounded=0;fontSize=8;" vertex="1" parent="PbY_MZgcbPNX0MPxPYcz-228">
          <mxGeometry x="5.000000000015689" width="50" height="20" as="geometry" />
        </mxCell>
        <mxCell id="PbY_MZgcbPNX0MPxPYcz-224" value="" style="endArrow=none;html=1;rounded=0;exitX=1;exitY=0.5;exitDx=0;exitDy=0;" edge="1" parent="PbY_MZgcbPNX0MPxPYcz-228">
          <mxGeometry width="50" height="50" relative="1" as="geometry">
            <mxPoint y="29.879999999999995" as="sourcePoint" />
            <mxPoint x="20.00000000001569" y="29.879999999999995" as="targetPoint" />
          </mxGeometry>
        </mxCell>
        <mxCell id="PbY_MZgcbPNX0MPxPYcz-225" value="" style="ellipse;whiteSpace=wrap;html=1;aspect=fixed;container=0;" vertex="1" parent="PbY_MZgcbPNX0MPxPYcz-228">
          <mxGeometry x="20.00000000001569" y="20" width="20" height="20" as="geometry" />
        </mxCell>
        <mxCell id="PbY_MZgcbPNX0MPxPYcz-230" value="" style="group" vertex="1" connectable="0" parent="PbY_MZgcbPNX0MPxPYcz-238">
          <mxGeometry x="336" y="540" width="134" height="50" as="geometry" />
        </mxCell>
        <mxCell id="PbY_MZgcbPNX0MPxPYcz-204" value="Reparar" style="rhombus;whiteSpace=wrap;html=1;" vertex="1" parent="PbY_MZgcbPNX0MPxPYcz-230">
          <mxGeometry x="54" y="10" width="80" height="40" as="geometry" />
        </mxCell>
        <mxCell id="PbY_MZgcbPNX0MPxPYcz-205" value="" style="group" vertex="1" connectable="0" parent="PbY_MZgcbPNX0MPxPYcz-230">
          <mxGeometry width="55" height="40" as="geometry" />
        </mxCell>
        <mxCell id="PbY_MZgcbPNX0MPxPYcz-206" value="" style="group" vertex="1" connectable="0" parent="PbY_MZgcbPNX0MPxPYcz-205">
          <mxGeometry x="15" y="20" width="40" height="20" as="geometry" />
        </mxCell>
        <mxCell id="PbY_MZgcbPNX0MPxPYcz-207" value="" style="endArrow=none;html=1;rounded=0;exitX=1;exitY=0.5;exitDx=0;exitDy=0;" edge="1" parent="PbY_MZgcbPNX0MPxPYcz-206" source="PbY_MZgcbPNX0MPxPYcz-208">
          <mxGeometry width="50" height="50" relative="1" as="geometry">
            <mxPoint x="30" as="sourcePoint" />
            <mxPoint x="40" y="10" as="targetPoint" />
          </mxGeometry>
        </mxCell>
        <mxCell id="PbY_MZgcbPNX0MPxPYcz-208" value="" style="ellipse;whiteSpace=wrap;html=1;aspect=fixed;container=0;" vertex="1" parent="PbY_MZgcbPNX0MPxPYcz-206">
          <mxGeometry width="20" height="20" as="geometry" />
        </mxCell>
        <mxCell id="PbY_MZgcbPNX0MPxPYcz-209" value="Periodo de reparaciones" style="text;html=1;align=center;verticalAlign=middle;whiteSpace=wrap;rounded=0;fontSize=8;" vertex="1" parent="PbY_MZgcbPNX0MPxPYcz-205">
          <mxGeometry width="50" height="20" as="geometry" />
        </mxCell>
        <mxCell id="PbY_MZgcbPNX0MPxPYcz-231" value="" style="group" vertex="1" connectable="0" parent="PbY_MZgcbPNX0MPxPYcz-238">
          <mxGeometry x="136" y="540" width="134" height="50" as="geometry" />
        </mxCell>
        <mxCell id="PbY_MZgcbPNX0MPxPYcz-190" value="Volar" style="rhombus;whiteSpace=wrap;html=1;" vertex="1" parent="PbY_MZgcbPNX0MPxPYcz-231">
          <mxGeometry x="54" y="10" width="80" height="40" as="geometry" />
        </mxCell>
        <mxCell id="PbY_MZgcbPNX0MPxPYcz-199" value="" style="group" vertex="1" connectable="0" parent="PbY_MZgcbPNX0MPxPYcz-231">
          <mxGeometry width="55" height="40" as="geometry" />
        </mxCell>
        <mxCell id="PbY_MZgcbPNX0MPxPYcz-200" value="" style="group" vertex="1" connectable="0" parent="PbY_MZgcbPNX0MPxPYcz-199">
          <mxGeometry x="15" y="20" width="40" height="20" as="geometry" />
        </mxCell>
        <mxCell id="PbY_MZgcbPNX0MPxPYcz-201" value="" style="endArrow=none;html=1;rounded=0;exitX=1;exitY=0.5;exitDx=0;exitDy=0;" edge="1" parent="PbY_MZgcbPNX0MPxPYcz-200" source="PbY_MZgcbPNX0MPxPYcz-202">
          <mxGeometry width="50" height="50" relative="1" as="geometry">
            <mxPoint x="30" as="sourcePoint" />
            <mxPoint x="40" y="10" as="targetPoint" />
          </mxGeometry>
        </mxCell>
        <mxCell id="PbY_MZgcbPNX0MPxPYcz-202" value="" style="ellipse;whiteSpace=wrap;html=1;aspect=fixed;container=0;" vertex="1" parent="PbY_MZgcbPNX0MPxPYcz-200">
          <mxGeometry width="20" height="20" as="geometry" />
        </mxCell>
        <mxCell id="PbY_MZgcbPNX0MPxPYcz-203" value="Periodo de vuelo" style="text;html=1;align=center;verticalAlign=middle;whiteSpace=wrap;rounded=0;fontSize=8;" vertex="1" parent="PbY_MZgcbPNX0MPxPYcz-199">
          <mxGeometry width="50" height="20" as="geometry" />
        </mxCell>
        <mxCell id="PbY_MZgcbPNX0MPxPYcz-233" style="edgeStyle=orthogonalEdgeStyle;rounded=0;orthogonalLoop=1;jettySize=auto;html=1;exitX=0.75;exitY=1;exitDx=0;exitDy=0;entryX=1;entryY=0;entryDx=0;entryDy=0;" edge="1" parent="PbY_MZgcbPNX0MPxPYcz-238" source="PbY_MZgcbPNX0MPxPYcz-52" target="PbY_MZgcbPNX0MPxPYcz-169">
          <mxGeometry relative="1" as="geometry">
            <Array as="points">
              <mxPoint x="780" y="400" />
              <mxPoint x="780" y="830" />
              <mxPoint x="550" y="830" />
            </Array>
          </mxGeometry>
        </mxCell>
        <mxCell id="PbY_MZgcbPNX0MPxPYcz-234" value="&lt;i&gt;(N,M)&lt;/i&gt;" style="text;html=1;align=center;verticalAlign=middle;whiteSpace=wrap;rounded=0;" vertex="1" parent="PbY_MZgcbPNX0MPxPYcz-238">
          <mxGeometry x="135" y="750" width="60" height="30" as="geometry" />
        </mxCell>
        <mxCell id="PbY_MZgcbPNX0MPxPYcz-236" value="" style="endArrow=none;html=1;rounded=0;curved=1;" edge="1" parent="PbY_MZgcbPNX0MPxPYcz-238">
          <mxGeometry width="50" height="50" relative="1" as="geometry">
            <mxPoint x="510" y="230" as="sourcePoint" />
            <mxPoint x="350" y="230" as="targetPoint" />
            <Array as="points">
              <mxPoint x="430" y="310" />
            </Array>
          </mxGeometry>
        </mxCell>
      </root>
    </mxGraphModel>
  </diagram>
</mxfile>
